SplineFontDB: 3.0
FontName: AlbaMinchoKana
FullName: Alba Mincho Kana
FamilyName: Alba Mincho
Weight: Regular
Copyright: Created by G.W. with FontForge 2.0 (http://fontforge.sf.net)
UComments: "2015-4-21: Created.+AAoA-Design by G J Wilson.+AAoA-Created for the typesetting of short pieces of poetry.+AAoACgAA-2019-02-28: Modified and renamed for further development and public release."
FontLog: "Add a FONTLOG."
Version: 001.000
ItalicAngle: 0
UnderlinePosition: -100
UnderlineWidth: 50
Ascent: 800
Descent: 200
InvalidEm: 0
LayerCount: 3
Layer: 0 0 "Back" 1
Layer: 1 0 "Fore" 0
Layer: 2 0 "Back 2" 1
HasVMetrics: 1
XUID: [1021 109 133594851 16623412]
FSType: 0
OS2Version: 0
OS2_WeightWidthSlopeOnly: 0
OS2_UseTypoMetrics: 1
CreationTime: 1429650512
ModificationTime: 1584386520
PfmFamily: 17
TTFWeight: 500
TTFWidth: 5
LineGap: 200
VLineGap: 400
OS2TypoAscent: 0
OS2TypoAOffset: 1
OS2TypoDescent: 0
OS2TypoDOffset: 1
OS2TypoLinegap: 200
OS2WinAscent: 0
OS2WinAOffset: 1
OS2WinDescent: 0
OS2WinDOffset: 1
HheadAscent: 0
HheadAOffset: 1
HheadDescent: 0
HheadDOffset: 1
OS2Vendor: 'PfEd'
Lookup: 1 0 0 "'salt' Stylistic Alternatives lookup 3" { "'salt' Stylistic Alternatives lookup 3-subtable"  } ['salt' ('DFLT' <'dflt' > 'kana' <'dflt' > 'latn' <'dflt' > ) ]
Lookup: 1 0 0 "'aalt' Access All Alternates lookup 0" { "'aalt' Access All Alternates lookup 0-subtable"  } ['aalt' ('DFLT' <'dflt' > 'kana' <'dflt' > 'latn' <'dflt' > ) ]
Lookup: 1 0 0 "'vert' Vertical Alternates (obs) lookup 1" { "'vert' Vertical Alternates (obs) lookup 1-subtable"  } ['vert' ('DFLT' <'dflt' > 'kana' <'dflt' > 'latn' <'dflt' > ) ]
Lookup: 1 0 0 "'vkna' Vertical Kana Alternates lookup 2" { "'vkna' Vertical Kana Alternates lookup 2-subtable"  } ['vkna' ('DFLT' <'dflt' > 'kana' <'dflt' > 'latn' <'dflt' > ) ]
Lookup: 260 0 0 "Accents" { "Hiragana-Vu"  } ['mark' ('DFLT' <'dflt' > 'kana' <'dflt' > 'latn' <'dflt' > ) ]
MarkAttachClasses: 2
"Ten" 15 uni3099 uni309A
DEI: 91125

StartChar: uni30FB
Encoding: 12539 12539 0
Width: 1000
Flags: HM
LayerCount: 3
Back
SplineSet
415 300 m 0
 415 347 453 385 500 385 c 0
 547 385 585 347 585 300 c 0
 585 253 547 215 500 215 c 0
 453 215 415 253 415 300 c 0
EndSplineSet
Fore
SplineSet
415 300 m 0
 415 347 453 385 500 385 c 0
 547 385 585 347 585 300 c 0
 585 253 547 215 500 215 c 0
 453 215 415 253 415 300 c 0
EndSplineSet
EndChar

StartChar: uni3031
Encoding: 12337 12337 1
Width: 1000
Flags: HMW
LayerCount: 3
Back
SplineSet
615 1230 m 9
 630 1245 l 17
 695 1215 745 1160 745 1130 c 3
 745 1120 731.969 1113.42 705 1080 c 0
 475 795 240 450 240 360 c 3
 240 265 410 70 590 -230 c 0
 710 -430 755 -540 755 -580 c 3
 755 -605 725 -640 700 -640 c 3
 665 -640 685 -565 505 -220 c 0
 360.194 57.5449 200 250 200 355 c 3
 200 440 300 597 475 875 c 0
 601.67 1076.22 650 1140 650 1170 c 3
 650 1190 635 1215 615 1230 c 9
EndSplineSet
Fore
SplineSet
615 1230 m 9
 630 1245 l 17
 695 1215 745 1160 745 1130 c 3
 745 1120 732 1113 705 1080 c 0
 475 795 240 450 240 360 c 3
 240 265 410 70 590 -230 c 0
 710 -430 755 -540 755 -580 c 3
 755 -605 725 -640 700 -640 c 3
 665 -640 685 -565 505 -220 c 0
 360 58 200 250 200 355 c 3
 200 440 300 597 475 875 c 0
 602 1076 650 1140 650 1170 c 3
 650 1190 635 1215 615 1230 c 9
EndSplineSet
EndChar

StartChar: uni3032
Encoding: 12338 12338 2
Width: 1000
Flags: HMW
LayerCount: 3
Back
SplineSet
615 1230 m 9
 630 1245 l 17
 695 1215 745 1160 745 1130 c 3
 745 1120 731.969 1113.42 705 1080 c 0
 475 795 240 450 240 360 c 3
 240 265 410 70 590 -230 c 0
 710 -430 755 -540 755 -580 c 3
 755 -605 725 -640 700 -640 c 3
 665 -640 685 -565 505 -220 c 0
 360.194 57.5449 200 250 200 355 c 3
 200 440 300 597 475 875 c 0
 601.67 1076.22 650 1140 650 1170 c 3
 650 1190 635 1215 615 1230 c 9
652 720 m 9
 667 735 l 17
 752 695 790 630 790 603 c 3
 790 590 770 570 750 570 c 3
 725 570 727 653 652 720 c 9
740 775 m 9
 755 790 l 17
 835 764 890 700 890 670 c 3
 890 655 870 635 850 635 c 3
 830 635 820 720 740 775 c 9
EndSplineSet
Fore
SplineSet
615 1230 m 9
 630 1245 l 17
 695 1215 745 1160 745 1130 c 3
 745 1120 732 1113 705 1080 c 0
 475 795 240 450 240 360 c 3
 240 265 410 70 590 -230 c 0
 710 -430 755 -540 755 -580 c 3
 755 -605 725 -640 700 -640 c 3
 665 -640 685 -565 505 -220 c 0
 360 58 200 250 200 355 c 3
 200 440 300 597 475 875 c 0
 602 1076 650 1140 650 1170 c 3
 650 1190 635 1215 615 1230 c 9
652 720 m 9
 667 735 l 17
 752 695 790 630 790 603 c 3
 790 590 770 570 750 570 c 3
 725 570 727 653 652 720 c 9
740 775 m 9
 755 790 l 17
 835 764 890 700 890 670 c 3
 890 655 870 635 850 635 c 3
 830 635 820 720 740 775 c 9
EndSplineSet
EndChar

StartChar: uni3033
Encoding: 12339 12339 3
Width: 1000
Flags: HMW
LayerCount: 3
Back
SplineSet
255 -200 m 9
 211 -200 l 17
 203 -178 200 -159 200 -145 c 3
 200 -60 300 97 475 375 c 0
 601.67 576.224 650 640 650 670 c 3
 650 690 635 715 615 730 c 9
 630 745 l 17
 695 715 745 660 745 630 c 3
 745 620 731.969 613.42 705 580 c 0
 475 295 240 -50 240 -140 c 3
 240 -156 245 -176 255 -200 c 9
EndSplineSet
Fore
SplineSet
255 -200 m 9
 211 -200 l 17
 203 -178 200 -159 200 -145 c 3
 200 -60 300 97 475 375 c 0
 602 576 650 640 650 670 c 3
 650 690 635 715 615 730 c 9
 630 745 l 17
 695 715 745 660 745 630 c 3
 745 620 732 613 705 580 c 0
 475 295 240 -50 240 -140 c 3
 240 -156 245 -176 255 -200 c 9
EndSplineSet
EndChar

StartChar: uni3034
Encoding: 12340 12340 4
Width: 1000
Flags: HMW
LayerCount: 3
Back
SplineSet
255 -200 m 9
 211 -200 l 17
 203 -178 200 -159 200 -145 c 3
 200 -60 300 97 475 375 c 0
 601.67 576.224 650 640 650 670 c 3
 650 690 635 715 615 730 c 9
 630 745 l 17
 695 715 745 660 745 630 c 3
 745 620 731.969 613.42 705 580 c 0
 475 295 240 -50 240 -140 c 3
 240 -156 245 -176 255 -200 c 9
652 220 m 9
 667 235 l 17
 752 195 790 130 790 103 c 3
 790 90 770 70 750 70 c 3
 725 70 727 153 652 220 c 9
740 275 m 9
 755 290 l 17
 835 264 890 200 890 170 c 3
 890 155 870 135 850 135 c 3
 830 135 820 220 740 275 c 9
EndSplineSet
Fore
SplineSet
255 -200 m 9
 211 -200 l 17
 203 -178 200 -159 200 -145 c 3
 200 -60 300 97 475 375 c 0
 602 576 650 640 650 670 c 3
 650 690 635 715 615 730 c 9
 630 745 l 17
 695 715 745 660 745 630 c 3
 745 620 732 613 705 580 c 0
 475 295 240 -50 240 -140 c 3
 240 -156 245 -176 255 -200 c 9
652 220 m 9
 667 235 l 17
 752 195 790 130 790 103 c 3
 790 90 770 70 750 70 c 3
 725 70 727 153 652 220 c 9
740 275 m 9
 755 290 l 17
 835 264 890 200 890 170 c 3
 890 155 870 135 850 135 c 3
 830 135 820 220 740 275 c 9
EndSplineSet
EndChar

StartChar: uni3035
Encoding: 12341 12341 5
Width: 1000
Flags: HMW
LayerCount: 3
Back
SplineSet
255 800 m 17
 305 686 440 520 590 270 c 0
 710 70 755 -40 755 -80 c 3
 755 -105 725 -140 700 -140 c 3
 665 -140 685 -65 505 280 c 0
 383.03 513.776 250 687 211 800 c 9
 255 800 l 17
EndSplineSet
Fore
SplineSet
255 800 m 17
 305 686 440 520 590 270 c 0
 710 70 755 -40 755 -80 c 3
 755 -105 725 -140 700 -140 c 3
 665 -140 685 -65 505 280 c 0
 383 514 250 687 211 800 c 9
 255 800 l 17
EndSplineSet
EndChar

StartChar: uni303B
Encoding: 12347 12347 6
Width: 1000
Flags: HMW
LayerCount: 3
Back
SplineSet
400 300 m 0
 400 355 445 400 500 400 c 0
 555 400 600 355 600 300 c 0
 600 245 555 200 500 200 c 0
 445 200 400 245 400 300 c 0
EndSplineSet
Fore
SplineSet
400 300 m 0
 400 355 445 400 500 400 c 0
 555 400 600 355 600 300 c 0
 600 245 555 200 500 200 c 0
 445 200 400 245 400 300 c 0
EndSplineSet
EndChar

StartChar: uni303C
Encoding: 12348 12348 7
Width: 1000
Flags: HMW
LayerCount: 3
Back
SplineSet
800 635 m 1
 165 635 l 1
 165 0 l 1
 800 635 l 1
120 -80 m 1
 120 680 l 1
 880 680 l 1
 880 -80 l 1
 120 -80 l 1
200 -35 m 1
 835 -35 l 1
 835 600 l 1
 200 -35 l 1
EndSplineSet
Fore
SplineSet
800 635 m 1
 165 635 l 1
 165 0 l 1
 800 635 l 1
120 -80 m 1
 120 680 l 1
 880 680 l 1
 880 -80 l 1
 120 -80 l 1
200 -35 m 1
 835 -35 l 1
 835 600 l 1
 200 -35 l 1
EndSplineSet
EndChar

StartChar: uni3041
Encoding: 12353 12353 8
Width: 1000
Flags: HMW
LayerCount: 3
Back
SplineSet
576 250 m 3
 397 250 221 87 221 -11 c 3
 221 -33 232 -47 251 -47 c 3
 355 -47 575 196 575 289 c 3
 575 305 564 325 550 338 c 9
 565 350 l 17
 595 330 625 293 625 263 c 3
 625 183 375 -102 225 -102 c 3
 191 -102 164 -75 164 -37 c 3
 164 100 377 283 597 283 c 3
 740 283 842 205 842 82 c 3
 842 -80 690 -148 483 -160 c 9
 478 -140 l 17
 645 -110 773 -50 773 90 c 3
 773 180 700 250 576 250 c 3
365 532 m 9
 360 552 l 17
 370 556 390 561 403 561 c 3
 445 561 484 529 484 514 c 3
 484 506 473 500 465 475 c 0
 457 450 435 353 435 192 c 3
 435 50 480 -7 480 -24 c 3
 480 -37 462 -55 445 -55 c 3
 424 -55 392 40 392 170 c 3
 392 352 413 487 413 508 c 3
 413 521 395 533 377 533 c 3
 375 533 369 533 365 532 c 9
223 430 m 9
 237 442 l 17
 262 418 306 404 344 404 c 3
 495 404 596 477 614 477 c 3
 631 477 650 461 650 449 c 3
 650 423 480 358 339 358 c 3
 288 358 247 390 223 430 c 9
EndSplineSet
Substitution2: "'aalt' Access All Alternates lookup 0-subtable" u10FFF0
Substitution2: "'vert' Vertical Alternates (obs) lookup 1-subtable" u10FFF0
Substitution2: "'vkna' Vertical Kana Alternates lookup 2-subtable" u10FFF0
EndChar

StartChar: uni3042
Encoding: 12354 12354 9
Width: 1000
Flags: HMW
LayerCount: 3
Back
SplineSet
1570 360 m 3
 1358 360 1147 170 1147 50 c 3
 1147 20 1160 5 1185 5 c 3
 1310 5 1570 295 1570 405 c 3
 1570 425 1555 450 1540 465 c 9
 1555 475 l 17
 1590 450 1625 410 1625 375 c 3
 1625 280 1330 -54 1155 -54 c 3
 1120 -54 1085 -25 1085 20 c 3
 1085 180 1335 395 1595 395 c 3
 1760 395 1880 304 1880 160 c 3
 1880 -26 1705 -110 1460 -125 c 9
 1455 -105 l 17
 1655 -70 1807 5 1807 170 c 3
 1807 280 1720 360 1570 360 c 3
1320 695 m 9
 1315 715 l 17
 1327 720 1350 725 1365 725 c 3
 1415 725 1458 690 1458 672 c 3
 1458 663 1445 655 1435 625 c 0
 1425 595 1400 480 1400 290 c 3
 1400 125 1453 55 1453 35 c 3
 1453 20 1435 0 1415 0 c 3
 1390 0 1353 125 1353 265 c 3
 1353 480 1380 640 1380 665 c 3
 1380 680 1360 697 1335 697 c 3
 1330 697 1325 696 1320 695 c 9
1155 575 m 9
 1170 585 l 17
 1200 555 1250 540 1295 540 c 3
 1480 540 1594 625 1612 625 c 3
 1632 625 1655 607 1655 593 c 3
 1655 568 1455 490 1290 490 c 3
 1230 490 1185 525 1155 575 c 9
573.54296875 366.921875 m 0
 362.349609375 348.4453125 168.712890625 140.778320312 179.170898438 21.2353515625 c 0
 181.786132812 -8.6513671875 196.043945312 -22.4609375 220.948242188 -20.2822265625 c 0
 345.47265625 -9.3876953125 579.208007812 302.169921875 569.62109375 411.750976562 c 0
 567.877929688 431.674804688 550.755859375 455.272460938 534.505859375 468.908203125 c 9
 548.577148438 480.176757812 l 17
 585.623046875 458.323242188 623.9765625 421.525390625 627.026367188 386.658203125 c 0
 635.306640625 292.020507812 370.5390625 -66.419921875 196.205078125 -81.671875 c 0
 161.337890625 -84.72265625 123.943359375 -58.8837890625 120.021484375 -14.0546875 c 0
 106.077148438 145.336914062 336.38671875 381.307617188 595.397460938 403.967773438 c 0
 759.76953125 418.348632812 887.244140625 338.153320312 899.794921875 194.701171875 c 0
 916.005859375 9.4091796875 748.993164062 -89.5234375 506.232421875 -125.819335938 c 9
 499.5078125 -106.331054688 l 17
 695.696289062 -54.033203125 840.58203125 33.9287109375 826.201171875 198.30078125 c 0
 816.614257812 307.8828125 722.97265625 379.995117188 573.54296875 366.921875 c 0
340 695 m 9
 335 715 l 17
 347 720 370 725 385 725 c 3
 435 725 478 690 478 672 c 3
 478 663 465 655 455 625 c 0
 445 595 420 480 420 290 c 3
 420 125 473 55 473 35 c 3
 473 20 455 0 435 0 c 3
 410 0 373 125 373 265 c 3
 373 480 400 640 400 665 c 3
 400 680 380 697 355 697 c 3
 350 697 345 696 340 695 c 9
175 575 m 9
 190 585 l 17
 220 555 270 540 315 540 c 3
 500 540 614 625 632 625 c 3
 652 625 675 607 675 593 c 3
 675 568 475 490 310 490 c 3
 250 490 205 525 175 575 c 9
EndSplineSet
Fore
SplineSet
585 367 m 3
 368 367 172 175 172 45 c 3
 172 15 185 0 210 0 c 3
 335 0 590 300 590 410 c 3
 590 430 575 455 560 470 c 9
 575 480 l 17
 610 455 645 415 645 380 c 3
 645 285 355 -59 180 -59 c 3
 145 -59 110 -30 110 15 c 3
 110 180 345 402 610 402 c 3
 775 402 900 309 900 165 c 3
 900 -11 739 -110 480 -120 c 9
 475 -100 l 17
 680 -70 827 15 827 175 c 3
 827 285 735 367 585 367 c 3
335 720 m 17
 350 725 367 728 382 728 c 3
 437 728 478 695 478 677 c 3
 478 668 465 660 455 630 c 0
 445 600 420 485 420 295 c 3
 420 130 473 60 473 40 c 3
 473 25 455 5 435 5 c 3
 410 5 373 130 373 270 c 3
 373 485 400 645 400 670 c 3
 400 685 380 702 355 702 c 3
 350 702 345 701 340 700 c 1
 335 720 l 17
175 580 m 9
 190 590 l 17
 220 560 270 545 315 545 c 3
 500 545 614 630 632 630 c 3
 652 630 675 612 675 598 c 3
 675 573 475 495 310 495 c 3
 250 495 205 530 175 580 c 9
EndSplineSet
EndChar

StartChar: uni3043
Encoding: 12355 12355 10
Width: 1000
Flags: HMW
LayerCount: 3
Back
SplineSet
642 325 m 9
 654 345 l 17
 750 307 850 190 850 94 c 3
 850 73 825 46 804 46 c 3
 773 46 780 104 755 180 c 0
 738 231 692 287 642 325 c 9
182 505 m 17
 230 487 272 437 272 411 c 3
 272 401 263 396 255 373 c 0
 246.377 348.208 235 293 235 217 c 3
 235 155 260 80 284 45 c 9
 420 225 l 25
 440 210 l 17
 380 120 338 31 338 -12 c 3
 338 -32 356 -45 356 -64 c 3
 356 -78 338 -94 322 -94 c 3
 285 -94 189 52 189 234 c 3
 189 306 199 403 199 428 c 3
 199 445 188 473 167 490 c 9
 182 505 l 17
EndSplineSet
Substitution2: "'vkna' Vertical Kana Alternates lookup 2-subtable" u10FFF1
Substitution2: "'vert' Vertical Alternates (obs) lookup 1-subtable" u10FFF1
Substitution2: "'aalt' Access All Alternates lookup 0-subtable" u10FFF1
EndChar

StartChar: uni3044
Encoding: 12356 12356 11
Width: 1000
Flags: HMW
LayerCount: 3
Back
SplineSet
670 450 m 9
 680 470 l 17
 795 425 910 285 910 175 c 3
 910 150 880 120 860 120 c 3
 830 120 835 190 805 280 c 0
 785 340 730 405 670 450 c 9
122 660 m 17
 175 640 227 580 227 550 c 3
 227 540 217 535 207 505 c 0
 197 475 184 410 184 320 c 3
 184 240 215 150 245 110 c 9
 408 328 l 25
 425 315 l 17
 355 210 305 100 305 49 c 3
 305 25 327 10 327 -10 c 3
 327 -25 308 -45 290 -45 c 3
 250 -45 135 125 135 340 c 3
 135 425 147 540 147 570 c 3
 147 590 132 625 107 645 c 9
 122 660 l 17
EndSplineSet
Fore
SplineSet
670 460 m 1
 682 479 l 1
 805 427 912 295 912 185 c 3
 912 158 880 130 860 130 c 3
 830 130 835 190 805 280 c 0
 785 340 732 415 670 460 c 1
119 651 m 1
 175 630 227 570 227 540 c 3
 227 530 217 525 207 495 c 0
 197 465 184 400 184 310 c 3
 184 230 220 137 250 95 c 1
 402 318 l 1
 420 305 l 1
 352 200 310 85 310 34 c 3
 310 10 327 -2 327 -20 c 3
 327 -35 306 -54 288 -54 c 3
 245 -54 133 115 133 330 c 3
 133 415 145 530 145 560 c 3
 145 583 131 616 104 636 c 1
 119 651 l 1
EndSplineSet
EndChar

StartChar: uni3045
Encoding: 12357 12357 12
Width: 1000
Flags: HMW
LayerCount: 3
Back
SplineSet
282 332 m 9
 300 337 l 17
 304 317 321 302 335 302 c 3
 365 302 458 350 538 350 c 3
 620 350 690 285 690 175 c 3
 690 -10 560 -130 380 -168 c 9
 370 -152 l 17
 515 -99 620 5 620 183 c 3
 620 255 585 311 525 311 c 3
 473 311 398 264 377 247 c 0
 356 230 352 225 343 225 c 3
 320 225 282 275 282 332 c 9
364 555 m 9
 380 564 l 17
 402 525 460 507 530 507 c 3
 547 507 562 509 570 509 c 3
 593 509 616 480 616 460 c 3
 616 454 610 447 601 447 c 3
 593 447 585 448 572 448 c 3
 546 448 479 432 420 405 c 9
 410 420 l 25
 480 465 l 17
 408 473 377 508 364 555 c 9
EndSplineSet
Substitution2: "'vkna' Vertical Kana Alternates lookup 2-subtable" u10FFF2
Substitution2: "'vert' Vertical Alternates (obs) lookup 1-subtable" u10FFF2
Substitution2: "'aalt' Access All Alternates lookup 0-subtable" u10FFF2
EndChar

StartChar: uni3046
Encoding: 12358 12358 13
Width: 1000
Flags: HMW
LayerCount: 3
Back
SplineSet
245 455 m 9
 265 460 l 17
 270 435 288 418 305 418 c 3
 340 418 450 475 545 475 c 3
 640 475 720 395 720 270 c 3
 720 55 570 -90 360 -135 c 9
 350 -120 l 17
 520 -55 645 65 645 280 c 3
 645 370 600 435 530 435 c 3
 470 435 380 380 355 360 c 0
 330 340 325 334 315 334 c 3
 290 334 245 390 245 455 c 9
340 720 m 9
 355 730 l 17
 380 685 450 660 530 660 c 3
 550 660 575 662 585 662 c 3
 610 662 635 630 635 610 c 3
 635 603 628 596 620 596 c 3
 610 596 600 597 585 597 c 3
 554 597 475 577 405 545 c 9
 395 560 l 25
 480 615 l 17
 395 625 355 665 340 720 c 9
EndSplineSet
Fore
SplineSet
243 455 m 9
 263 460 l 17
 267 430 288 413 305 413 c 3
 340 413 450 470 545 470 c 3
 640 470 720 390 720 265 c 3
 720 55 570 -90 360 -135 c 9
 350 -120 l 17
 520 -55 645 65 645 275 c 3
 645 365 600 430 530 430 c 3
 470 430 380 375 355 355 c 0
 330 335 325 329 315 329 c 3
 290 329 243 380 243 455 c 9
340 715 m 9
 355 725 l 17
 380 680 450 655 530 655 c 3
 550 655 575 657 585 657 c 3
 610 657 635 625 635 605 c 3
 635 598 628 591 620 591 c 3
 610 591 600 592 585 592 c 3
 554 592 475 572 405 540 c 9
 395 555 l 25
 480 610 l 17
 395 620 355 660 340 715 c 9
EndSplineSet
EndChar

StartChar: uni3047
Encoding: 12359 12359 14
Width: 1000
Flags: HMW
LayerCount: 3
Back
SplineSet
365 561 m 17
 390 510 465 502 553 502 c 3
 575 502 595 475 595 455 c 3
 595 449 590 443 580 443 c 3
 573 443 562 445 551 445 c 3
 515 445 467 435 395 405 c 9
 385 420 l 25
 455 460 l 17
 387 473 358 510 345 555 c 9
 365 561 l 17
242 325 m 9
 263 330 l 17
 267 312 280 299 301 299 c 3
 356 299 487 337 538 354 c 0
 563 362 572 370 580 370 c 3
 602 370 647 334 647 314 c 3
 647 293 610 300 418 75 c 1
 435 88 466 105 500 105 c 3
 545 105 567 81 584 -3 c 0
 601 -87 625 -95 699 -95 c 3
 770 -95 793 -83 808 -83 c 3
 825 -83 850 -105 850 -124 c 3
 850 -138 805 -150 728 -150 c 3
 579 -150 549.492 -115.916 532 -15 c 0
 519 60 502 67 475 67 c 3
 441 67 400 45 370 15 c 0
 258 -97 236 -156 215 -156 c 3
 200 -156 180 -132 180 -114 c 3
 180 -95 216 -69 250 -35 c 0
 444 159 550 292 550 309 c 3
 550 312 547 313 542 313 c 3
 521 313 420 276 348 242 c 0
 331 234 318 225 310 225 c 3
 289 225 247 275 242 325 c 9
EndSplineSet
Substitution2: "'vkna' Vertical Kana Alternates lookup 2-subtable" u10FFF3
Substitution2: "'vert' Vertical Alternates (obs) lookup 1-subtable" u10FFF3
Substitution2: "'aalt' Access All Alternates lookup 0-subtable" u10FFF3
EndChar

StartChar: uni3048
Encoding: 12360 12360 15
Width: 1000
Flags: HMW
LayerCount: 3
Back
SplineSet
340 725 m 17
 370 665 455 655 565 655 c 3
 590 655 610 620 610 602 c 3
 610 595 603 590 595 590 c 3
 587 590 573 592 560 592 c 3
 515 592 460 580 375 545 c 9
 365 560 l 25
 450 608 l 17
 370 625 335 665 320 720 c 9
 340 725 l 17
200 448 m 9
 220 453 l 17
 225 430 240 415 265 415 c 3
 330 415 485 460 545 480 c 0
 575 490 585 498 595 498 c 3
 620 498 670 455 670 435 c 3
 670 410 620 420 395 145 c 1
 415 160 460 185 500 185 c 3
 550 185 577 160 597 60 c 0
 617 -40 645 -53 735 -53 c 3
 815 -53 845 -37 865 -37 c 3
 885 -37 910 -64 910 -84 c 3
 910 -99 860 -113 770 -113 c 3
 600 -113 560 -75 540 45 c 0
 525 135 505 145 470 145 c 3
 430 145 377 115 342 80 c 0
 210 -52 184 -120 159 -120 c 3
 144 -120 124 -90 124 -70 c 3
 124 -52 165 -20 205 20 c 0
 435 250 570 415 570 435 c 3
 570 438 565 440 560 440 c 3
 535 440 405 395 320 355 c 0
 300 345 285 335 275 335 c 3
 250 335 205 390 200 448 c 9
EndSplineSet
Fore
SplineSet
340 725 m 1
 375 670 455 660 565 660 c 3
 590 660 610 625 610 607 c 3
 610 600 603 595 595 595 c 3
 587 595 573 597 560 597 c 3
 515 597 460 585 375 550 c 1
 365 565 l 1
 450 613 l 1
 370 630 337 670 320 720 c 1
 340 725 l 1
205 453 m 1
 225 458 l 1
 230 435 245 420 270 420 c 3
 335 420 480 465 540 485 c 0
 570 495 580 503 590 503 c 3
 615 503 665 460 665 440 c 3
 665 415 622 432 393 153 c 1
 413 168 459 193 500 193 c 3
 550 193 578 168 597 65 c 0
 616 -38 645 -53 735 -53 c 3
 815 -53 845 -37 865 -37 c 3
 885 -37 910 -64 910 -84 c 3
 910 -99 860 -113 770 -113 c 3
 600 -113 559 -73 540 50 c 0
 526 143 505 153 470 153 c 3
 430 153 377 124 342 90 c 0
 213 -39 192 -100 168 -100 c 3
 153 -100 133 -70 133 -50 c 3
 133 -33 167 -8 205 30 c 0
 435 260 565 420 565 440 c 3
 565 443 560 445 555 445 c 3
 530 445 409 404 325 362 c 0
 305 352 290 342 280 342 c 3
 255 342 210 390 205 453 c 1
EndSplineSet
Layer: 2
SplineSet
340 725 m 1
 370 665 455 655 565 655 c 3
 590 655 610 620 610 602 c 3
 610 595 603 590 595 590 c 3
 587 590 573 592 560 592 c 3
 515 592 460 580 375 545 c 1
 365 560 l 1
 450 608 l 1
 370 625 335 665 320 720 c 1
 340 725 l 1
200 448 m 1
 220 453 l 1
 225 430 240 415 265 415 c 3
 330 415 485 460 545 480 c 0
 575 490 585 498 595 498 c 3
 620 498 670 455 670 435 c 3
 670 410 622 422 393 143 c 1
 413 158 459 183 500 183 c 3
 550 183 578 158 597 55 c 0
 617 -51 645 -63 735 -63 c 3
 815 -63 845 -47 865 -47 c 3
 885 -47 910 -74 910 -94 c 3
 910 -109 860 -123 770 -123 c 3
 600 -123 560 -86 540 40 c 0
 525 133 505 143 470 143 c 3
 430 143 377 114 342 80 c 0
 213 -49 187 -115 163 -115 c 3
 148 -115 128 -85 128 -65 c 3
 128 -48 167 -18 205 20 c 0
 435 250 570 415 570 435 c 3
 570 438 565 440 560 440 c 3
 535 440 404 397 320 355 c 0
 300 345 285 335 275 335 c 3
 250 335 205 390 200 448 c 1
EndSplineSet
EndChar

StartChar: uni3049
Encoding: 12361 12361 16
Width: 1000
Flags: HMW
LayerCount: 3
Back
SplineSet
142 0 m 7
 142 12 174 20 208 37 c 4
 292 79 529 209 677 209 c 7
 780 209 840 142 840 69 c 7
 840 -30 740 -110 635 -110 c 7
 576 -110 522 -70 505 10 c 13
 525 15 l 21
 542 -27 582 -56 627 -56 c 7
 705 -56 777 10 777 82 c 7
 777 128 730 173 661 173 c 7
 480 173 205 -47 187 -47 c 7
 173 -47 142 -17 142 0 c 7
665 389 m 7
 661 389 651 388 647 387 c 13
 642 406 l 21
 655 411 682 417 703 417 c 7
 804 417 871 365 871 331 c 7
 871 314 847 290 830 290 c 7
 817 290 808 307 800 320 c 4
 775 358 725 389 665 389 c 7
497 388 m 7
 512 388 530 370 530 355 c 7
 530 334 395 285 272 285 c 7
 230 285 185 317 165 360 c 13
 179 370 l 21
 204 347 238 332 280 332 c 7
 400 332 482 388 497 388 c 7
301 532 m 13
 297 552 l 21
 304 554 317 555 323 555 c 7
 375 555 421 527 421 508 c 7
 421 504 413 491 409 466 c 4
 405 441 397 335 397 158 c 7
 397 10 402 -67 402 -92 c 7
 402 -122 369 -152 348 -152 c 7
 335 -152 333 -129 320 -104 c 4
 303 -70 263 -40 225 -10 c 13
 238 1 l 21
 276 -20 335 -54 348 -60 c 5
 351 3 354 162 354 306 c 7
 354 458 349 490 345 503 c 4
 337 527 314 532 301 532 c 13
EndSplineSet
Substitution2: "'vkna' Vertical Kana Alternates lookup 2-subtable" u10FFF4
Substitution2: "'vert' Vertical Alternates (obs) lookup 1-subtable" u10FFF4
Substitution2: "'aalt' Access All Alternates lookup 0-subtable" u10FFF4
EndChar

StartChar: uni304A
Encoding: 12362 12362 17
Width: 1000
Flags: HMW
LayerCount: 3
Back
SplineSet
682 558 m 1
 685 575 l 17
 826 584 929 495 929 450 c 3
 929 430 910 402 890 402 c 3
 869 402 863.801389567 437.818471476 830 475 c 0
 790 519 740 547 682 558 c 1
80 65 m 3
 80 77 115 85 155 105 c 0
 255 155 535 307 710 307 c 3
 830 307 900 230 900 145 c 3
 900 30 780 -65 660 -65 c 3
 590 -65 530 -20 510 75 c 9
 530 80 l 17
 550 30 597 -5 650 -5 c 3
 745 -5 830 71 830 160 c 3
 830 215 775 270 690 270 c 3
 475 270 145 10 130 10 c 3
 115 10 80 45 80 65 c 3
695 525 m 3
 691 525 680 524 675 523 c 9
 670 542 l 17
 685 548 715 555 740 555 c 3
 860 555 935 490 935 455 c 3
 935 435 910 410 890 410 c 3
 875 410 865 430 855 445 c 0
 825 490 770 525 695 525 c 3
495 520 m 3
 510 520 535 500 535 485 c 3
 535 462 375 404 230 404 c 3
 180 404 130 440 105 490 c 9
 120 500 l 17
 150 470 190 455 240 455 c 3
 385 455 480 520 495 520 c 3
265 695 m 9
 262 715 l 17
 270 717 283 718 290 718 c 3
 350 718 403 685 403 665 c 3
 403 660 394 645 389 615 c 0
 384 585 375 460 375 250 c 3
 375 75 380 -15 380 -45 c 3
 380 -80 345 -115 320 -115 c 3
 305 -115 305 -90 290 -60 c 0
 270 -20 220 20 175 55 c 9
 190 65 l 17
 235 40 305 5 320 0 c 1
 325 75 330 255 330 425 c 3
 330 605 325 645 320 660 c 0
 310 690 280 695 265 695 c 9
EndSplineSet
Fore
SplineSet
682 563 m 1
 685 580 l 17
 693 581 705 581 708 581 c 3
 837 581 929 498 929 455 c 3
 929 435 910 407 890 407 c 3
 869 407 864 443 830 480 c 0
 790 524 740 552 682 563 c 1
80 80 m 3
 80 92 115 100 155 120 c 0
 255 170 535 322 710 322 c 3
 830 322 900 245 900 160 c 3
 900 42 775 -55 650 -55 c 3
 580 -55 520 -10 500 85 c 9
 520 90 l 17
 540 40 587 5 640 5 c 3
 740 5 830 83 830 175 c 3
 830 230 775 285 690 285 c 3
 590 285 458 227 340 161 c 0
 197 81 140 25 130 25 c 3
 115 25 80 60 80 80 c 3
515 550 m 3
 530 550 558 530 558 515 c 3
 558 492 400 422 235 422 c 3
 185 422 135 460 110 510 c 9
 125 520 l 17
 155 490 195 475 245 475 c 3
 405 475 500 550 515 550 c 3
264 700 m 9
 262 719 l 17
 270 721 283 723 290 723 c 3
 360 723 403 690 403 670 c 3
 403 660 394 651 389 620 c 0
 384 590 375 465 375 255 c 3
 375 80 380 -5 380 -35 c 3
 380 -70 345 -105 320 -105 c 3
 305 -105 305 -80 290 -50 c 0
 271 -12 215 25 168 53 c 9
 185 65 l 17
 232 42 300 15 320 10 c 1
 325 85 330 265 330 435 c 3
 330 610 325 650 320 665 c 0
 312 689 285 700 264 700 c 9
EndSplineSet
Layer: 2
SplineSet
682 558 m 1
 685 575 l 17
 843 581 929 490 929 455 c 3
 929 435 910 407 890 407 c 3
 869 407 864 438 830 475 c 0
 788 521 740 545 682 558 c 1
602 493 m 1
 605 510 l 17
 755 510 849 425 849 390 c 3
 849 370 830 342 810 342 c 3
 788.976203958 342 777.968131532 373.969394786 753 400 c 0
 706 449 660 480 602 493 c 1
673 555 m 0
 670 537 l 0
 745 537 824 492 855 445 c 0
 864.92578125 429.951171875 875 410 890 410 c 3
 910 410 932 440 932 460 c 3
 932 500 831 581 673 555 c 0
873 560 m 0
 870 542 l 0
 945 542 1024 492 1055 445 c 0
 1065 430 1075 410 1090 410 c 3
 1110 410 1132 440 1132 460 c 3
 1132 497 1043 563 921 563 c 3
 907 563 890 562 873 560 c 0
EndSplineSet
EndChar

StartChar: uni304B
Encoding: 12363 12363 18
Width: 1000
Flags: HMW
LayerCount: 3
Back
SplineSet
705 480 m 9
 715 500 l 17
 830 455 930 345 930 235 c 3
 930 211 905 185 890 185 c 3
 870 185 870 210 840 210 c 3
 830 210 770 205 735 200 c 9
 730 220 l 17
 815 245 850 260 850 285 c 3
 850 325 810 415 705 480 c 9
405 450 m 0
 285 150 180 -100 140 -100 c 3
 125 -100 105 -80 105 -60 c 3
 105 -35 160 10 315 360 c 0
 375 495 410 625 410 656 c 3
 410 675 390 690 357 692 c 9
 360 712 l 17
 365 713 380 715 390 715 c 3
 450 715 505 675 505 655 c 3
 505 647 493 639 483 625 c 0
 473 611 445 550 405 450 c 0
108 465 m 17
 115 442 130 425 150 425 c 3
 210 425 375 495 495 495 c 3
 565 495 617 420 617 313 c 3
 617 165 555 -5 500 -60 c 0
 470 -90 430 -105 402 -105 c 3
 390 -105 385 -95 380 -80 c 0
 373 -59 350 -35 295 -5 c 9
 305 13 l 17
 350 -7 395 -25 420 -25 c 3
 435 -25 447 -20 457 -10 c 0
 512 45 565 220 565 335 c 3
 565 410 530 458 480 458 c 3
 400 458 292 415 252 395 c 0
 212 375 185 348 170 348 c 3
 147 348 102 390 90 455 c 9
 108 465 l 17
EndSplineSet
Fore
SplineSet
705 485 m 9
 715 505 l 17
 830 460 930 350 930 240 c 3
 930 216 905 190 890 190 c 3
 870 190 870 215 840 215 c 3
 830 215 770 210 735 205 c 9
 730 225 l 17
 815 250 850 265 850 290 c 3
 850 330 810 420 705 485 c 9
405 455 m 0
 285 155 180 -85 140 -85 c 3
 125 -85 105 -65 105 -42 c 3
 105 -17 160 15 315 365 c 0
 375 500 405 625 405 656 c 3
 405 677 383 692 347 692 c 9
 350 712 l 17
 358 714 375 716 385 716 c 3
 445 716 500 675 500 655 c 3
 500 647 488 639 478 625 c 0
 468 611 445 555 405 455 c 0
113 465 m 17
 120 442 135 425 155 425 c 3
 215 425 370 495 490 495 c 3
 560 495 612 420 612 313 c 3
 612 165 560 7 505 -48 c 0
 475 -78 435 -95 407 -95 c 3
 395 -95 390 -85 385 -70 c 0
 378 -49 355 -25 300 5 c 9
 310 23 l 17
 355 3 400 -15 425 -15 c 3
 440 -15 452 -8 462 2 c 0
 517 57 560 220 560 335 c 3
 560 410 525 458 475 458 c 3
 395 458 297 415 257 395 c 0
 217 375 190 348 175 348 c 3
 152 348 107 390 95 455 c 9
 113 465 l 17
EndSplineSet
EndChar

StartChar: uni304D
Encoding: 12365 12365 20
Width: 1000
Flags: HMW
LayerCount: 3
Back
SplineSet
770 500 m 3
 785 500 812 477 812 462 c 3
 812 435 535 307 345 307 c 3
 285 307 225 345 205 395 c 9
 220 405 l 17
 245 370 297 355 347 355 c 3
 452 355 605 410 685 450 c 0
 745 480 760 500 770 500 c 3
645 645 m 3
 660 645 685 620 685 605 c 3
 685 585 480 495 325 495 c 3
 280 495 225 532 200 572 c 9
 213 585 l 17
 240 557 280 542 330 542 c 3
 421 542 520 580 580 610 c 0
 620 630 635 645 645 645 c 3
452 687 m 0
 452 662 475 625 525 555 c 0
 625 415 750 215 750 175 c 3
 750 145 715 95 695 95 c 3
 670 95 615 160 445 160 c 3
 345 160 285 120 285 60 c 3
 285 -15 365 -60 475 -60 c 3
 565 -60 610 -40 629 -40 c 3
 650 -40 665 -70 665 -85 c 3
 665 -105 580 -120 510 -120 c 3
 325 -120 237 -40 237 45 c 3
 237 130 325 195 470 195 c 3
 540 195 645 178 660 178 c 3
 668 178 672 182 672 188 c 3
 672 273 415 661 353 692 c 0
 343 697 332 699 322 699 c 3
 317 699 310 698 305 697 c 9
 300 716 l 17
 315 724 340 730 360 730 c 3
 405 730 452 707 452 687 c 0
EndSplineSet
Fore
SplineSet
770 500 m 3
 785 500 812 477 812 462 c 3
 812 435 530 305 345 305 c 3
 285 305 225 345 205 395 c 9
 220 405 l 17
 245 370 297 355 347 355 c 3
 452 355 605 410 685 450 c 0
 745 480 760 500 770 500 c 3
650 642 m 3
 665 642 695 620 695 605 c 3
 695 585 490 490 335 490 c 3
 290 490 240 522 215 562 c 9
 228 575 l 17
 255 547 290 537 340 537 c 3
 425 537 530 577 590 608 c 0
 630 629 640 642 650 642 c 3
450 690 m 0
 452 665 475 625 525 555 c 0
 625 415 750 215 750 175 c 3
 750 145 715 95 695 95 c 3
 670 95 615 160 445 160 c 3
 345 160 285 120 285 60 c 3
 285 -15 365 -60 475 -60 c 3
 560 -60 605 -45 624 -45 c 3
 645 -45 665 -72 665 -87 c 3
 665 -107 590 -120 510 -120 c 3
 325 -120 237 -40 237 45 c 3
 237 130 325 195 470 195 c 3
 540 195 645 178 660 178 c 3
 668 178 672 182 672 188 c 3
 672 273 416 660 352 692 c 0
 340 698 327 700 317 700 c 3
 312 700 305 699 300 698 c 9
 295 717 l 17
 310 725 335 731 355 731 c 3
 400 731 448 714 450 690 c 0
EndSplineSet
EndChar

StartChar: uni304F
Encoding: 12367 12367 22
Width: 1000
Flags: HMW
LayerCount: 3
Back
SplineSet
530 735 m 9
 545 745 l 17
 595 720 635 665 635 640 c 3
 635 630 615 625 585 600 c 0
 525 550 325 370 325 320 c 3
 325 275 432 185 572 25 c 0
 607 -15 642 -60 642 -85 c 3
 642 -110 618 -142 595 -142 c 3
 573 -142 567 -90 507 0 c 0
 387 180 285 260 285 315 c 3
 285 370 390 485 450 555 c 0
 510 625 555 670 555 695 c 3
 555 705 545 725 530 735 c 9
EndSplineSet
Fore
SplineSet
525 735 m 9
 537 750 l 17
 595 725 635 665 635 637 c 3
 635 625 615 620 585 595 c 0
 525 545 325 365 325 315 c 3
 325 270 435 180 575 20 c 0
 610 -20 637 -55 637 -80 c 3
 637 -105 615 -142 593 -142 c 3
 571 -142 567 -95 507 -5 c 0
 387 175 285 255 285 310 c 3
 285 365 390 478 450 548 c 0
 510 618 554 659 554 685 c 3
 554 697 540 725 525 735 c 9
EndSplineSet
EndChar

StartChar: uni3051
Encoding: 12369 12369 24
Width: 1000
Flags: HMW
LayerCount: 3
Back
SplineSet
195 695 m 9
 210 710 l 17
 260 675 307 610 307 585 c 3
 307 573 298 566 280 535 c 0
 240 465 200 345 200 230 c 3
 200 170 205 120 215 90 c 9
 340 355 l 25
 360 345 l 17
 305 215 255 65 255 15 c 3
 255 -20 270 -35 270 -50 c 3
 270 -70 250 -90 230 -90 c 3
 200 -90 155 55 155 187 c 3
 155 410 230 565 230 620 c 3
 230 645 215 675 195 695 c 9
675 670 m 0
 672 685 652 700 620 700 c 9
 615 720 l 17
 625 723 644 725 654 725 c 3
 710 725 760 695 760 675 c 3
 760 668 753 655 750 640 c 0
 745 615 742 540 742 475 c 3
 742 385 745 335 745 265 c 3
 745 120 690 -55 485 -130 c 9
 475 -115 l 17
 635 -20 685 105 685 365 c 9
 685 465 l 17
 685 605 680 645 675 670 c 0
865 530 m 3
 880 530 900 507 900 492 c 3
 900 470 710 420 570 420 c 3
 535 420 495 455 465 495 c 9
 475 510 l 17
 505 485 545 470 580 470 c 3
 740 470 850 530 865 530 c 3
EndSplineSet
Fore
SplineSet
195 695 m 9
 210 710 l 17
 260 675 307 610 307 585 c 3
 307 573 298 566 280 535 c 0
 240 465 200 345 200 230 c 3
 200 170 205 120 215 90 c 9
 340 355 l 25
 360 345 l 17
 305 215 255 65 255 15 c 3
 255 -20 270 -35 270 -50 c 3
 270 -70 250 -90 230 -90 c 3
 200 -90 155 55 155 187 c 3
 155 410 230 565 230 620 c 3
 230 645 215 675 195 695 c 9
685 670 m 0
 682 685 662 700 630 700 c 9
 625 720 l 17
 635 723 654 725 664 725 c 3
 720 725 770 695 770 675 c 3
 770 668 763 655 760 640 c 0
 755 615 752 540 752 475 c 3
 752 385 755 335 755 265 c 3
 755 120 700 -55 495 -130 c 9
 485 -115 l 17
 645 -20 695 105 695 365 c 9
 695 465 l 17
 695 605 690 645 685 670 c 0
875 530 m 3
 890 530 910 507 910 492 c 3
 910 469 710 412 565 412 c 3
 530 412 490 450 460 490 c 9
 470 505 l 17
 500 480 540 465 575 465 c 3
 740 465 860 530 875 530 c 3
EndSplineSet
EndChar

StartChar: uni3052
Encoding: 12370 12370 25
Width: 1000
Flags: HMW
LayerCount: 3
Back
SplineSet
743 744 m 9
 760 758 l 17
 845 713 879 654 879 624 c 0
 879 610 860 593 838 593 c 0
 810 593 818 673 743 744 c 9
833 783 m 9
 849 797 l 17
 932 764 979 706 979 673 c 0
 979 659 961 639 938 639 c 0
 915 639 914 720 833 783 c 9
195 695 m 9
 210 710 l 17
 260 675 307 610 307 585 c 3
 307 573 298 566 280 535 c 0
 240 465 200 345 200 230 c 3
 200 170 205 120 215 90 c 9
 340 355 l 25
 360 345 l 17
 305 215 255 65 255 15 c 3
 255 -20 270 -35 270 -50 c 3
 270 -70 250 -90 230 -90 c 3
 200 -90 155 55 155 187 c 3
 155 410 230 565 230 620 c 3
 230 645 215 675 195 695 c 9
670 670 m 0
 667 685 647 700 615 700 c 9
 610 720 l 17
 620 723 639 725 649 725 c 3
 705 725 750 695 750 675 c 3
 750 668 744 655 742 640 c 0
 739 615 737 530 737 475 c 3
 737 385 740 335 740 265 c 3
 740 120 685 -55 480 -130 c 9
 470 -115 l 17
 630 -20 680 105 680 365 c 9
 680 465 l 17
 680 605 675 645 670 670 c 0
860 530 m 3
 875 530 895 507 895 492 c 3
 895 470 710 420 570 420 c 3
 535 420 495 455 465 495 c 9
 475 510 l 17
 505 485 545 470 580 470 c 3
 740 470 845 530 860 530 c 3
EndSplineSet
Fore
SplineSet
743 744 m 9
 760 758 l 17
 845 713 879 654 879 624 c 0
 879 610 860 593 838 593 c 0
 810 593 818 673 743 744 c 9
833 783 m 9
 849 797 l 17
 932 764 979 706 979 673 c 0
 979 659 961 639 938 639 c 0
 915 639 914 720 833 783 c 9
195 695 m 9
 210 710 l 17
 260 675 307 610 307 585 c 3
 307 573 298 566 280 535 c 0
 240 465 200 345 200 230 c 3
 200 170 205 120 215 90 c 9
 340 355 l 25
 360 345 l 17
 305 215 255 65 255 15 c 3
 255 -20 270 -35 270 -50 c 3
 270 -70 250 -90 230 -90 c 3
 200 -90 155 55 155 187 c 3
 155 410 230 565 230 620 c 3
 230 645 215 675 195 695 c 9
670 670 m 0
 667 685 647 700 615 700 c 9
 610 720 l 17
 620 723 639 725 649 725 c 3
 705 725 750 695 750 675 c 3
 750 668 744 655 742 640 c 0
 739 615 737 530 737 475 c 3
 737 385 740 335 740 265 c 3
 740 120 685 -55 480 -130 c 9
 470 -115 l 17
 630 -20 680 105 680 365 c 9
 680 465 l 17
 680 605 675 645 670 670 c 0
860 530 m 3
 875 530 895 507 895 492 c 3
 895 470 710 420 570 420 c 3
 535 420 495 455 465 495 c 9
 475 510 l 17
 505 485 545 470 580 470 c 3
 740 470 845 530 860 530 c 3
EndSplineSet
EndChar

StartChar: uni3053
Encoding: 12371 12371 26
Width: 1000
Flags: HMW
LayerCount: 3
Back
SplineSet
625 550 m 0
 565 538 465 485 372 415 c 9
 360 430 l 25
 485 547 l 17
 350 547 283 592 253 652 c 9
 265 665 l 17
 300 625 365 605 455 605 c 3
 625 605 675 627 695 627 c 3
 715 627 740 600 740 580 c 3
 740 557 685 562 625 550 c 0
200 195 m 9
 220 190 l 17
 218 180 217 170 217 165 c 3
 217 85 300 5 495 5 c 3
 675 5 750 37 765 37 c 3
 787 37 810 5 810 -10 c 3
 810 -43 660 -60 535 -60 c 3
 273 -60 188 42 188 140 c 3
 188 160 194 184 200 195 c 9
EndSplineSet
Fore
SplineSet
625 550 m 0
 565 538 465 485 372 415 c 9
 360 430 l 25
 485 547 l 17
 350 547 283 592 253 652 c 9
 265 665 l 17
 300 625 365 605 455 605 c 3
 625 605 675 627 695 627 c 3
 715 627 740 600 740 580 c 3
 740 557 685 562 625 550 c 0
200 195 m 9
 220 190 l 17
 218 180 217 170 217 165 c 3
 217 85 300 5 495 5 c 3
 675 5 750 37 765 37 c 3
 787 37 810 5 810 -10 c 3
 810 -43 660 -60 535 -60 c 3
 273 -60 188 42 188 140 c 3
 188 160 194 184 200 195 c 9
EndSplineSet
EndChar

StartChar: uni3054
Encoding: 12372 12372 27
Width: 1000
Flags: HMW
LayerCount: 3
Back
SplineSet
625 550 m 0
 565 538 465 485 372 415 c 9
 360 430 l 25
 485 547 l 17
 350 547 283 592 253 652 c 9
 265 665 l 17
 300 625 365 605 455 605 c 3
 625 605 670 627 690 627 c 3
 710 627 735 600 735 580 c 3
 735 557 685 562 625 550 c 0
200 195 m 9
 220 190 l 17
 218 180 217 170 217 165 c 3
 217 85 300 5 495 5 c 3
 675 5 750 37 765 37 c 3
 787 37 810 5 810 -10 c 3
 810 -43 660 -60 535 -60 c 3
 273 -60 188 42 188 140 c 3
 188 160 194 184 200 195 c 9
EndSplineSet
Refer: 94 12441 N 1 0 0 1 10 15 2
Fore
SplineSet
625 550 m 0
 565 538 465 485 372 415 c 9
 360 430 l 25
 485 547 l 17
 350 547 283 592 253 652 c 9
 265 665 l 17
 300 625 365 605 455 605 c 3
 625 605 670 627 690 627 c 3
 710 627 735 600 735 580 c 3
 735 557 685 562 625 550 c 0
200 195 m 9
 220 190 l 17
 218 180 217 170 217 165 c 3
 217 85 300 5 495 5 c 3
 675 5 750 37 765 37 c 3
 787 37 810 5 810 -10 c 3
 810 -43 660 -60 535 -60 c 3
 273 -60 188 42 188 140 c 3
 188 160 194 184 200 195 c 9
EndSplineSet
Refer: 94 12441 N 1 0 0 1 10 15 2
EndChar

StartChar: uni3055
Encoding: 12373 12373 28
Width: 1000
Flags: HMW
LayerCount: 3
Back
SplineSet
462 687 m 0
 462 670 480 630 525 570 c 0
 615 450 750 240 750 205 c 3
 750 175 710 120 685 120 c 3
 660 120 595 190 450 190 c 3
 340 190 265 155 265 75 c 3
 265 -5 365 -55 495 -55 c 3
 575 -55 620 -40 639 -40 c 3
 660 -40 675 -70 675 -85 c 3
 675 -105 595 -117 525 -117 c 3
 325 -117 217 -30 217 65 c 3
 217 170 320 225 470 225 c 3
 550 225 645 205 665 205 c 3
 669 205 672 208 672 212 c 3
 672 295 445 615 380 680 c 0
 370 690 353 694 340 694 c 3
 335 694 327 693 323 692 c 9
 315 710 l 17
 330 718 353 723 375 723 c 3
 425 723 462 700 462 687 c 0
767 600 m 3
 783 600 815 585 815 570 c 3
 815 537 525 393 325 393 c 3
 265 393 200 430 165 495 c 9
 180 505 l 17
 215 465 275 445 330 445 c 3
 435 445 579 493 659 533 c 0
 739 573 752 600 767 600 c 3
EndSplineSet
Fore
SplineSet
462 687 m 0
 462 670 480 630 525 570 c 0
 615 450 750 240 750 205 c 3
 750 175 710 120 685 120 c 3
 660 120 595 190 450 190 c 3
 340 190 265 155 265 75 c 3
 265 -5 365 -55 495 -55 c 3
 575 -55 620 -40 639 -40 c 3
 660 -40 675 -70 675 -85 c 3
 675 -105 595 -117 525 -117 c 3
 325 -117 217 -30 217 65 c 3
 217 170 320 225 470 225 c 3
 550 225 645 205 665 205 c 3
 669 205 672 208 672 212 c 3
 672 295 445 615 380 680 c 0
 370 690 353 694 340 694 c 3
 335 694 327 693 323 692 c 9
 315 710 l 17
 330 718 353 723 375 723 c 3
 425 723 462 700 462 687 c 0
767 600 m 3
 783 600 815 585 815 570 c 3
 815 537 525 393 325 393 c 3
 265 393 200 430 165 495 c 9
 180 505 l 17
 215 465 275 445 330 445 c 3
 435 445 579 493 659 533 c 0
 739 573 752 600 767 600 c 3
EndSplineSet
EndChar

StartChar: uni3056
Encoding: 12374 12374 29
Width: 1000
Flags: HMW
LayerCount: 3
Back
SplineSet
462 687 m 0
 462 670 480 630 525 570 c 0
 615 450 750 240 750 205 c 3
 750 175 710 120 685 120 c 3
 660 120 595 190 450 190 c 3
 340 190 265 155 265 75 c 3
 265 -5 365 -55 495 -55 c 3
 575 -55 620 -40 639 -40 c 3
 660 -40 675 -70 675 -85 c 3
 675 -105 595 -117 525 -117 c 3
 325 -117 217 -30 217 65 c 3
 217 170 320 225 470 225 c 3
 550 225 645 205 665 205 c 3
 669 205 672 208 672 212 c 3
 672 295 445 615 380 680 c 0
 370 690 353 694 340 694 c 3
 335 694 327 693 323 692 c 9
 315 710 l 17
 330 718 353 723 375 723 c 3
 425 723 462 700 462 687 c 0
757 592 m 3
 773 592 805 577 805 562 c 3
 805 532 520 393 325 393 c 3
 265 393 200 430 165 495 c 9
 180 505 l 17
 215 465 275 445 330 445 c 3
 430 445 574 490 654 530 c 0
 734 570 742 592 757 592 c 3
EndSplineSet
Refer: 94 12441 N 0.999103 0.0423349 -0.0423349 0.999103 54.9238 -8.03765 2
Fore
SplineSet
462 687 m 0
 462 670 480 630 525 570 c 0
 615 450 750 240 750 205 c 3
 750 175 710 120 685 120 c 3
 660 120 595 190 450 190 c 3
 340 190 265 155 265 75 c 3
 265 -5 365 -55 495 -55 c 3
 575 -55 620 -40 639 -40 c 3
 660 -40 675 -70 675 -85 c 3
 675 -105 595 -117 525 -117 c 3
 325 -117 217 -30 217 65 c 3
 217 170 320 225 470 225 c 3
 550 225 645 205 665 205 c 3
 669 205 672 208 672 212 c 3
 672 295 445 615 380 680 c 0
 370 690 353 694 340 694 c 3
 335 694 327 693 323 692 c 9
 315 710 l 17
 330 718 353 723 375 723 c 3
 425 723 462 700 462 687 c 0
757 592 m 3
 773 592 805 577 805 562 c 3
 805 532 520 393 325 393 c 3
 265 393 200 430 165 495 c 9
 180 505 l 17
 215 465 275 445 330 445 c 3
 430 445 574 490 654 530 c 0
 734 570 742 592 757 592 c 3
EndSplineSet
Refer: 94 12441 N 0.999103 0.0423349 -0.0423349 0.999103 55 -8 2
EndChar

StartChar: uni3057
Encoding: 12375 12375 30
Width: 1000
Flags: HMW
LayerCount: 3
Back
SplineSet
225 713 m 9
 223 733 l 17
 226 734 237 735 240 735 c 3
 320 735 379 677 379 655 c 3
 379 642 368 634 359 598 c 0
 341 527 310 300 310 130 c 3
 310 -15 355 -60 460 -60 c 3
 620 -60 740 35 835 160 c 9
 850 145 l 17
 780 15 640 -125 455 -125 c 3
 335 -125 255 -45 255 110 c 3
 255 290 285 565 285 655 c 3
 285 680 265 710 225 713 c 9
EndSplineSet
Fore
SplineSet
225 713 m 9
 223 733 l 17
 226 734 237 735 240 735 c 3
 320 735 379 677 379 655 c 3
 379 642 368 634 359 598 c 0
 341 527 310 300 310 130 c 3
 310 -15 355 -60 460 -60 c 3
 620 -60 740 35 835 160 c 9
 850 145 l 17
 780 15 640 -125 455 -125 c 3
 335 -125 255 -45 255 110 c 3
 255 290 285 565 285 655 c 3
 285 680 265 710 225 713 c 9
EndSplineSet
EndChar

StartChar: uni3059
Encoding: 12377 12377 32
Width: 1000
Flags: HMW
LayerCount: 3
Back
SplineSet
325 -130 m 9
 315 -115 l 17
 460 -50 510 45 515 160 c 1
 505 140 480 120 445 120 c 3
 390 120 335 170 335 255 c 3
 335 330 390 382 455 382 c 3
 530 382 585 310 585 210 c 3
 585 65 520 -80 325 -130 c 9
445 345 m 3
 405 345 372 310 372 265 c 3
 372 210 405 172 450 172 c 3
 495 172 517 210 517 261 c 3
 517 305 490 345 445 345 c 3
440 720 m 9
 447 702 l 17
 451 703 455 703 457 703 c 3
 480 703 502 690 505 675 c 0
 510 650 515 550 512 360 c 9
 558 300 l 17
 558 375 563 610 570 645 c 0
 575 670 580 675 580 682 c 3
 580 697 540 728 480 728 c 3
 468 728 452 725 440 720 c 9
65 525 m 9
 80 535 l 17
 95 510 120 495 145 495 c 3
 200 495 325 515 465 535 c 0
 605 555 775 565 830 565 c 3
 875 565 930 547 930 532 c 3
 930 517 910 492 895 492 c 3
 875 492 825 511 715 511 c 3
 580 511 390 500 210 440 c 0
 195 435 173 425 165 425 c 3
 130 425 85 470 65 525 c 9
EndSplineSet
Fore
SplineSet
325 -130 m 9
 315 -115 l 17
 460 -50 510 45 515 160 c 1
 505 140 480 120 445 120 c 3
 390 120 335 170 335 255 c 3
 335 330 390 382 455 382 c 3
 530 382 585 310 585 210 c 3
 585 65 520 -80 325 -130 c 9
445 345 m 3
 405 345 372 310 372 265 c 3
 372 210 405 172 450 172 c 3
 495 172 517 210 517 261 c 3
 517 305 490 345 445 345 c 3
440 720 m 17
 452 725 468 728 480 728 c 3
 540 728 580 697 580 682 c 3
 580 675 575 670 570 645 c 0
 563 610 558 375 558 300 c 9
 512 360 l 17
 515 550 510 650 505 675 c 0
 502 690 480 703 457 703 c 3
 455 703 451 703 447 702 c 9
 440 720 l 17
65 525 m 9
 80 535 l 17
 95 510 120 495 145 495 c 3
 200 495 325 515 465 535 c 0
 605 555 775 565 830 565 c 3
 875 565 930 547 930 532 c 3
 930 517 910 492 895 492 c 3
 875 492 825 511 715 511 c 3
 580 511 390 500 210 440 c 0
 195 435 173 425 165 425 c 3
 130 425 85 470 65 525 c 9
EndSplineSet
EndChar

StartChar: uni305A
Encoding: 12378 12378 33
Width: 1000
Flags: HMW
LayerCount: 3
Back
SplineSet
690 738 m 9
 705 753 l 17
 795 715 835 655 835 628 c 3
 835 615 815 595 795 595 c 3
 770 595 770 673 690 738 c 9
790 780 m 9
 805 795 l 17
 890 769 945 710 945 680 c 3
 945 665 925 645 905 645 c 3
 885 645 875 725 790 780 c 9
EndSplineSet
Refer: 32 12377 N 1 0 0 1 0 0 2
Fore
SplineSet
690 738 m 9
 705 753 l 17
 795 715 835 655 835 628 c 3
 835 615 815 595 795 595 c 3
 770 595 770 673 690 738 c 9
790 780 m 9
 805 795 l 17
 890 769 945 710 945 680 c 3
 945 665 925 645 905 645 c 3
 885 645 875 725 790 780 c 9
EndSplineSet
Refer: 32 12377 N 1 0 0 1 0 0 2
EndChar

StartChar: uni305B
Encoding: 12379 12379 34
Width: 1000
Flags: HMW
LayerCount: 3
Back
SplineSet
605 205 m 0
 640 275 645 505 645 610 c 3
 645 645 625 667 583 667 c 9
 577 687 l 17
 587 691 605 693 615 693 c 3
 675 693 720 665 720 645 c 3
 720 640 714 631 710 615 c 0
 690 535 700 265 650 165 c 0
 625 115 580 95 555 95 c 3
 535 95 540 110 520 130 c 0
 510 140 480 155 440 170 c 9
 445 190 l 17
 500 175 540 170 560 170 c 3
 580 170 595 185 605 205 c 0
230 560 m 9
 225 580 l 17
 235 583 250 585 260 585 c 3
 325 585 370 555 370 530 c 3
 370 525 364 517 360 505 c 0
 350 475 340 340 340 115 c 3
 340 10 370 -23 490 -23 c 3
 655 -23 720 0 740 0 c 3
 760 0 790 -27 790 -47 c 3
 790 -65 685 -80 530 -80 c 3
 340 -80 287 -25 287 140 c 0
 287 215 290 400 290 500 c 3
 290 538 270 560 230 560 c 9
135 250 m 3
 110 250 65 295 55 340 c 9
 70 350 l 17
 80 330 95 320 120 320 c 3
 225 320 625 465 855 465 c 3
 890 465 925 457 925 445 c 3
 925 430 907 400 890 400 c 3
 875 400 845 405 810 405 c 3
 475 405 165 250 135 250 c 3
EndSplineSet
Fore
SplineSet
605 205 m 0
 640 275 645 505 645 610 c 3
 645 645 625 667 583 667 c 9
 577 687 l 17
 587 691 605 693 615 693 c 3
 675 693 720 665 720 645 c 3
 720 640 714 631 710 615 c 0
 690 535 700 265 650 165 c 0
 625 115 580 95 555 95 c 3
 535 95 540 110 520 130 c 0
 510 140 480 155 440 170 c 9
 445 190 l 17
 500 175 540 170 560 170 c 3
 580 170 595 185 605 205 c 0
230 560 m 9
 225 580 l 17
 235 583 250 585 260 585 c 3
 325 585 370 555 370 530 c 3
 370 525 364 517 360 505 c 0
 350 475 340 340 340 115 c 3
 340 10 370 -23 490 -23 c 3
 655 -23 720 0 740 0 c 3
 760 0 790 -27 790 -47 c 3
 790 -65 685 -80 530 -80 c 3
 340 -80 287 -25 287 140 c 0
 287 215 290 400 290 500 c 3
 290 538 270 560 230 560 c 9
135 250 m 3
 110 250 65 295 55 340 c 9
 70 350 l 17
 80 330 95 320 120 320 c 3
 225 320 625 465 855 465 c 3
 890 465 925 457 925 445 c 3
 925 430 907 400 890 400 c 3
 875 400 845 405 810 405 c 3
 475 405 165 250 135 250 c 3
EndSplineSet
EndChar

StartChar: uni305D
Encoding: 12381 12381 36
Width: 1000
Flags: HMW
LayerCount: 3
Back
SplineSet
740 -105 m 3
 740 -115 720 -125 689 -125 c 3
 530 -125 420 -45 420 80 c 3
 420 180 485 260 550 315 c 1
 255 245 205 185 180 185 c 3
 165 185 140 210 140 225 c 3
 140 245 198 260 242 300 c 0
 407 450 602 637 602 662 c 3
 602 667 598 672 592 672 c 3
 557 672 433 620 373 590 c 0
 353 580 340 570 330 570 c 3
 305 570 270 613 258 683 c 9
 280 690 l 17
 285 665 305 650 325 650 c 3
 360 650 440 667 530 697 c 0
 575 712 586 722 600 722 c 3
 630 722 690 660 690 640 c 3
 690 625 670 615 650 600 c 0
 630 585 525 505 280 285 c 1
 620 370 700 400 785 400 c 3
 825 400 860 390 860 380 c 3
 860 365 845 337 830 337 c 3
 820 337 785 340 750 340 c 3
 705 340 630 325 590 305 c 0
 530 275 465 190 465 95 c 3
 465 28 500 -10 540 -30 c 0
 590 -55 635 -60 700 -60 c 3
 720 -60 740 -90 740 -105 c 3
EndSplineSet
Fore
SplineSet
740 -105 m 3
 740 -115 720 -125 689 -125 c 3
 530 -125 420 -45 420 80 c 3
 420 180 485 260 550 315 c 1
 255 245 205 185 180 185 c 3
 165 185 140 210 140 225 c 3
 140 245 198 260 242 300 c 0
 407 450 602 637 602 662 c 3
 602 667 598 672 592 672 c 3
 557 672 433 620 373 590 c 0
 353 580 340 570 330 570 c 3
 305 570 270 613 258 683 c 9
 280 690 l 17
 285 665 305 650 325 650 c 3
 360 650 440 667 530 697 c 0
 575 712 586 722 600 722 c 3
 630 722 690 660 690 640 c 3
 690 625 670 615 650 600 c 0
 630 585 525 505 280 285 c 1
 620 370 700 400 785 400 c 3
 825 400 860 390 860 380 c 3
 860 365 845 337 830 337 c 3
 820 337 785 340 750 340 c 3
 705 340 630 325 590 305 c 0
 530 275 465 190 465 95 c 3
 465 28 500 -10 540 -30 c 0
 590 -55 635 -60 700 -60 c 3
 720 -60 740 -90 740 -105 c 3
EndSplineSet
EndChar

StartChar: uni305E
Encoding: 12382 12382 37
Width: 1000
Flags: HMW
LayerCount: 3
Back
SplineSet
717 693 m 9
 732 708 l 17
 820 670 860 610 860 583 c 3
 860 570 840 550 820 550 c 3
 795 550 795 628 717 693 c 9
805 750 m 9
 820 765 l 17
 902 739 955 680 955 650 c 3
 955 635 935 615 915 615 c 3
 895 615 887 695 805 750 c 9
EndSplineSet
Refer: 36 12381 N 1 0 0 1 0 0 2
Fore
SplineSet
717 693 m 9
 732 708 l 17
 820 670 860 610 860 583 c 3
 860 570 840 550 820 550 c 3
 795 550 795 628 717 693 c 9
805 750 m 9
 820 765 l 17
 902 739 955 680 955 650 c 3
 955 635 935 615 915 615 c 3
 895 615 887 695 805 750 c 9
EndSplineSet
Refer: 36 12381 N 1 0 0 1 0 0 2
EndChar

StartChar: uni305F
Encoding: 12383 12383 38
Width: 1000
Flags: HMW
LayerCount: 3
Back
SplineSet
320 695 m 9
 322 715 l 17
 330 717 345 718 350 718 c 3
 405 718 458 680 458 660 c 3
 458 653 445 645 435 625 c 0
 425 605 408.847 560.339 380 460 c 0
 265 60 205 -90 173 -90 c 3
 158 -90 135 -70 135 -50 c 3
 135 -25 200 50 305 387 c 0
 344.892 515.034 375 640 375 665 c 3
 375 680 350 695 320 695 c 9
465 100 m 9
 485 105 l 17
 505 20 575 -17 715 -17 c 3
 785 -17 815 -5 830 -5 c 3
 850 -5 875 -32 875 -47 c 3
 875 -67 810 -80 735 -80 c 3
 550 -80 475 -10 465 100 c 9
525 565 m 3
 540 565 565 540 565 530 c 3
 565 510 380 432 235 432 c 3
 185 432 135 467 110 520 c 9
 125 530 l 17
 150 502 200 485 240 485 c 3
 375 485 510 565 525 565 c 3
520 365 m 17
 585 417 665 437 735 437 c 3
 800 437 860 415 860 395 c 3
 860 380 843 355 823 355 c 3
 816 355 806 360 788 360 c 3
 758 360 697 340 615 280 c 9
 605 295 l 25
 692 377 l 17
 688 378 680 380 670 380 c 3
 630 380 585 375 535 350 c 9
 520 365 l 17
EndSplineSet
Fore
SplineSet
320 695 m 1
 322 715 l 1
 330 717 345 718 350 718 c 3
 405 718 458 680 458 660 c 3
 458 653 445 645 435 625 c 0
 425 605 409 560 380 460 c 0
 265 60 205 -90 173 -90 c 3
 158 -90 135 -70 135 -50 c 3
 135 -25 200 50 305 387 c 0
 345 515 375 640 375 665 c 3
 375 680 350 695 320 695 c 1
468 100 m 1
 488 105 l 1
 507 17 575 -22 710 -22 c 3
 780 -22 814 -12 830 -12 c 3
 850 -12 875 -40 875 -55 c 3
 875 -73 808 -85 730 -85 c 3
 551 -85 478 -13 468 100 c 1
525 565 m 3
 540 565 565 540 565 530 c 3
 565 510 380 432 235 432 c 3
 185 432 135 467 110 520 c 1
 125 530 l 1
 150 502 200 485 240 485 c 3
 375 485 510 565 525 565 c 3
520 368 m 1
 586 415 662 433 737 433 c 3
 801 433 860 409 860 388 c 3
 860 373 843 348 823 348 c 3
 818 348 808 353 794 353 c 3
 762 353 701 334 614 281 c 1
 604 297 l 1
 700 375 l 1
 697 376 684 378 670 378 c 3
 630 378 584 373 534 352 c 1
 520 368 l 1
EndSplineSet
Layer: 2
SplineSet
471.603515625 117.086914062 m 1
 491.903320312 120.6796875 l 1
 511.114597486 24.70836802 578.354067595 -17.0673828125 712.833007812 -17.0673828125 c 3
 783.171832541 -17.0673828125 813.317043139 -13.1181640625 828.389648438 -13.1181640625 c 3
 847.038953993 -13.1181640625 870.350585938 -42.0705915179 870.350585938 -58.1552734375 c 3
 870.350585938 -72.1875887784 804.44015067 -81.30859375 728.389648438 -81.30859375 c 3
 552.443594473 -81.30859375 481.114113137 -4.15478515625 471.603515625 117.086914062 c 1
521.213867188 379.791992188 m 1
 587.863667333 418.060601128 669.894190589 432.779296875 741.670898438 432.779296875 c 3
 804.519804688 432.779296875 862.534179688 405.156529018 862.534179688 380.044921875 c 3
 862.534179688 366.311279297 843.996964738 343.421875 822.188476562 343.421875 c 3
 815.30234375 343.421875 805.465011161 351.453125 787.7578125 351.453125 c 3
 756.662820629 351.453125 693.436337157 335.298583984 608.443359375 286.834960938 c 1
 599.7890625 302.649414062 l 1
 693.604492188 376.754882812 l 1
 689.667347301 378.390299479 681.793057528 381.661132812 671.950195312 381.661132812 c 3
 631.327510127 381.661132812 585.626989294 378.641113281 534.848632812 363.541015625 c 1
 521.213867188 379.791992188 l 1
EndSplineSet
EndChar

StartChar: uni3061
Encoding: 12385 12385 40
Width: 1000
Flags: HMW
LayerCount: 3
Back
SplineSet
333 703 m 9
 330 723 l 17
 335 724 345 725 355 725 c 3
 410 725 462 692 462 677 c 3
 462 667 450 663 435 628 c 0
 390 523 317 250 317 195 c 3
 317 186 321 182 325 182 c 3
 340 182 490 280 628 280 c 3
 750 280 840 220 840 125 c 3
 840 -50 620 -115 375 -120 c 9
 370 -103 l 17
 575 -85 770 -5 770 135 c 3
 770 195 710 247 610 247 c 3
 510 247 420 182 350 122 c 0
 328 104 322 90 310 90 c 3
 295 90 250 125 250 160 c 3
 250 245 385 620 385 670 c 3
 385 685 358 702 333 703 c 9
110 505 m 9
 125 515 l 17
 150 485 195 470 240 470 c 3
 355 470 465 513 505 533 c 0
 545 553 565 570 575 570 c 3
 595 570 620 552 620 537 c 3
 620 505 390 418 245 418 c 3
 185 418 130 460 110 505 c 9
EndSplineSet
Fore
SplineSet
335 703 m 9
 332 723 l 17
 337 724 347 725 357 725 c 3
 422 725 466 690 466 672 c 3
 466 662 454 659 439 624 c 0
 394 519 317 260 317 195 c 3
 317 186 321 182 325 182 c 3
 340 182 490 280 628 280 c 3
 750 280 840 220 840 125 c 3
 840 -50 620 -115 375 -120 c 9
 370 -103 l 17
 575 -85 770 -5 770 135 c 3
 770 195 710 247 610 247 c 3
 510 247 420 182 350 122 c 0
 328 104 322 90 310 90 c 3
 295 90 250 125 250 160 c 3
 250 245 387 600 387 670 c 3
 387 685 360 702 335 703 c 9
115 520 m 9
 130 530 l 17
 155 500 200 487 250 487 c 3
 375 487 499 525 545 548 c 0
 585 568 600 580 610 580 c 3
 630 580 655 562 655 547 c 3
 655 513 420 430 255 430 c 3
 190 430 135 475 115 520 c 9
EndSplineSet
EndChar

StartChar: uni3063
Encoding: 12387 12387 42
Width: 1000
Flags: HMW
LayerCount: 3
Back
SplineSet
130 317 m 9
 147 325 l 17
 157 300 172 292 185 292 c 3
 240 292 440 425 600 425 c 3
 750 425 850 350 850 225 c 3
 850 40 635 -50 390 -57 c 9
 385 -38 l 17
 580 -18 780 70 780 235 c 3
 780 325 715 390 608 390 c 3
 488 390 364 322 244 242 c 0
 229 232 214 217 205 217 c 3
 190 217 145 250 130 317 c 9
EndSplineSet
Fore
SplineSet
130 317 m 9
 147 325 l 17
 157 300 172 292 185 292 c 3
 240 292 440 425 600 425 c 3
 750 425 850 350 850 225 c 3
 850 40 635 -50 390 -57 c 9
 385 -38 l 17
 580 -18 780 70 780 235 c 3
 780 325 715 390 608 390 c 3
 488 390 364 322 244 242 c 0
 229 232 214 217 205 217 c 3
 190 217 145 250 130 317 c 9
EndSplineSet
Substitution2: "'aalt' Access All Alternates lookup 0-subtable" u10FFF5
Substitution2: "'vert' Vertical Alternates (obs) lookup 1-subtable" u10FFF5
Substitution2: "'vkna' Vertical Kana Alternates lookup 2-subtable" u10FFF5
EndChar

StartChar: uni3064
Encoding: 12388 12388 43
Width: 1000
Flags: HMW
LayerCount: 3
Back
SplineSet
65 430 m 9
 85 440 l 17
 95 415 112 400 135 400 c 3
 195 400 440 557 620 557 c 3
 800 557 915 480 915 325 c 3
 915 115 675 5 375 -5 c 9
 370 15 l 17
 605 40 838 150 838 340 c 3
 838 445 760 520 630 520 c 3
 475 520 295 405 205 345 c 0
 175 325 165 315 155 315 c 3
 135 315 80 358 65 430 c 9
EndSplineSet
Fore
SplineSet
65 430 m 9
 85 440 l 17
 95 415 112 400 135 400 c 3
 195 400 440 557 620 557 c 3
 800 557 915 480 915 325 c 3
 915 115 675 5 375 -5 c 9
 370 15 l 17
 605 40 838 150 838 340 c 3
 838 445 760 520 630 520 c 3
 475 520 295 405 205 345 c 0
 175 325 165 315 155 315 c 3
 135 315 80 358 65 430 c 9
EndSplineSet
EndChar

StartChar: uni3066
Encoding: 12390 12390 45
Width: 1000
Flags: HMW
LayerCount: 3
Back
SplineSet
600 568 m 1
 300 518 195 440 165 440 c 3
 135 440 90 495 80 545 c 9
 95 555 l 17
 105 530 125 515 150 515 c 3
 250 515 610 642 810 642 c 3
 860 642 905 630 905 610 c 3
 905 595 890 567 870 567 c 3
 850 567 815 578 750 578 c 3
 700 578 620 560 560 500 c 0
 490 430 445 340 445 210 c 3
 445 47 535 -7 685 -7 c 3
 710 -7 725 -40 725 -55 c 3
 725 -65 705 -75 675 -75 c 3
 510 -75 390 15 390 200 c 3
 390 350 480 500 600 568 c 1
EndSplineSet
Fore
SplineSet
600 568 m 1
 300 518 195 440 165 440 c 3
 135 440 90 495 80 545 c 9
 95 555 l 17
 105 530 125 515 150 515 c 3
 250 515 610 642 810 642 c 3
 860 642 905 630 905 610 c 3
 905 595 890 567 870 567 c 3
 850 567 815 578 750 578 c 3
 700 578 620 560 560 500 c 0
 490 430 445 340 445 210 c 3
 445 47 535 -7 685 -7 c 3
 710 -7 725 -40 725 -55 c 3
 725 -65 705 -75 675 -75 c 3
 510 -75 390 15 390 200 c 3
 390 350 480 500 600 568 c 1
EndSplineSet
EndChar

StartChar: uni3068
Encoding: 12392 12392 47
Width: 1000
Flags: HMW
LayerCount: 3
Back
SplineSet
683 532 m 17
 730 510 780 450 780 420 c 3
 780 398 748 398 708 383 c 0
 463 293 240 178 240 70 c 3
 240 -15 335 -43 495 -43 c 3
 665 -43 730 -12 750 -12 c 3
 770 -12 795 -42 795 -57 c 3
 795 -85 670 -105 515 -105 c 3
 310 -105 195 -50 195 57 c 3
 195 195 375 295 635 420 c 0
 675 439 700 455 700 470 c 3
 700 480 690 500 670 515 c 9
 683 532 l 17
315 707 m 17
 342 700 359 683 365 665 c 0
 375 635 375 490 380 440 c 0
 385 390 410 340 435 315 c 9
 470 335 l 17
 440 385 433 420 433 525 c 3
 433 620 452 645 452 655 c 3
 452 675 395 722 320 725 c 9
 315 707 l 17
EndSplineSet
Fore
SplineSet
683 532 m 17
 730 510 780 450 780 420 c 3
 780 398 748 398 708 383 c 0
 463 293 240 178 240 70 c 3
 240 -15 335 -43 495 -43 c 3
 665 -43 730 -12 750 -12 c 3
 770 -12 795 -42 795 -57 c 3
 795 -85 670 -105 515 -105 c 3
 310 -105 195 -50 195 57 c 3
 195 195 375 295 635 420 c 0
 675 439 700 455 700 470 c 3
 700 480 690 500 670 515 c 9
 683 532 l 17
315 707 m 17
 342 700 359 683 365 665 c 0
 375 635 375 490 380 440 c 0
 385 390 410 340 435 315 c 9
 470 335 l 17
 440 385 433 420 433 525 c 3
 433 620 452 645 452 655 c 3
 452 675 395 722 320 725 c 9
 315 707 l 17
EndSplineSet
EndChar

StartChar: uni306A
Encoding: 12394 12394 49
Width: 1000
Flags: HMW
LayerCount: 3
Back
SplineSet
505 580 m 3
 520 580 550 560 550 550 c 3
 550 525 375 453 225 453 c 3
 180 453 135 488 110 533 c 9
 128 540 l 17
 150 520 190 505 230 505 c 3
 375 505 490 580 505 580 c 3
595 487 m 17
 615 493 647 498 673 498 c 3
 788 498 887 430 887 395 c 3
 887 380 865 360 850 360 c 3
 830 360 815 400 780 400 c 3
 710 400 660 350 660 280 c 3
 660 225 683 85 683 20 c 3
 683 -60 630 -112 525 -112 c 3
 427 -112 382 -55 382 -5 c 3
 382 55 442 100 545 100 c 3
 690 100 875 -27 875 -55 c 3
 875 -75 850 -95 835 -95 c 3
 825 -95 810 -75 785 -55 c 0
 735 -15 627 58 515 58 c 3
 462 58 420 35 420 0 c 3
 420 -30 452 -65 515 -65 c 3
 590 -65 625 -35 625 40 c 3
 625 110 620 196 620 270 c 3
 620 340 675 400 745 435 c 1
 710 455 660 469 600 467 c 9
 595 487 l 17
301 700 m 9
 302 720 l 17
 308 722 320 723 325 723 c 3
 385 723 437 690 437 672 c 3
 437 664 425 657 415 632 c 0
 405 607 379.868 525.044 350 435 c 0
 282 230 195 5 158 5 c 3
 138 5 118 32 118 47 c 3
 118 65 190 145 280 385 c 0
 317.817 485.847 355 625 355 665 c 3
 355 685 330 700 301 700 c 9
EndSplineSet
Fore
SplineSet
505 580 m 3
 520 580 550 560 550 550 c 3
 550 525 375 453 225 453 c 3
 180 453 135 488 110 533 c 1
 128 540 l 1
 150 520 190 505 230 505 c 3
 375 505 490 580 505 580 c 3
595 487 m 1
 615 493 647 498 673 498 c 3
 788 498 887 430 887 395 c 3
 887 380 865 360 850 360 c 3
 830 360 815 400 780 400 c 3
 710 400 660 350 660 280 c 3
 660 225 683 85 683 20 c 3
 683 -60 630 -112 525 -112 c 3
 427 -112 382 -55 382 -5 c 3
 382 55 442 100 545 100 c 3
 690 100 875 -27 875 -55 c 3
 875 -75 850 -95 835 -95 c 3
 825 -95 810 -75 785 -55 c 0
 735 -15 627 58 515 58 c 3
 462 58 420 35 420 0 c 3
 420 -30 452 -65 515 -65 c 3
 590 -65 625 -35 625 40 c 3
 625 110 620 196 620 270 c 3
 620 340 675 400 745 435 c 1
 710 455 660 469 600 467 c 1
 595 487 l 1
301 700 m 1
 302 720 l 1
 308 722 320 723 325 723 c 3
 385 723 437 690 437 672 c 3
 437 664 425 657 415 632 c 0
 405 607 380 525 350 435 c 0
 286 240 203 25 168 25 c 3
 148 25 128 52 128 67 c 3
 128 84 195 159 280 385 c 0
 318 486 355 625 355 665 c 3
 355 685 330 700 301 700 c 1
EndSplineSet
EndChar

StartChar: uni306B
Encoding: 12395 12395 50
Width: 1000
Flags: HMW
LayerCount: 3
Back
SplineSet
445 170 m 17
 475 70 573 19 715 19 c 3
 800 19 840 34 855 34 c 3
 872 34 895 3 895 -12 c 3
 895 -32 835 -45 750 -45 c 3
 547 -45 450 25 425 165 c 9
 445 170 l 17
450 520 m 17
 520 575 630 602 725 602 c 3
 795 602 875 580 875 555 c 3
 875 538 858 513 840 513 c 3
 832 513 815 520 795 520 c 3
 765 520 685 490 600 420 c 9
 585 432 l 17
 620 465 675 515 705 542 c 1
 700 543 680 545 665 545 c 3
 605 545 515 530 460 502 c 9
 450 520 l 17
190 700 m 17
 230 670 285 600 285 572 c 3
 285 565 277 557 267 542 c 0
 247 512 175 355 175 195 c 3
 175 170 180 105 185 85 c 9
 303 305 l 25
 320 295 l 17
 270 190 220 60 220 5 c 3
 220 -25 240 -47 240 -65 c 3
 240 -80 220 -100 202 -100 c 3
 165 -100 130 60 130 155 c 3
 130 380 205 565 205 610 c 3
 205 630 195 665 175 685 c 9
 190 700 l 17
EndSplineSet
Fore
SplineSet
445 170 m 17
 475 70 573 19 715 19 c 3
 800 19 840 34 855 34 c 3
 872 34 895 3 895 -12 c 3
 895 -32 835 -45 750 -45 c 3
 547 -45 450 25 425 165 c 9
 445 170 l 17
450 520 m 17
 520 575 630 602 725 602 c 3
 795 602 875 580 875 555 c 3
 875 538 858 513 840 513 c 3
 832 513 815 520 795 520 c 3
 765 520 685 490 600 420 c 9
 585 432 l 17
 620 465 675 515 705 542 c 1
 700 543 680 545 665 545 c 3
 605 545 515 530 460 502 c 9
 450 520 l 17
190 700 m 17
 230 670 285 600 285 572 c 3
 285 565 277 557 267 542 c 0
 247 512 175 355 175 195 c 3
 175 170 180 105 185 85 c 9
 303 305 l 25
 320 295 l 17
 270 190 220 60 220 5 c 3
 220 -25 240 -47 240 -65 c 3
 240 -80 220 -100 202 -100 c 3
 165 -100 130 60 130 155 c 3
 130 380 205 565 205 610 c 3
 205 630 195 665 175 685 c 9
 190 700 l 17
EndSplineSet
EndChar

StartChar: uni306C
Encoding: 12396 12396 51
Width: 1000
Flags: HMW
LayerCount: 3
Back
SplineSet
575 595 m 3
 575 475 370 -40 190 -40 c 3
 145 -40 108 15 108 75 c 3
 108 285 355 540 625 540 c 3
 775 540 890 435 890 270 c 3
 890 75 800 -60 635 -60 c 3
 555 -60 506 -15 506 35 c 3
 506 85 555 133 645 133 c 3
 770 133 925 15 925 -20 c 3
 925 -35 905 -55 890 -55 c 3
 875 -55 850 -15 800 25 c 0
 750 65 695 95 625 95 c 3
 575 95 540 70 540 42 c 3
 540 10 570 -13 625 -13 c 3
 750 -13 820 100 820 255 c 3
 820 405 745 505 610 505 c 3
 375 505 165 275 165 95 c 3
 165 55 190 30 210 30 c 3
 330 30 515 460 515 620 c 3
 515 640 505 665 485 675 c 9
 495 690 l 17
 545 675 575 630 575 595 c 3
140 535 m 9
 147 553 l 17
 173 547 220 525 240 505 c 0
 275 470 260 405 330 265 c 0
 390 145 450 110 450 90 c 3
 450 75 430 57 415 57 c 3
 395 57 345 115 315 175 c 0
 195 415 250 465 140 535 c 9
EndSplineSet
Fore
SplineSet
575 595 m 3
 575 475 370 -40 190 -40 c 3
 145 -40 108 15 108 75 c 3
 108 285 355 540 625 540 c 3
 775 540 890 435 890 270 c 3
 890 75 800 -60 635 -60 c 3
 555 -60 506 -15 506 35 c 3
 506 85 555 133 645 133 c 3
 770 133 925 15 925 -20 c 3
 925 -35 905 -55 890 -55 c 3
 875 -55 850 -15 800 25 c 0
 750 65 695 95 625 95 c 3
 575 95 540 70 540 42 c 3
 540 10 570 -13 625 -13 c 3
 750 -13 820 100 820 255 c 3
 820 405 745 505 610 505 c 3
 375 505 165 275 165 95 c 3
 165 55 190 30 210 30 c 3
 330 30 515 460 515 620 c 3
 515 640 505 665 485 675 c 9
 495 690 l 17
 545 675 575 630 575 595 c 3
140 535 m 9
 147 553 l 17
 173 547 220 525 240 505 c 0
 275 470 260 405 330 265 c 0
 390 145 450 110 450 90 c 3
 450 75 430 57 415 57 c 3
 395 57 345 115 315 175 c 0
 195 415 250 465 140 535 c 9
EndSplineSet
EndChar

StartChar: uni306D
Encoding: 12397 12397 52
Width: 1000
Flags: HMW
LayerCount: 3
Back
SplineSet
90 425 m 1
 105 435 l 1
 115 420 130 415 140 415 c 0
 205 415 345 490 375 490 c 0
 385 490 405 460 405 445 c 0
 405 430 365 385 330 340 c 1
 320 320 l 1
 335 300 l 1
 425 400 570 539 713 539 c 0
 820 539 890 430 890 260 c 3
 890 75 840 -85 675 -85 c 3
 590 -85 540 -37 540 15 c 0
 540 62 595 108 685 108 c 0
 810 108 965 -10 965 -45 c 3
 965 -63 944 -80 927 -80 c 0
 917 -80 900 -57 885 -42 c 0
 860 -17 770 70 670 70 c 3
 605 70 575 45 575 18 c 0
 575 -8 605 -38 662 -38 c 3
 790 -38 825 90 825 250 c 3
 825 410 775 498 695 498 c 0
 580 498 445 375 330 255 c 9
 320 255 l 17
 170 75 140 5 123 5 c 0
 108 5 85 30 85 45 c 0
 85 65 140 105 315 325 c 9
 325 345 l 17
 320 435 l 1
 205 390 180 350 165 350 c 0
 145 350 105 390 90 425 c 1
240 705 m 9
 245 725 l 17
 330 720 375 669 375 650 c 3
 375 643 367 632 362 607 c 0
 357 582 348 495 348 290 c 3
 348 90 355 -10 355 -60 c 3
 355 -85 325 -122 295 -122 c 3
 280 -122 285 -102 280 -82 c 0
 270 -42 240 20 210 60 c 9
 225 70 l 25
 297 -5 l 17
 302 60 305 185 305 370 c 3
 305 595 300 650 290 670 c 0
 280 690 255 702 240 705 c 9
EndSplineSet
Fore
SplineSet
90 425 m 1
 105 435 l 1
 115 420 130 415 140 415 c 0
 205 415 345 490 375 490 c 0
 385 490 405 460 405 445 c 0
 405 430 365 385 330 340 c 1
 320 320 l 1
 335 300 l 1
 425 400 570 539 713 539 c 0
 820 539 890 430 890 260 c 3
 890 75 840 -85 675 -85 c 3
 590 -85 540 -37 540 15 c 0
 540 62 595 108 685 108 c 0
 810 108 965 -10 965 -45 c 3
 965 -63 944 -80 927 -80 c 0
 917 -80 900 -57 885 -42 c 0
 860 -17 770 70 670 70 c 3
 605 70 575 45 575 18 c 0
 575 -8 605 -38 662 -38 c 3
 790 -38 825 90 825 250 c 3
 825 410 775 498 695 498 c 0
 580 498 445 375 330 255 c 9
 320 255 l 17
 170 75 140 5 123 5 c 0
 108 5 85 30 85 45 c 0
 85 65 140 105 315 325 c 9
 325 345 l 17
 320 435 l 1
 205 390 180 350 165 350 c 0
 145 350 105 390 90 425 c 1
240 705 m 9
 245 725 l 17
 330 720 375 669 375 650 c 3
 375 643 367 632 362 607 c 0
 357 582 348 495 348 290 c 3
 348 90 355 -10 355 -60 c 3
 355 -85 325 -122 295 -122 c 3
 280 -122 285 -102 280 -82 c 0
 270 -42 240 20 210 60 c 9
 225 70 l 25
 297 -5 l 17
 302 60 305 185 305 370 c 3
 305 595 300 650 290 670 c 0
 280 690 255 702 240 705 c 9
EndSplineSet
EndChar

StartChar: uni306E
Encoding: 12398 12398 53
Width: 1000
Flags: HMW
LayerCount: 3
Back
SplineSet
465 590 m 9
 485 595 l 17
 510 565 532 520 532 485 c 3
 532 300 370 0 250 0 c 3
 180 0 105 85 105 200 c 3
 105 430 295 630 550 630 c 3
 745 630 900 495 900 315 c 3
 900 85 724 -40 484 -55 c 9
 479 -35 l 17
 669 -5 825 110 825 325 c 3
 825 470 710 595 530 595 c 3
 315 595 163 400 163 220 c 3
 163 140 205 75 245 75 c 3
 335 75 488 345 488 505 c 3
 488 530 480 565 465 590 c 9
EndSplineSet
Fore
SplineSet
465 600 m 9
 485 605 l 17
 510 577 532 530 532 495 c 3
 532 310 370 3 250 3 c 3
 180 3 105 85 105 215 c 3
 105 445 295 640 550 640 c 3
 745 640 900 505 900 325 c 3
 900 95 724 -40 484 -55 c 9
 479 -35 l 17
 669 -5 825 120 825 335 c 3
 825 480 710 605 530 605 c 3
 315 605 163 415 163 235 c 3
 163 145 205 80 245 80 c 3
 335 80 488 355 488 515 c 3
 488 540 480 575 465 600 c 9
EndSplineSet
EndChar

StartChar: uni306F
Encoding: 12399 12399 54
Width: 1000
Flags: HMW
LayerCount: 3
Back
SplineSet
590 701 m 17
 602 705 618 707 630 707 c 3
 685 707 743 675 743 655 c 3
 743 646 733 637 728 607 c 0
 723 577 720 495 720 390 c 3
 720 255 730 115 730 50 c 3
 730 -45 670 -93 570 -93 c 3
 475 -93 420 -45 420 15 c 3
 420 75 482 120 585 120 c 3
 730 120 920 2 920 -30 c 3
 920 -45 900 -70 880 -70 c 3
 867 -70 845 -35 770 10 c 0
 720 40 645 77 560 77 c 3
 502 77 458 55 458 20 c 3
 458 -18 500 -45 560 -45 c 3
 635 -45 670 -8 670 75 c 3
 670 295 664 585 659 635 c 0
 656 665 627 682 595 681 c 9
 590 701 l 17
845 520 m 3
 860 520 890 500 890 485 c 3
 890 465 720 405 545 405 c 3
 500 405 440 440 410 485 c 9
 425 495 l 17
 455 470 500 455 550 455 c 3
 715 455 830 520 845 520 c 3
270 567 m 3
 270 552 255 545 235 505 c 0
 215 465 170 340 170 185 c 3
 170 150 175 95 185 65 c 9
 290 285 l 25
 310 275 l 17
 260 155 225 35 225 -10 c 3
 225 -50 240 -65 240 -80 c 3
 240 -95 220 -115 200 -115 c 3
 170 -115 125 40 125 150 c 3
 125 365 195 570 195 615 c 3
 195 640 180 670 160 690 c 9
 175 705 l 17
 225 665 270 595 270 567 c 3
EndSplineSet
Fore
SplineSet
590 701 m 17
 602 705 618 707 630 707 c 3
 685 707 743 675 743 655 c 3
 743 646 733 637 728 607 c 0
 723 577 720 495 720 390 c 3
 720 255 730 115 730 50 c 3
 730 -45 670 -93 570 -93 c 3
 475 -93 420 -45 420 15 c 3
 420 75 482 120 585 120 c 3
 730 120 920 2 920 -30 c 3
 920 -45 900 -70 880 -70 c 3
 867 -70 845 -35 770 10 c 0
 720 40 645 77 560 77 c 3
 502 77 458 55 458 20 c 3
 458 -18 500 -45 560 -45 c 3
 635 -45 670 -8 670 75 c 3
 670 295 664 585 659 635 c 0
 656 665 627 682 595 681 c 9
 590 701 l 17
845 520 m 3
 860 520 890 500 890 485 c 3
 890 465 720 405 545 405 c 3
 500 405 440 440 410 485 c 9
 425 495 l 17
 455 470 500 455 550 455 c 3
 715 455 830 520 845 520 c 3
270 567 m 3
 270 552 255 545 235 505 c 0
 215 465 170 340 170 185 c 3
 170 150 175 95 185 65 c 9
 290 285 l 25
 310 275 l 17
 260 155 225 35 225 -10 c 3
 225 -50 240 -65 240 -80 c 3
 240 -95 220 -115 200 -115 c 3
 170 -115 125 40 125 150 c 3
 125 365 195 570 195 615 c 3
 195 640 180 670 160 690 c 9
 175 705 l 17
 225 665 270 595 270 567 c 3
EndSplineSet
EndChar

StartChar: uni3070
Encoding: 12400 12400 55
Width: 1000
Flags: HMW
LayerCount: 3
Back
SplineSet
590 701 m 17
 602 705 618 707 630 707 c 3
 685 707 740 675 740 655 c 3
 740 646 733 637 728 607 c 0
 723 577 720 495 720 390 c 3
 720 255 730 115 730 50 c 3
 730 -45 670 -93 570 -93 c 3
 475 -93 420 -45 420 15 c 3
 420 75 482 120 585 120 c 3
 730 120 920 2 920 -30 c 3
 920 -45 900 -70 880 -70 c 3
 867 -70 845 -35 770 10 c 0
 720 40 645 77 560 77 c 3
 502 77 458 55 458 20 c 3
 458 -18 500 -45 560 -45 c 3
 635 -45 670 -8 670 75 c 3
 670 295 664 585 659 635 c 0
 656 665 627 682 595 681 c 9
 590 701 l 17
845 520 m 3
 860 520 890 500 890 485 c 3
 890 465 720 405 545 405 c 3
 500 405 440 440 410 485 c 9
 425 495 l 17
 455 470 500 455 550 455 c 3
 715 455 830 520 845 520 c 3
270 567 m 3
 270 552 255 545 235 505 c 0
 215 465 170 340 170 185 c 3
 170 150 175 95 185 65 c 9
 290 285 l 25
 310 275 l 17
 260 155 225 35 225 -10 c 3
 225 -50 240 -65 240 -80 c 3
 240 -95 220 -115 200 -115 c 3
 170 -115 125 40 125 150 c 3
 125 365 195 570 195 615 c 3
 195 640 180 670 160 690 c 9
 175 705 l 17
 225 665 270 595 270 567 c 3
747 725 m 9
 763 740 l 17
 852 697 887 635 887 610 c 0
 887 596 867 577 846 577 c 0
 819 577 823 660 747 725 c 9
836 777 m 9
 851 792 l 17
 930 764 985 703 985 672 c 0
 985 655 965 637 945 637 c 0
 922 637 918 720 836 777 c 9
EndSplineSet
Fore
SplineSet
590 701 m 17
 602 705 618 707 630 707 c 3
 685 707 740 675 740 655 c 3
 740 646 733 637 728 607 c 0
 723 577 720 495 720 390 c 3
 720 255 730 115 730 50 c 3
 730 -45 670 -93 570 -93 c 3
 475 -93 420 -45 420 15 c 3
 420 75 482 120 585 120 c 3
 730 120 920 2 920 -30 c 3
 920 -45 900 -70 880 -70 c 3
 867 -70 845 -35 770 10 c 0
 720 40 645 77 560 77 c 3
 502 77 458 55 458 20 c 3
 458 -18 500 -45 560 -45 c 3
 635 -45 670 -8 670 75 c 3
 670 295 664 585 659 635 c 0
 656 665 627 682 595 681 c 9
 590 701 l 17
845 520 m 3
 860 520 890 500 890 485 c 3
 890 465 720 405 545 405 c 3
 500 405 440 440 410 485 c 9
 425 495 l 17
 455 470 500 455 550 455 c 3
 715 455 830 520 845 520 c 3
270 567 m 3
 270 552 255 545 235 505 c 0
 215 465 170 340 170 185 c 3
 170 150 175 95 185 65 c 9
 290 285 l 25
 310 275 l 17
 260 155 225 35 225 -10 c 3
 225 -50 240 -65 240 -80 c 3
 240 -95 220 -115 200 -115 c 3
 170 -115 125 40 125 150 c 3
 125 365 195 570 195 615 c 3
 195 640 180 670 160 690 c 9
 175 705 l 17
 225 665 270 595 270 567 c 3
747 725 m 9
 763 740 l 17
 852 697 887 635 887 610 c 0
 887 596 867 577 846 577 c 0
 819 577 823 660 747 725 c 9
836 777 m 9
 851 792 l 17
 930 764 985 703 985 672 c 0
 985 655 965 637 945 637 c 0
 922 637 918 720 836 777 c 9
EndSplineSet
EndChar

StartChar: uni3071
Encoding: 12401 12401 56
Width: 1000
Flags: HMW
AnchorPoint: "Dakuten" 925 725 basechar 0
LayerCount: 3
Back
SplineSet
590 701 m 17
 602 705 618 707 630 707 c 3
 685 707 740 675 740 655 c 3
 740 646 733 637 728 607 c 0
 723 577 720 495 720 390 c 3
 720 255 730 115 730 50 c 3
 730 -45 670 -93 570 -93 c 3
 475 -93 420 -45 420 15 c 3
 420 75 482 120 585 120 c 3
 730 120 920 2 920 -30 c 3
 920 -45 900 -70 880 -70 c 3
 867 -70 845 -35 770 10 c 0
 720 40 645 77 560 77 c 3
 502 77 458 55 458 20 c 3
 458 -18 500 -45 560 -45 c 3
 635 -45 670 -8 670 75 c 3
 670 295 664 585 659 635 c 0
 656 665 627 682 595 681 c 9
 590 701 l 17
845 520 m 3
 860 520 890 500 890 485 c 3
 890 465 720 405 545 405 c 3
 500 405 440 440 410 485 c 9
 425 495 l 17
 455 470 500 455 550 455 c 3
 715 455 830 520 845 520 c 3
270 567 m 3
 270 552 255 545 235 505 c 0
 215 465 170 340 170 185 c 3
 170 150 175 95 185 65 c 9
 290 285 l 25
 310 275 l 17
 260 155 225 35 225 -10 c 3
 225 -50 240 -65 240 -80 c 3
 240 -95 220 -115 200 -115 c 3
 170 -115 125 40 125 150 c 3
 125 365 195 570 195 615 c 3
 195 640 180 670 160 690 c 9
 175 705 l 17
 225 665 270 595 270 567 c 3
EndSplineSet
Refer: 95 12442 N 1 0 0 1 35 45 2
Fore
SplineSet
590 701 m 17
 602 705 618 707 630 707 c 3
 685 707 740 675 740 655 c 3
 740 646 733 637 728 607 c 0
 723 577 720 495 720 390 c 3
 720 255 730 115 730 50 c 3
 730 -45 670 -93 570 -93 c 3
 475 -93 420 -45 420 15 c 3
 420 75 482 120 585 120 c 3
 730 120 920 2 920 -30 c 3
 920 -45 900 -70 880 -70 c 3
 867 -70 845 -35 770 10 c 0
 720 40 645 77 560 77 c 3
 502 77 458 55 458 20 c 3
 458 -18 500 -45 560 -45 c 3
 635 -45 670 -8 670 75 c 3
 670 295 664 585 659 635 c 0
 656 665 627 682 595 681 c 9
 590 701 l 17
845 520 m 3
 860 520 890 500 890 485 c 3
 890 465 720 405 545 405 c 3
 500 405 440 440 410 485 c 9
 425 495 l 17
 455 470 500 455 550 455 c 3
 715 455 830 520 845 520 c 3
270 567 m 3
 270 552 255 545 235 505 c 0
 215 465 170 340 170 185 c 3
 170 150 175 95 185 65 c 9
 290 285 l 25
 310 275 l 17
 260 155 225 35 225 -10 c 3
 225 -50 240 -65 240 -80 c 3
 240 -95 220 -115 200 -115 c 3
 170 -115 125 40 125 150 c 3
 125 365 195 570 195 615 c 3
 195 640 180 670 160 690 c 9
 175 705 l 17
 225 665 270 595 270 567 c 3
EndSplineSet
Refer: 95 12442 N 1 0 0 1 35 45 2
EndChar

StartChar: uni3072
Encoding: 12402 12402 57
Width: 1000
Flags: HMW
LayerCount: 3
Back
SplineSet
100 545 m 9
 110 560 l 17
 120 553 131 550 145 550 c 3
 255 550 370 660 400 660 c 3
 430 660 465 630 465 610 c 3
 465 595 425 575 390 540 c 0
 285 435 220 315 220 180 c 3
 220 40 295 -45 425 -45 c 3
 605 -45 685 120 685 345 c 3
 685 505 615 655 615 682 c 3
 615 690 622 695 628 695 c 3
 645 695 680 690 685 680 c 0
 695 660 690 625 730 545 c 0
 800 405 945 320 945 295 c 3
 945 280 925 255 905 255 c 3
 875 255 755 370 690 525 c 1
 710 460 725 370 725 300 c 3
 725 65 640 -110 415 -110 c 3
 270 -110 170 5 170 155 c 3
 170 310 260 450 370 580 c 1
 305 540 220 503 170 503 c 3
 150 503 120 515 100 545 c 9
EndSplineSet
Fore
SplineSet
100 545 m 9
 110 560 l 17
 120 553 131 550 145 550 c 3
 255 550 370 660 400 660 c 3
 430 660 465 630 465 610 c 3
 465 595 425 575 390 540 c 0
 285 435 220 315 220 180 c 3
 220 40 295 -45 425 -45 c 3
 605 -45 685 120 685 345 c 3
 685 505 615 655 615 682 c 3
 615 690 622 695 628 695 c 3
 645 695 680 690 685 680 c 0
 695 660 690 625 730 545 c 0
 800 405 945 320 945 295 c 3
 945 280 925 255 905 255 c 3
 875 255 755 370 690 525 c 1
 710 460 725 370 725 300 c 3
 725 65 640 -110 415 -110 c 3
 270 -110 170 5 170 155 c 3
 170 310 260 450 370 580 c 1
 305 540 220 503 170 503 c 3
 150 503 120 515 100 545 c 9
EndSplineSet
EndChar

StartChar: uni3075
Encoding: 12405 12405 60
Width: 1000
Flags: HMW
LayerCount: 3
Back
SplineSet
605 217 m 0
 400 217 160 -85 130 -85 c 0
 110 -85 85 -45 85 -30 c 0
 85 -20 105 -15 135 5 c 0
 225 65 420 250 625 250 c 0
 792 250 925 75 925 20 c 0
 925 -5 896 -25 878 -25 c 0
 853 -25 845 37 815 87 c 0
 770 162 710 217 605 217 c 0
370 700 m 1
 390 705 l 1
 400 660 425 625 475 600 c 0
 555 560 630 565 630 535 c 0
 630 520 615 495 600 495 c 0
 590 495 580 500 560 500 c 0
 500 500 417 445 417 385 c 0
 417 327 467.191013301 262.136433697 510 202 c 0
 552 143 600 77 600 15 c 0
 600 -30 555 -75 490 -75 c 0
 435 -75 340 -40 230 10 c 1
 245 25 l 1
 310 5 400 -10 455 -10 c 0
 505 -10 525 10 525 40 c 0
 525 75 497.237213733 136.155736768 465 185 c 0
 432 235 385 310 385 370 c 0
 385 430 425 480 485 530 c 1
 400 565 375 630 370 700 c 1
1604.57617188 217 m 3
 1399.57617188 217 1159.57617187 -85 1129.57617188 -85 c 3
 1109.57617188 -85 1084.57617188 -45 1084.57617188 -30 c 3
 1084.57617188 -20 1104.57617188 -15.0000000001 1134.57617188 5 c 0
 1224.57617187 65 1419.57617188 250 1624.57617188 250 c 3
 1791.57617188 250 1924.57617188 75 1924.57617188 20 c 3
 1924.57617188 -5 1894.57617188 -25 1874.57617188 -25 c 3
 1849.57617188 -25 1844.57617188 35 1814.57617188 85 c 0
 1769.57617188 160 1709.57617188 217 1604.57617188 217 c 3
1369.57617188 700 m 1
 1389.57617188 705 l 1
 1399.57617188 660 1424.57617188 625 1474.57617188 600 c 0
 1554.57617188 560 1629.57617188 565 1629.57617188 535 c 3
 1629.57617188 520 1614.57617188 495 1599.57617188 495 c 3
 1589.57617188 495 1579.57617188 500 1559.57617188 500 c 3
 1499.57617188 500 1416.57617188 445 1416.57617188 385 c 3
 1416.57617188 327 1466.76718518 262.136433697 1509.57617188 202 c 0
 1551.57617188 143 1599.57617188 77 1599.57617188 15 c 3
 1599.57617188 -30 1554.57617188 -75 1489.57617188 -75 c 3
 1434.57617188 -75 1339.57617188 -40 1229.57617188 10 c 1
 1244.57617188 25 l 1
 1309.57617188 5 1399.57617188 -10 1454.57617188 -10 c 3
 1504.57617188 -10 1524.57617188 10 1524.57617188 40 c 3
 1524.57617188 75 1496.81338561 136.155736768 1464.57617188 185 c 0
 1431.57617188 235 1384.57617188 310 1384.57617188 370 c 3
 1384.57617188 430 1424.57617188 480 1484.57617188 530 c 1
 1399.57617188 565 1374.57617188 630 1369.57617188 700 c 1
EndSplineSet
Fore
SplineSet
55 27 m 1
 78 33 l 1
 82 13 100 -7 120 -7 c 3
 140 -7 161 7 222 55 c 0
 278 99 480 248 636 248 c 3
 810 248 940 71 940 15 c 3
 940 -10 911 -30 893 -30 c 3
 868 -30 860 32 830 82 c 0
 784 159 725 215 616 215 c 3
 452 215 221 -19 180 -60 c 0
 167 -73 159 -85 148 -85 c 3
 111 -85 62 -37 55 27 c 1
400 700 m 1
 420 705 l 1
 430 660 455 625 505 600 c 0
 585 560 660 565 660 535 c 3
 660 520 645 495 630 495 c 3
 620 495 610 500 590 500 c 3
 530 500 447 445 447 385 c 3
 447 327 497 262 540 202 c 0
 582 143 630 77 630 15 c 3
 630 -30 585 -75 520 -75 c 3
 457 -75 356 -40 245 10 c 1
 260 25 l 1
 329 5 421 -10 485 -10 c 3
 535 -10 555 10 555 40 c 3
 555 75 527 136 495 185 c 0
 462 235 415 310 415 370 c 3
 415 430 455 480 515 530 c 1
 430 565 405 631 400 700 c 1
EndSplineSet
Layer: 2
SplineSet
615 217 m 3
 441 217 170 -85 140 -85 c 3
 120 -85 95 -45 95 -30 c 3
 95 -20 117.800762376 -16.7073512072 150 5 c 0
 239 65 432 250 635 250 c 3
 810 250 940 71 940 15 c 3
 940 -10 911 -30 893 -30 c 3
 868 -30 859.620362146 31.7741685351 830 82 c 0
 784 160 756 217 615 217 c 3
58 41 m 1
 82 40 l 1
 82 15.25 99.3684210526 -5 115 -5 c 3
 135 -5 156 8 215 55 c 0
 270 99 475 250 635 250 c 3
 807 250 935 71 935 15 c 3
 935 -10 906 -30 888 -30 c 3
 863 -30 854 31 825 82 c 0
 780 160 722 217 615 217 c 3
 451 217 213 -27 177 -60 c 0
 163 -73 155 -85 143 -85 c 3
 112.720430108 -85 55 -43.9473684211 55 15 c 3
 55 23 56 33 58 41 c 1
EndSplineSet
EndChar

StartChar: uni3078
Encoding: 12408 12408 63
Width: 1000
Flags: HMW
LayerCount: 3
Back
SplineSet
415 495 m 3
 480 495 600 345 800 225 c 0
 900 165 930 165 930 140 c 3
 930 115 905 90 885 90 c 3
 860 90 785 142 735 182 c 0
 585 302 456 455 410 455 c 3
 365 455 232 265 202 215 c 0
 193 200 185 180 170 180 c 3
 132 180 80 235 65 290 c 9
 80 300 l 17
 93 280 112 265 132 265 c 3
 167 265 340 495 415 495 c 3
EndSplineSet
Fore
SplineSet
415 495 m 3
 480 495 600 345 800 225 c 0
 900 165 930 165 930 140 c 3
 930 115 905 90 885 90 c 3
 860 90 785 142 735 182 c 0
 585 302 456 455 410 455 c 3
 365 455 232 265 202 215 c 0
 193 200 185 180 170 180 c 3
 132 180 80 235 65 290 c 9
 80 300 l 17
 93 280 112 265 132 265 c 3
 167 265 340 495 415 495 c 3
EndSplineSet
EndChar

StartChar: uni307B
Encoding: 12411 12411 66
Width: 1000
Flags: HMW
LayerCount: 3
Back
SplineSet
795 673 m 3
 810 673 835 655 835 640 c 3
 835 617 710 582 580 582 c 3
 525 582 475 615 450 655 c 9
 465 665 l 17
 490 640 530 630 575 630 c 3
 705 630 780 673 795 673 c 3
860 460 m 3
 875 460 900 442 900 427 c 3
 900 400 730 340 550 340 c 3
 490 340 435 385 410 435 c 9
 428 440 l 17
 453 410 500 390 555 390 c 3
 740 390 845 460 860 460 c 3
713 365 m 3
 713 215 725 105 725 50 c 3
 725 -45 665 -95 555 -95 c 3
 465 -95 415 -40 415 13 c 3
 415 65 477 115 575 115 c 3
 730 115 910 -3 910 -35 c 3
 910 -52 893 -75 875 -75 c 3
 862 -75 852 -58 822 -35 c 0
 752 20 660 72 550 72 c 3
 492 72 452 48 452 18 c 3
 452 -15 490 -47 545 -47 c 3
 630 -47 665 -15 665 75 c 3
 665 335 660 535 652 595 c 1
 670 590 730 590 730 575 c 1
 730 560 713 555 713 365 c 3
170 705 m 17
 230 665 270 605 270 577 c 3
 270 567 260 560 250 545 c 0
 210 485 165 350 165 190 c 3
 165 150 175 90 185 60 c 9
 288 280 l 25
 305 270 l 17
 255 145 225 35 225 -10 c 3
 225 -50 235 -55 235 -70 c 3
 235 -85 215 -110 195 -110 c 3
 165 -110 120 45 120 155 c 3
 120 395 190 570 190 615 c 3
 190 640 175 670 155 690 c 9
 170 705 l 17
EndSplineSet
Fore
SplineSet
795 673 m 3
 810 673 835 655 835 640 c 3
 835 617 710 582 580 582 c 3
 525 582 475 615 450 655 c 9
 465 665 l 17
 490 640 530 630 575 630 c 3
 705 630 780 673 795 673 c 3
860 460 m 3
 875 460 900 442 900 427 c 3
 900 400 730 340 550 340 c 3
 490 340 435 385 410 435 c 9
 428 440 l 17
 453 410 500 390 555 390 c 3
 740 390 845 460 860 460 c 3
713 365 m 3
 713 215 725 105 725 50 c 3
 725 -45 665 -95 555 -95 c 3
 465 -95 415 -40 415 13 c 3
 415 65 477 115 575 115 c 3
 730 115 910 -3 910 -35 c 3
 910 -52 893 -75 875 -75 c 3
 862 -75 852 -58 822 -35 c 0
 752 20 660 72 550 72 c 3
 492 72 452 48 452 18 c 3
 452 -15 490 -47 545 -47 c 3
 630 -47 665 -15 665 75 c 3
 665 335 660 535 652 595 c 1
 670 590 730 590 730 575 c 1
 730 560 713 555 713 365 c 3
170 705 m 17
 230 665 270 605 270 577 c 3
 270 567 260 560 250 545 c 0
 210 485 165 350 165 190 c 3
 165 150 175 90 185 60 c 9
 288 280 l 25
 305 270 l 17
 255 145 225 35 225 -10 c 3
 225 -50 235 -55 235 -70 c 3
 235 -85 215 -110 195 -110 c 3
 165 -110 120 45 120 155 c 3
 120 395 190 570 190 615 c 3
 190 640 175 670 155 690 c 9
 170 705 l 17
EndSplineSet
EndChar

StartChar: uni307C
Encoding: 12412 12412 67
Width: 1000
Flags: HMW
LayerCount: 3
Back
SplineSet
740 658 m 3
 755 658 778 640 778 625 c 3
 778 602 670 582 575 582 c 3
 520 582 475 615 450 653 c 9
 465 663 l 17
 490 640 525 630 570 630 c 3
 670 630 730 658 740 658 c 3
860 460 m 3
 875 460 900 442 900 427 c 3
 900 400 730 340 550 340 c 3
 490 340 435 385 410 435 c 9
 428 440 l 17
 453 410 500 390 555 390 c 3
 740 390 845 460 860 460 c 3
708 365 m 3
 708 215 720 105 720 50 c 3
 720 -45 660 -95 550 -95 c 3
 460 -95 410 -40 410 13 c 3
 410 65 472 115 570 115 c 3
 725 115 905 -3 905 -35 c 3
 905 -52 888 -75 870 -75 c 3
 857 -75 847 -58 817 -35 c 0
 747 20 655 72 545 72 c 3
 487 72 447 48 447 18 c 3
 447 -15 485 -47 540 -47 c 3
 625 -47 660 -15 660 75 c 3
 660 335 655 535 647 595 c 1
 665 590 725 590 725 575 c 1
 725 560 708 555 708 365 c 3
170 705 m 17
 230 665 270 605 270 577 c 3
 270 567 260 560 250 545 c 0
 210 485 165 350 165 190 c 3
 165 150 175 90 185 60 c 9
 288 280 l 25
 305 270 l 17
 255 145 225 35 225 -10 c 3
 225 -50 235 -55 235 -70 c 3
 235 -85 215 -110 195 -110 c 3
 165 -110 120 45 120 155 c 3
 120 395 190 570 190 615 c 3
 190 640 175 670 155 690 c 9
 170 705 l 17
742 729 m 9
 757 744 l 17
 845 703 883 645 883 615 c 0
 883 600 862 583 843 583 c 0
 818 583 820 662 742 729 c 9
828 778 m 9
 844 793 l 17
 928 764 982 705 982 675 c 0
 982 657 960 640 942 640 c 0
 920 640 913 720 828 778 c 9
EndSplineSet
Fore
SplineSet
740 658 m 3
 755 658 778 640 778 625 c 3
 778 602 670 582 575 582 c 3
 520 582 475 615 450 653 c 9
 465 663 l 17
 490 640 525 630 570 630 c 3
 670 630 730 658 740 658 c 3
860 460 m 3
 875 460 900 442 900 427 c 3
 900 400 730 340 550 340 c 3
 490 340 435 385 410 435 c 9
 428 440 l 17
 453 410 500 390 555 390 c 3
 740 390 845 460 860 460 c 3
708 365 m 3
 708 215 720 105 720 50 c 3
 720 -45 660 -95 550 -95 c 3
 460 -95 410 -40 410 13 c 3
 410 65 472 115 570 115 c 3
 725 115 905 -3 905 -35 c 3
 905 -52 888 -75 870 -75 c 3
 857 -75 847 -58 817 -35 c 0
 747 20 655 72 545 72 c 3
 487 72 447 48 447 18 c 3
 447 -15 485 -47 540 -47 c 3
 625 -47 660 -15 660 75 c 3
 660 335 655 535 647 595 c 1
 665 590 725 590 725 575 c 1
 725 560 708 555 708 365 c 3
170 705 m 17
 230 665 270 605 270 577 c 3
 270 567 260 560 250 545 c 0
 210 485 165 350 165 190 c 3
 165 150 175 90 185 60 c 9
 288 280 l 25
 305 270 l 17
 255 145 225 35 225 -10 c 3
 225 -50 235 -55 235 -70 c 3
 235 -85 215 -110 195 -110 c 3
 165 -110 120 45 120 155 c 3
 120 395 190 570 190 615 c 3
 190 640 175 670 155 690 c 9
 170 705 l 17
742 729 m 9
 757 744 l 17
 845 703 883 645 883 615 c 0
 883 600 862 583 843 583 c 0
 818 583 820 662 742 729 c 9
828 778 m 9
 844 793 l 17
 928 764 982 705 982 675 c 0
 982 657 960 640 942 640 c 0
 920 640 913 720 828 778 c 9
EndSplineSet
EndChar

StartChar: uni307D
Encoding: 12413 12413 68
Width: 1000
Flags: HMW
LayerCount: 3
Back
SplineSet
730 658 m 3
 745 658 768 640 768 625 c 3
 768 602 665 582 575 582 c 3
 520 582 475 615 450 653 c 9
 465 663 l 17
 490 640 525 630 570 630 c 3
 665 630 720 658 730 658 c 3
860 460 m 3
 875 460 900 442 900 427 c 3
 900 400 730 340 550 340 c 3
 490 340 435 385 410 435 c 9
 428 440 l 17
 453 410 500 390 555 390 c 3
 740 390 845 460 860 460 c 3
708 365 m 3
 708 215 720 105 720 50 c 3
 720 -45 660 -95 550 -95 c 3
 460 -95 410 -40 410 13 c 3
 410 65 472 115 570 115 c 3
 725 115 905 -3 905 -35 c 3
 905 -52 888 -75 870 -75 c 3
 857 -75 847 -58 817 -35 c 0
 747 20 655 72 545 72 c 3
 487 72 447 48 447 18 c 3
 447 -15 485 -47 540 -47 c 3
 625 -47 660 -15 660 75 c 3
 660 335 655 535 647 595 c 1
 665 590 725 590 725 575 c 1
 725 560 708 555 708 365 c 3
170 705 m 17
 230 665 270 605 270 577 c 3
 270 567 260 560 250 545 c 0
 210 485 165 350 165 190 c 3
 165 150 175 90 185 60 c 9
 288 280 l 25
 305 270 l 17
 255 145 225 35 225 -10 c 3
 225 -50 235 -55 235 -70 c 3
 235 -85 215 -110 195 -110 c 3
 165 -110 120 45 120 155 c 3
 120 395 190 570 190 615 c 3
 190 640 175 670 155 690 c 9
 170 705 l 17
EndSplineSet
Refer: 95 12442 N 1 0 0 1 35 40 2
Fore
SplineSet
730 658 m 3
 745 658 768 640 768 625 c 3
 768 602 665 582 575 582 c 3
 520 582 475 615 450 653 c 9
 465 663 l 17
 490 640 525 630 570 630 c 3
 665 630 720 658 730 658 c 3
860 460 m 3
 875 460 900 442 900 427 c 3
 900 400 730 340 550 340 c 3
 490 340 435 385 410 435 c 9
 428 440 l 17
 453 410 500 390 555 390 c 3
 740 390 845 460 860 460 c 3
708 365 m 3
 708 215 720 105 720 50 c 3
 720 -45 660 -95 550 -95 c 3
 460 -95 410 -40 410 13 c 3
 410 65 472 115 570 115 c 3
 725 115 905 -3 905 -35 c 3
 905 -52 888 -75 870 -75 c 3
 857 -75 847 -58 817 -35 c 0
 747 20 655 72 545 72 c 3
 487 72 447 48 447 18 c 3
 447 -15 485 -47 540 -47 c 3
 625 -47 660 -15 660 75 c 3
 660 335 655 535 647 595 c 1
 665 590 725 590 725 575 c 1
 725 560 708 555 708 365 c 3
170 705 m 17
 230 665 270 605 270 577 c 3
 270 567 260 560 250 545 c 0
 210 485 165 350 165 190 c 3
 165 150 175 90 185 60 c 9
 288 280 l 25
 305 270 l 17
 255 145 225 35 225 -10 c 3
 225 -50 235 -55 235 -70 c 3
 235 -85 215 -110 195 -110 c 3
 165 -110 120 45 120 155 c 3
 120 395 190 570 190 615 c 3
 190 640 175 670 155 690 c 9
 170 705 l 17
EndSplineSet
Refer: 95 12442 N 1 0 0 1 35 40 2
EndChar

StartChar: uni307E
Encoding: 12414 12414 69
Width: 1000
Flags: HMW
LayerCount: 3
Back
SplineSet
735 581 m 3
 750 581 775 562 775 548 c 3
 775 518 520 445 300 445 c 3
 240 445 185 482 155 537 c 9
 170 547 l 17
 200 512 250 495 305 495 c 3
 440 495 575 527 645 548 c 0
 707 567 725 581 735 581 c 3
397 693 m 9
 392 713 l 17
 407 720 427 723 440 723 c 3
 505 723 550 693 550 677 c 3
 550 669 542 660 537 630 c 0
 532 600 527 480 527 385 c 3
 527 230 535 95 535 35 c 3
 535 -57 480 -113 375 -113 c 3
 270 -113 212 -65 212 -3 c 3
 212 60 280 103 390 103 c 3
 575 103 785 -30 785 -65 c 3
 785 -82 763 -105 745 -105 c 3
 730 -105 715 -85 675 -55 c 0
 595 5 490 60 355 60 c 3
 290 60 250 35 250 2 c 3
 250 -38 290 -64 360 -64 c 3
 410 -64 445 -48 460 -18 c 0
 475 12 480 45 480 265 c 3
 480 530 470 640 465 660 c 0
 460 680 435 694 410 694 c 3
 409 694 403 694 397 693 c 9
725 376 m 3
 740 376 765 357 765 342 c 3
 765 313 520 255 340 255 c 3
 290 255 235 295 212 345 c 9
 230 350 l 17
 255 320 300 305 350 305 c 3
 470 305 585 332 655 352 c 0
 690 362 720 376 725 376 c 3
EndSplineSet
Fore
SplineSet
735 581 m 3
 750 581 775 562 775 548 c 3
 775 518 520 445 300 445 c 3
 240 445 185 482 155 537 c 9
 170 547 l 17
 200 512 250 495 305 495 c 3
 440 495 575 527 645 548 c 0
 707 567 725 581 735 581 c 3
397 693 m 9
 392 713 l 17
 407 720 427 723 440 723 c 3
 505 723 550 693 550 677 c 3
 550 669 542 660 537 630 c 0
 532 600 527 480 527 385 c 3
 527 230 535 95 535 35 c 3
 535 -57 480 -113 375 -113 c 3
 270 -113 212 -65 212 -3 c 3
 212 60 280 103 390 103 c 3
 575 103 785 -30 785 -65 c 3
 785 -82 763 -105 745 -105 c 3
 730 -105 715 -85 675 -55 c 0
 595 5 490 60 355 60 c 3
 290 60 250 35 250 2 c 3
 250 -38 290 -64 360 -64 c 3
 410 -64 445 -48 460 -18 c 0
 475 12 480 45 480 265 c 3
 480 530 470 640 465 660 c 0
 460 680 435 694 410 694 c 3
 409 694 403 694 397 693 c 9
725 376 m 3
 740 376 765 357 765 342 c 3
 765 313 520 255 340 255 c 3
 290 255 235 295 212 345 c 9
 230 350 l 17
 255 320 300 305 350 305 c 3
 470 305 585 332 655 352 c 0
 690 362 720 376 725 376 c 3
EndSplineSet
EndChar

StartChar: uni307F
Encoding: 12415 12415 70
Width: 1000
Flags: HMW
LayerCount: 3
Back
SplineSet
695 440 m 9
 700 460 l 17
 775 450 830 405 830 380 c 3
 830 370 820 370 810 350 c 0
 800 330 735 -20 410 -125 c 9
 400 -110 l 17
 685 40 745 345 745 390 c 3
 745 410 725 430 695 440 c 9
185 5 m 3
 140 5 100 45 100 95 c 3
 100 210 220 297 385 297 c 3
 500 297 628 261 725 215 c 0
 847 157 925 100 925 75 c 3
 925 55 910 30 895 30 c 3
 870 30 853 81 700 165 c 0
 611 214 485 260 360 260 c 3
 240 260 150 190 150 110 c 3
 150 85 165 65 190 65 c 3
 235 65 265 90 365 270 c 0
 465 450 505 605 505 630 c 3
 505 637 498 640 492 640 c 3
 470 640 390 600 335 570 c 0
 309 556 305 550 295 550 c 3
 270 550 235 600 230 653 c 9
 250 660 l 17
 255 640 270 625 290 625 c 3
 330 625 428 657 478 677 c 0
 503 687 505 692 517 692 c 3
 537 692 595 642 595 622 c 3
 595 610 582 605 552 545 c 0
 462 365 417 245 337 125 c 0
 277 35 240 5 185 5 c 3
EndSplineSet
Fore
SplineSet
185 5 m 3
 140 5 100 45 100 95 c 3
 100 210 220 297 385 297 c 3
 500 297 628 261 725 215 c 0
 847 157 925 100 925 75 c 3
 925 55 910 30 895 30 c 3
 870 30 853 81 700 165 c 0
 611 214 485 260 360 260 c 3
 240 260 150 190 150 110 c 3
 150 85 165 65 190 65 c 3
 235 65 265 90 365 270 c 0
 465 450 505 605 505 630 c 3
 505 637 498 640 492 640 c 3
 470 640 390 600 335 570 c 0
 309 556 305 550 295 550 c 3
 270 550 235 600 230 653 c 1
 250 660 l 1
 255 640 270 625 290 625 c 3
 330 625 428 657 478 677 c 0
 503 687 505 692 517 692 c 3
 537 692 595 642 595 622 c 3
 595 610 582 605 552 545 c 0
 461 363 411 241 335 121 c 0
 279 34 239 5 185 5 c 3
695 440 m 9
 700 460 l 17
 775 450 830 405 830 380 c 3
 830 370 820 370 810 350 c 0
 800 330 735 -20 410 -125 c 9
 400 -110 l 17
 685 40 745 345 745 390 c 3
 745 410 725 430 695 440 c 9
EndSplineSet
EndChar

StartChar: uni3080
Encoding: 12416 12416 71
Width: 1000
Flags: HMW
LayerCount: 3
Back
SplineSet
250 357 m 3
 305 357 340 310 340 265 c 3
 340 215 275 110 275 35 c 3
 275 -5 325 -35 440 -35 c 3
 585 -35 710 -5 710 40 c 3
 710 80 654 290 654 415 c 3
 654 500 674 542 715 542 c 3
 800 542 915 420 915 350 c 3
 915 330 895 310 875 310 c 3
 863 310 859 323 837 323 c 3
 820 323 777 317 750 312 c 9
 745 332 l 17
 805 352 825 365 825 380 c 3
 825 420 760 505 710 505 c 3
 696 505 686 485 686 430 c 3
 686 315 750 75 770 45 c 0
 780 30 805 15 805 0 c 3
 805 -35 650 -95 475 -95 c 3
 295 -95 227 -50 227 7 c 3
 227 35 240 82 255 127 c 1
 250 120 235 112 220 112 c 3
 165 112 120 155 120 215 c 3
 120 300 182 357 250 357 c 3
490 573 m 3
 510 573 535 555 535 540 c 3
 535 518 385 465 220 465 c 3
 175 465 120 510 100 550 c 9
 115 560 l 17
 135 535 180 515 225 515 c 3
 380 515 475 573 490 573 c 3
240 710 m 9
 245 690 l 17
 280 692 300 675 300 650 c 3
 300 620 293 465 283 345 c 9
 329 305 l 17
 337 425 350 590 360 630 c 0
 365 650 375 662 375 670 c 3
 375 685 327 715 275 715 c 3
 263 715 250 713 240 710 c 9
235 320 m 3
 192 320 159 280 159 225 c 3
 159 187 185 162 219 162 c 3
 260 162 290 200 290 255 c 3
 290 290 270 320 235 320 c 3
EndSplineSet
Fore
SplineSet
245 690 m 17
 240 710 l 1
 250 713 263 715 275 715 c 3
 327 715 375 685 375 670 c 3
 375 662 365 650 360 630 c 0
 350 590 337 425 329 305 c 1
 283 345 l 1
 293 465 300 620 300 650 c 3
 300 674 282 690 250 690 c 9
 245 690 l 17
250 357 m 3
 305 357 340 310 340 265 c 3
 340 215 275 110 275 35 c 3
 275 -5 325 -35 440 -35 c 3
 585 -35 710 -5 710 40 c 3
 710 80 654 290 654 415 c 3
 654 500 674 542 715 542 c 3
 800 542 915 420 915 350 c 3
 915 330 895 310 875 310 c 3
 863 310 859 323 837 323 c 3
 820 323 777 317 750 312 c 1
 745 332 l 1
 805 352 825 365 825 380 c 3
 825 420 760 506 710 506 c 3
 694 506 685 488 685 430 c 3
 685 315 750 75 770 45 c 0
 780 30 805 15 805 0 c 3
 805 -35 650 -95 475 -95 c 3
 295 -95 227 -50 227 7 c 3
 227 35 240 82 255 127 c 1
 250 120 235 112 220 112 c 3
 165 112 120 155 120 215 c 3
 120 300 182 357 250 357 c 3
490 573 m 3
 510 573 535 555 535 540 c 3
 535 518 385 465 220 465 c 3
 175 465 120 510 100 550 c 1
 115 560 l 1
 135 535 180 515 225 515 c 3
 380 515 475 573 490 573 c 3
235 320 m 3
 192 320 159 280 159 225 c 3
 159 187 185 162 219 162 c 3
 260 162 290 200 290 255 c 3
 290 290 270 320 235 320 c 3
EndSplineSet
Substitution2: "'salt' Stylistic Alternatives lookup 3-subtable" u10FFEF
EndChar

StartChar: uni3081
Encoding: 12417 12417 72
Width: 1000
Flags: HMW
LayerCount: 3
Back
SplineSet
815 265 m 3
 815 405 725 500 565 500 c 3
 360 500 175 305 175 135 c 3
 175 85 200 50 225 50 c 3
 335 50 565 430 565 640 c 3
 565 660 553 682 525 695 c 9
 530 715 l 17
 590 697 630 660 630 630 c 3
 630 460 385 -20 210 -20 c 3
 165 -20 118 40 118 120 c 3
 118 315 325 535 585 535 c 3
 760 535 890 420 890 260 c 3
 890 45 715 -65 460 -85 c 9
 455 -65 l 17
 675 -25 815 80 815 265 c 3
190 570 m 9
 195 585 l 17
 230 580 275 550 295 530 c 0
 325 500 315 415 385 275 c 0
 435 175 495 140 495 120 c 3
 495 100 475 82 460 82 c 3
 440 82 355 185 315 305 c 0
 265 455 280 505 190 570 c 9
EndSplineSet
Fore
SplineSet
815 265 m 3
 815 405 725 500 565 500 c 3
 360 500 175 305 175 135 c 3
 175 85 200 50 225 50 c 3
 335 50 565 430 565 640 c 3
 565 660 553 682 525 695 c 9
 530 715 l 17
 590 697 630 660 630 630 c 3
 630 460 385 -20 210 -20 c 3
 165 -20 118 40 118 120 c 3
 118 315 325 535 585 535 c 3
 760 535 890 420 890 260 c 3
 890 45 715 -65 460 -85 c 9
 455 -65 l 17
 675 -25 815 80 815 265 c 3
190 570 m 9
 195 585 l 17
 230 580 275 550 295 530 c 0
 325 500 315 415 385 275 c 0
 435 175 495 140 495 120 c 3
 495 100 475 82 460 82 c 3
 440 82 355 185 315 305 c 0
 265 455 280 505 190 570 c 9
EndSplineSet
EndChar

StartChar: uni3082
Encoding: 12418 12418 73
Width: 1000
Flags: HMW
LayerCount: 3
Back
SplineSet
235 313 m 9
 255 315 l 17
 275 245 338 210 453 210 c 3
 480 210 495 215 505 215 c 3
 520 215 540 190 540 175 c 3
 540 160 515 152 470 152 c 3
 310 152 242 220 235 313 c 9
255 590 m 17
 275 515 385 495 485 491 c 0
 505 490 525 460 525 440 c 3
 525 433 517 427 507 427 c 3
 497 427 470 435 440 435 c 3
 410 435 375 423 310 390 c 9
 305 405 l 25
 370 454 l 17
 310 465 245 500 235 585 c 9
 255 590 l 17
520 -67 m 3
 620 -67 687 15 687 110 c 3
 687 190 640 270 565 345 c 9
 575 360 l 17
 685 280 755 190 755 80 c 3
 755 -30 655 -127 525 -127 c 3
 420 -127 345 -45 345 85 c 3
 345 295 440 590 440 665 c 3
 440 685 420 705 385 708 c 9
 383 728 l 17
 387 729 398 730 403 730 c 3
 475 730 530 675 530 655 c 3
 530 648 525 645 515 630 c 0
 485 585 387 270 387 95 c 3
 387 -10 435 -67 520 -67 c 3
EndSplineSet
Fore
SplineSet
235 313 m 9
 255 315 l 17
 275 245 338 210 453 210 c 3
 480 210 495 215 505 215 c 3
 520 215 540 190 540 175 c 3
 540 160 515 152 470 152 c 3
 310 152 242 220 235 313 c 9
255 590 m 17
 275 515 385 495 485 491 c 0
 505 490 525 460 525 440 c 3
 525 433 517 427 507 427 c 3
 497 427 470 435 440 435 c 3
 410 435 375 423 310 390 c 9
 305 405 l 25
 370 454 l 17
 310 465 245 500 235 585 c 9
 255 590 l 17
520 -67 m 3
 620 -67 687 15 687 110 c 3
 687 190 640 270 565 345 c 9
 575 360 l 17
 685 280 755 190 755 80 c 3
 755 -30 655 -127 525 -127 c 3
 420 -127 345 -45 345 85 c 3
 345 295 440 590 440 665 c 3
 440 685 420 705 385 708 c 9
 383 728 l 17
 387 729 398 730 403 730 c 3
 475 730 530 675 530 655 c 3
 530 648 525 645 515 630 c 0
 485 585 387 270 387 95 c 3
 387 -10 435 -67 520 -67 c 3
EndSplineSet
EndChar

StartChar: uni3083
Encoding: 12419 12419 74
Width: 1000
Flags: HMW
LayerCount: 3
Back
SplineSet
669 372 m 3
 549 372 311 213 260 179 c 0
 235 162 230 155 220 155 c 3
 199 155 155 198 143 250 c 9
 162 258 l 17
 171 239 186 228 200 228 c 3
 270 228 535 409 686 409 c 3
 785 409 850 355 850 280 c 3
 850 205 775 139 669 139 c 3
 610 139 542 168 500 205 c 9
 510 222 l 17
 548 201 606 188 648 188 c 3
 731 188 783 235 783 290 c 3
 783 335 740 372 669 372 c 3
456 552 m 9
 470 562 l 17
 525 540 578 474 578 440 c 3
 578 425 562 402 542 402 c 3
 528 402 529 418 504 435 c 0
 479 452 428 460 373 460 c 3
 345 460 320 432 320 411 c 3
 320 348 535 -49 535 -133 c 3
 535 -150 515 -170 495 -170 c 3
 472 -170 472 -122 430 5 c 0
 388 132 314 304 280 355 c 0
 272 368 257 382 257 390 c 3
 257 428 325 485 369 485 c 3
 407 485 465 481 508 475 c 1
 504 496 481 532 456 552 c 9
EndSplineSet
Fore
SplineSet
669 372 m 3
 549 372 311 213 260 179 c 0
 235 162 230 155 220 155 c 3
 199 155 155 198 143 250 c 9
 162 258 l 17
 171 239 186 228 200 228 c 3
 270 228 535 409 686 409 c 3
 785 409 850 355 850 280 c 3
 850 205 775 139 669 139 c 3
 610 139 542 168 500 205 c 9
 510 222 l 17
 548 201 606 188 648 188 c 3
 731 188 783 235 783 290 c 3
 783 335 740 372 669 372 c 3
456 552 m 9
 470 562 l 17
 525 540 578 474 578 440 c 3
 578 425 562 402 542 402 c 3
 528 402 529 418 504 435 c 0
 479 452 428 460 373 460 c 3
 345 460 320 432 320 411 c 3
 320 348 535 -49 535 -133 c 3
 535 -150 515 -170 495 -170 c 3
 472 -170 472 -122 430 5 c 0
 388 132 314 304 280 355 c 0
 272 368 257 382 257 390 c 3
 257 428 325 485 369 485 c 3
 407 485 465 481 508 475 c 1
 504 496 481 532 456 552 c 9
EndSplineSet
Substitution2: "'aalt' Access All Alternates lookup 0-subtable" u10FFF6
Substitution2: "'vert' Vertical Alternates (obs) lookup 1-subtable" u10FFF6
Substitution2: "'vkna' Vertical Kana Alternates lookup 2-subtable" u10FFF6
EndChar

StartChar: uni3084
Encoding: 12420 12420 75
Width: 1000
Flags: HMW
LayerCount: 3
Back
SplineSet
700 505 m 3
 555 505 270 315 210 275 c 0
 180 255 180 250 170 250 c 3
 145 250 93 295 80 358 c 9
 100 365 l 17
 111 342 128 330 145 330 c 3
 230 330 535 545 720 545 c 3
 835 545 910 480 910 395 c 3
 910 310 823 230 700 230 c 3
 630 230 550 265 500 310 c 9
 510 325 l 17
 555 300 625 284 675 284 c 3
 775 284 837 340 837 406 c 3
 837 460 785 505 700 505 c 3
450 715 m 9
 465 725 l 17
 530 700 590 620 590 580 c 3
 590 565 570 540 550 540 c 3
 535 540 535 560 505 580 c 0
 475 600 415 610 350 610 c 3
 315 610 285 575 285 550 c 3
 285 475 539 5 539 -95 c 3
 539 -115 514 -135 494 -135 c 3
 469 -135 470 -80 420 70 c 0
 370 220 280 425 240 485 c 0
 230 500 215 515 215 525 c 3
 215 570 295 635 345 635 c 3
 390 635 460 632 510 625 c 1
 505 650 480 690 450 715 c 9
EndSplineSet
Fore
SplineSet
700 505 m 3
 555 505 270 315 210 275 c 0
 180 255 180 250 170 250 c 3
 145 250 93 295 80 358 c 9
 100 365 l 17
 111 342 128 330 145 330 c 3
 230 330 535 545 720 545 c 3
 835 545 910 480 910 395 c 3
 910 310 823 230 700 230 c 3
 630 230 550 265 500 310 c 9
 510 325 l 17
 555 300 625 284 675 284 c 3
 775 284 837 340 837 406 c 3
 837 460 785 505 700 505 c 3
450 715 m 9
 465 725 l 17
 530 700 590 620 590 580 c 3
 590 565 570 540 550 540 c 3
 535 540 535 560 505 580 c 0
 475 600 415 610 350 610 c 3
 315 610 285 575 285 550 c 3
 285 475 539 5 539 -95 c 3
 539 -115 514 -135 494 -135 c 3
 469 -135 470 -80 420 70 c 0
 370 220 280 425 240 485 c 0
 230 500 215 515 215 525 c 3
 215 570 295 635 345 635 c 3
 390 635 460 632 510 625 c 1
 505 650 480 690 450 715 c 9
EndSplineSet
EndChar

StartChar: uni3085
Encoding: 12421 12421 76
Width: 1000
Flags: HMW
LayerCount: 3
Back
SplineSet
240 73 m 3
 240 40 252 32 252 18 c 3
 252 6 231 -9 217 -9 c 3
 198 -9 164 82 164 154 c 3
 164 272 200 386 200 411 c 3
 200 428 195 445 177 462 c 9
 190 477 l 17
 235 456 264 420 264 403 c 3
 264 386 204 297 204 187 c 1
 204 166 206 145 208 132 c 1
 290 305 445 442 623 442 c 3
 752 442 845 357 845 238 c 3
 845 100 733 7 593 7 c 3
 454 7 364 124 364 263 c 3
 364 425 435 542 508 542 c 3
 580 542 638 435 638 272 c 3
 638 57 575 -73 411 -164 c 9
 400 -150 l 17
 523 -53 581 73 581 263 c 3
 581 410 553 508 502 508 c 3
 451 508 397 405 397 289 c 3
 397 141 470 58 584 58 c 3
 697 58 782 137 782 251 c 3
 782 340 722 408 614 408 c 3
 382 408 240 153 240 73 c 3
EndSplineSet
Fore
SplineSet
240 73 m 3
 240 40 252 32 252 18 c 3
 252 6 231 -9 217 -9 c 3
 198 -9 164 82 164 154 c 3
 164 272 200 386 200 411 c 3
 200 428 195 445 177 462 c 9
 190 477 l 17
 235 456 264 420 264 403 c 3
 264 386 204 297 204 187 c 1
 204 166 206 145 208 132 c 1
 290 305 445 442 623 442 c 3
 752 442 845 357 845 238 c 3
 845 100 733 7 593 7 c 3
 454 7 364 124 364 263 c 3
 364 425 435 542 508 542 c 3
 580 542 638 435 638 272 c 3
 638 57 575 -73 411 -164 c 9
 400 -150 l 17
 523 -53 581 73 581 263 c 3
 581 410 553 508 502 508 c 3
 451 508 397 405 397 289 c 3
 397 141 470 58 584 58 c 3
 697 58 782 137 782 251 c 3
 782 340 722 408 614 408 c 3
 382 408 240 153 240 73 c 3
EndSplineSet
Substitution2: "'aalt' Access All Alternates lookup 0-subtable" u10FFF7
Substitution2: "'vert' Vertical Alternates (obs) lookup 1-subtable" u10FFF7
Substitution2: "'vkna' Vertical Kana Alternates lookup 2-subtable" u10FFF7
EndChar

StartChar: uni3086
Encoding: 12422 12422 77
Width: 1000
Flags: HMW
LayerCount: 3
Back
SplineSet
190 150 m 3
 190 110 204 100 204 85 c 3
 204 72 180 55 165 55 c 3
 145 55 105 160 105 245 c 3
 105 385 147 520 147 550 c 3
 147 570 140 590 120 610 c 9
 130 625 l 17
 180 600 215 560 215 540 c 3
 215 520 147 415 147 285 c 1
 147 260 150 235 155 220 c 1
 255 420 440 585 645 585 c 3
 795 585 905 485 905 345 c 3
 905 185 775 73 610 73 c 3
 445 73 342 210 342 375 c 3
 342 565 425 705 510 705 c 3
 595 705 660 575 660 385 c 3
 660 130 585 -20 395 -130 c 9
 385 -115 l 17
 530 0 600 150 600 375 c 3
 600 555 565 670 502 670 c 3
 442 670 375 550 375 405 c 3
 375 230 465 130 600 130 c 3
 735 130 837 225 837 360 c 3
 837 465 765 550 635 550 c 3
 360 550 190 245 190 150 c 3
EndSplineSet
Fore
SplineSet
190 150 m 3
 190 110 204 100 204 85 c 3
 204 72 180 55 165 55 c 3
 145 55 105 160 105 245 c 3
 105 385 147 520 147 550 c 3
 147 570 140 590 120 610 c 9
 130 625 l 17
 180 600 215 560 215 540 c 3
 215 520 147 415 147 285 c 1
 147 260 150 235 155 220 c 1
 255 420 440 585 645 585 c 3
 795 585 905 485 905 345 c 3
 905 185 775 73 610 73 c 3
 445 73 342 210 342 375 c 3
 342 565 425 705 510 705 c 3
 595 705 660 575 660 385 c 3
 660 130 585 -20 395 -130 c 9
 385 -115 l 17
 530 0 600 150 600 375 c 3
 600 555 565 670 502 670 c 3
 442 670 375 550 375 405 c 3
 375 230 465 130 600 130 c 3
 735 130 837 225 837 360 c 3
 837 465 765 550 635 550 c 3
 360 550 190 245 190 150 c 3
EndSplineSet
EndChar

StartChar: uni3087
Encoding: 12423 12423 78
Width: 1000
Flags: HMW
LayerCount: 3
Back
SplineSet
686 379 m 3
 705 379 730 360 730 347 c 3
 730 320 620 300 551 300 c 3
 530 300 500 312 485 330 c 9
 485 362 l 17
 502 354 525 350 542 350 c 3
 622 350 668 379 686 379 c 3
382 542 m 9
 379 562 l 17
 387 565 403 567 413 567 c 3
 470 567 511 538 511 520 c 3
 511 510 502 505 498 480 c 0
 494 455 489 380 489 296 c 3
 489 169 502 58 502 -8 c 3
 502 -107 445 -145 348 -145 c 3
 260 -145 214 -93 214 -42 c 3
 214 13 276 58 373 58 c 3
 540 58 730 -65 730 -98 c 3
 730 -112 708 -132 690 -132 c 3
 675 -132 665 -107 581 -56 c 0
 496 -5 415 17 344 17 c 3
 291 17 253 -6 253 -36 c 3
 253 -70 287 -98 344 -98 c 0
 410 -98 442 -71 442 9 c 3
 442 123 441 464 435 506 c 0
 431 535 410 542 382 542 c 9
EndSplineSet
Fore
SplineSet
686 379 m 3
 705 379 730 360 730 347 c 3
 730 320 620 300 551 300 c 3
 530 300 500 312 485 330 c 9
 485 362 l 17
 502 354 525 350 542 350 c 3
 622 350 668 379 686 379 c 3
382 542 m 9
 379 562 l 17
 387 565 403 567 413 567 c 3
 470 567 511 538 511 520 c 3
 511 510 502 505 498 480 c 0
 494 455 489 380 489 296 c 3
 489 169 502 58 502 -8 c 3
 502 -107 445 -145 348 -145 c 3
 260 -145 214 -93 214 -42 c 3
 214 13 276 58 373 58 c 3
 540 58 730 -65 730 -98 c 3
 730 -112 708 -132 690 -132 c 3
 675 -132 665 -107 581 -56 c 0
 496 -5 415 17 344 17 c 3
 291 17 253 -6 253 -36 c 3
 253 -70 287 -98 344 -98 c 0
 410 -98 442 -71 442 9 c 3
 442 123 441 464 435 506 c 0
 431 535 410 542 382 542 c 9
EndSplineSet
Substitution2: "'aalt' Access All Alternates lookup 0-subtable" u10FFF8
Substitution2: "'vert' Vertical Alternates (obs) lookup 1-subtable" u10FFF8
Substitution2: "'vkna' Vertical Kana Alternates lookup 2-subtable" u10FFF8
EndChar

StartChar: uni3088
Encoding: 12424 12424 79
Width: 1000
Flags: HMW
LayerCount: 3
Back
SplineSet
720 497 m 3
 740 497 770 477 770 462 c 3
 770 432 635 409 560 409 c 3
 535 409 497 427 480 447 c 9
 480 478 l 17
 502 467 530 462 550 462 c 3
 645 462 700 497 720 497 c 3
373 696 m 3
 371 696 365 696 360 695 c 9
 358 715 l 17
 368 718 385 720 397 720 c 3
 462 720 510 685 510 665 c 3
 510 657 500 650 495 620 c 0
 490 590 482 502 482 402 c 3
 482 252 500 120 500 42 c 3
 500 -68 435 -118 320 -118 c 3
 218 -118 165 -56 165 2 c 3
 165 64 235 117 350 117 c 3
 545 117 770 -30 770 -63 c 3
 770 -78 745 -103 725 -103 c 3
 710 -103 698 -73 598 -13 c 0
 498 47 405 73 315 73 c 3
 250 73 205 44 205 9 c 3
 205 -31 245 -67 315 -67 c 0
 397 -67 435 -33 435 62 c 3
 435 197 430 600 425 650 c 0
 422 680 398 696 373 696 c 3
EndSplineSet
Fore
SplineSet
720 497 m 3
 740 497 770 477 770 462 c 3
 770 432 635 409 560 409 c 3
 535 409 497 427 480 447 c 9
 480 478 l 17
 502 467 530 462 550 462 c 3
 645 462 700 497 720 497 c 3
372 696 m 3
 368 696 360 695 356 694 c 9
 353 714 l 17
 365 718 383 720 395 720 c 3
 460 720 510 686 510 665 c 7
 510 657 500 650 495 620 c 0
 490 590 482 502 482 402 c 3
 482 252 500 120 500 42 c 3
 500 -68 435 -118 320 -118 c 3
 218 -118 165 -56 165 2 c 3
 165 64 235 117 350 117 c 3
 545 117 770 -30 770 -63 c 3
 770 -78 745 -103 725 -103 c 3
 710 -103 698 -73 598 -13 c 0
 498 47 405 73 315 73 c 3
 250 73 205 44 205 9 c 3
 205 -31 245 -67 315 -67 c 0
 397 -67 435 -33 435 62 c 3
 435 197 431 597 425 647 c 0
 421 680 398 696 372 696 c 3
EndSplineSet
EndChar

StartChar: uni3089
Encoding: 12425 12425 80
Width: 1000
Flags: HMW
LayerCount: 3
Back
SplineSet
305 715 m 9
 320 725 l 17
 355 660 440 640 525 640 c 3
 555 640 575 600 575 585 c 3
 575 575 567 570 552 570 c 3
 537 570 510 575 490 575 c 3
 415 575 305 550 305 505 c 3
 305 475 340 465 340 440 c 3
 340 410 300 265 300 195 c 3
 300 180 305 175 310 175 c 3
 335 175 470 285 635 285 c 3
 745 285 825 210 825 125 c 3
 825 -50 590 -118 395 -123 c 9
 390 -105 l 17
 560 -83 750 -20 750 130 c 3
 750 195 690 250 605 250 c 3
 505 250 395 165 345 115 c 0
 315 85 305 60 290 60 c 3
 275 60 240 95 240 115 c 3
 240 195 278 370 278 435 c 3
 278 455 272 475 272 485 c 3
 272 530 330 575 400 605 c 1
 355 625 320 670 305 715 c 9
EndSplineSet
Fore
SplineSet
305 715 m 9
 320 725 l 17
 355 660 440 640 525 640 c 3
 555 640 575 600 575 585 c 3
 575 575 567 570 552 570 c 3
 537 570 510 575 490 575 c 3
 415 575 305 550 305 505 c 3
 305 475 340 465 340 440 c 3
 340 410 300 265 300 195 c 3
 300 180 305 175 310 175 c 3
 335 175 470 285 635 285 c 3
 745 285 825 210 825 125 c 3
 825 -50 590 -118 395 -123 c 9
 390 -105 l 17
 560 -83 750 -20 750 130 c 3
 750 195 690 250 605 250 c 3
 505 250 395 165 345 115 c 0
 315 85 305 60 290 60 c 3
 275 60 240 95 240 115 c 3
 240 195 278 370 278 435 c 3
 278 455 272 475 272 485 c 3
 272 530 330 575 400 605 c 1
 355 625 320 670 305 715 c 9
EndSplineSet
EndChar

StartChar: uni308A
Encoding: 12426 12426 81
Width: 1000
Flags: HMW
LayerCount: 3
Back
SplineSet
325 420 m 1
 325 405 327 370 330 360 c 1
 375 535 485 625 555 625 c 3
 635 625 705 505 705 365 c 3
 705 155 625 -45 375 -135 c 9
 365 -120 l 17
 570 -5 632 165 632 360 c 3
 632 485 600 580 538 580 c 3
 465 580 355 415 355 285 c 3
 355 245 374 225 374 210 c 3
 374 195 350 180 340 180 c 3
 320 180 282 280 282 370 c 3
 282 510 322 620 322 650 c 3
 322 670 310 695 285 715 c 9
 295 730 l 17
 350 710 390 660 390 640 c 3
 390 620 325 530 325 420 c 1
EndSplineSet
Fore
SplineSet
325 420 m 1
 325 405 327 370 330 360 c 1
 375 535 485 625 555 625 c 3
 635 625 705 505 705 365 c 3
 705 155 625 -45 375 -135 c 9
 365 -120 l 17
 570 -5 632 165 632 360 c 3
 632 485 600 580 538 580 c 3
 465 580 355 415 355 285 c 3
 355 245 374 225 374 210 c 3
 374 195 350 180 340 180 c 3
 320 180 282 280 282 370 c 3
 282 510 322 620 322 650 c 3
 322 670 310 695 285 715 c 9
 295 730 l 17
 350 710 390 660 390 640 c 3
 390 620 325 530 325 420 c 1
EndSplineSet
EndChar

StartChar: uni308B
Encoding: 12427 12427 82
Width: 1000
Flags: HMW
LayerCount: 3
Back
SplineSet
235 670 m 9
 255 680 l 17
 265 649 280 635 305 635 c 3
 355 635 505 678 535 690 c 0
 572 705 577 711 589 711 c 3
 615 711 680 665 680 640 c 3
 680 615 620 605 345 270 c 1
 415 325 510 363 600 363 c 3
 730 363 840 280 840 162 c 3
 840 -25 645 -125 480 -125 c 3
 340 -125 283 -60 283 -5 c 3
 283 50 335 93 400 93 c 3
 485 93 545 10 560 -70 c 9
 495 -80 l 17
 485 -15 445 55 385 55 c 3
 345 55 320 30 320 0 c 3
 320 -45 380 -77 455 -77 c 3
 615 -77 765 5 765 165 c 3
 765 255 690 325 585 325 c 3
 485 325 380 285 292 197 c 0
 220 125 202 75 182 75 c 3
 167 75 147 100 147 115 c 3
 147 140 215 195 305 295 c 0
 440 445 595 630 595 650 c 3
 595 655 590 660 582 660 c 3
 547 660 405 600 365 580 c 0
 335 565 320 555 310 555 c 3
 285 555 240 610 235 670 c 9
EndSplineSet
Fore
SplineSet
240 672 m 9
 258 680 l 17
 267 649 285 635 310 635 c 3
 360 635 505 678 535 690 c 0
 572 705 577 711 589 711 c 3
 615 711 680 665 680 640 c 3
 680 615 620 605 345 270 c 1
 415 325 510 363 600 363 c 3
 730 363 840 280 840 162 c 3
 840 -25 645 -125 480 -125 c 3
 340 -125 283 -60 283 -5 c 3
 283 50 335 93 400 93 c 3
 485 93 545 10 560 -70 c 9
 495 -80 l 17
 485 -15 445 55 385 55 c 3
 345 55 320 30 320 0 c 3
 320 -45 380 -77 455 -77 c 3
 615 -77 765 5 765 165 c 3
 765 255 690 325 585 325 c 3
 485 325 380 285 292 197 c 0
 220 125 202 75 182 75 c 3
 167 75 147 100 147 115 c 3
 147 140 215 195 305 295 c 0
 440 445 595 630 595 650 c 3
 595 655 590 660 582 660 c 3
 547 660 410 600 370 580 c 0
 340 565 325 555 315 555 c 3
 290 555 243 600 240 672 c 9
EndSplineSet
EndChar

StartChar: uni308C
Encoding: 12428 12428 83
Width: 1000
Flags: HMW
LayerCount: 3
Back
SplineSet
105 315 m 17
 95 330 90 340 90 355 c 3
 90 405 165 470 340 500 c 1
 360 500 385 470 385 455 c 3
 385 435 345 395 310 345 c 1
 300 320 l 1
 320 305 l 1
 450 445 605 565 715 565 c 3
 765 565 795 515 795 460 c 3
 795 375 740 150 740 55 c 3
 740 20 755 0 780 0 c 3
 835 0 895 55 950 170 c 9
 970 165 l 17
 925 15 865 -70 760 -70 c 3
 715 -70 675 -35 675 25 c 3
 675 120 725 370 725 450 c 3
 725 500 700 523 680 523 c 3
 605 523 460 405 325 270 c 9
 305 265 l 17
 165 90 130 0 112 0 c 3
 95 0 75 25 75 40 c 3
 75 65 139 120 295 325 c 1
 305 355 l 1
 295 430 l 1
 225 420 123 385 123 338 c 3
 123 333 124 325 125 320 c 9
 105 315 l 17
220 700 m 9
 225 720 l 17
 305 718 355 669 355 650 c 3
 355 643 347 637 342 612 c 0
 337 587 328 495 328 260 c 3
 328 80 334 -5 334 -55 c 3
 334 -90 300 -122 275 -122 c 3
 260 -122 265 -95 260 -75 c 0
 250 -35 210 25 180 65 c 9
 190 80 l 25
 277 5 l 17
 282 75 285 180 285 340 c 3
 285 585 280 645 270 665 c 0
 260 685 235 698 220 700 c 9
EndSplineSet
Fore
SplineSet
95 315 m 17
 85 330 80 340 80 355 c 3
 80 405 155 470 330 500 c 1
 350 500 375 470 375 455 c 3
 375 435 335 395 300 345 c 1
 290 320 l 1
 310 305 l 1
 440 445 605 560 715 560 c 3
 765 560 795 510 795 455 c 3
 795 370 740 155 740 60 c 3
 740 25 755 5 780 5 c 3
 835 5 895 60 950 175 c 9
 970 170 l 17
 925 20 865 -65 760 -65 c 3
 715 -65 675 -30 675 30 c 3
 675 125 725 365 725 445 c 3
 725 495 700 518 680 518 c 3
 605 518 450 405 315 270 c 9
 295 265 l 17
 155 90 120 0 102 0 c 3
 85 0 65 25 65 40 c 3
 65 65 129 120 285 325 c 1
 295 355 l 1
 285 430 l 1
 215 420 113 385 113 338 c 3
 113 333 114 325 115 320 c 9
 95 315 l 17
210 700 m 9
 215 720 l 17
 295 718 345 669 345 650 c 3
 345 643 337 637 332 612 c 0
 327 587 318 495 318 260 c 3
 318 80 324 -5 324 -55 c 3
 324 -90 290 -122 265 -122 c 3
 250 -122 255 -95 250 -75 c 0
 240 -35 200 25 170 65 c 9
 180 80 l 25
 267 5 l 17
 272 75 275 180 275 340 c 3
 275 585 270 645 260 665 c 0
 250 685 225 698 210 700 c 9
EndSplineSet
EndChar

StartChar: uni308D
Encoding: 12429 12429 84
Width: 1000
Flags: HMW
LayerCount: 3
Back
SplineSet
245 683 m 17
 250 660 267 640 290 640 c 3
 335 640 450 670 510 690 c 0
 540 700 565 715 580 715 c 3
 610 715 672 663 672 640 c 3
 672 620 620 605 325 260 c 1
 400 320 510 375 630 375 c 3
 750 375 858 292 858 175 c 3
 858 -30 610 -120 375 -125 c 9
 370 -105 l 17
 550 -80 783 -10 783 180 c 3
 783 262 710 335 600 335 c 3
 485 335 345 260 265 180 c 0
 200 115 188 85 173 85 c 3
 153 85 133 110 133 130 c 3
 133 150 230 225 400 415 c 0
 485 510 585 638 585 658 c 3
 585 663 580 668 573 668 c 3
 535 668 380 600 340 580 c 0
 320 570 309 560 298 560 c 3
 273 560 232 615 225 673 c 9
 245 683 l 17
EndSplineSet
Fore
SplineSet
245 683 m 17
 250 660 267 640 290 640 c 3
 335 640 450 670 510 690 c 0
 540 700 565 715 580 715 c 3
 610 715 672 663 672 640 c 3
 672 620 620 605 325 260 c 1
 400 320 510 375 630 375 c 3
 750 375 858 292 858 175 c 3
 858 -30 610 -120 375 -125 c 9
 370 -105 l 17
 550 -80 783 -10 783 180 c 3
 783 262 710 335 600 335 c 3
 485 335 345 260 265 180 c 0
 200 115 188 85 173 85 c 3
 153 85 133 110 133 130 c 3
 133 150 230 225 400 415 c 0
 485 510 585 638 585 658 c 3
 585 663 580 668 573 668 c 3
 535 668 380 600 340 580 c 0
 320 570 309 560 298 560 c 3
 273 560 232 615 225 673 c 9
 245 683 l 17
EndSplineSet
EndChar

StartChar: uni308E
Encoding: 12430 12430 85
Width: 1000
Flags: HMW
LayerCount: 3
Back
SplineSet
143 323 m 9
 155 337 l 17
 163 328 176 320 187 320 c 3
 246 320 370 385 390 385 c 3
 400 385 427 355 427 340 c 3
 427 325 395 275 369 230 c 9
 369 210 l 17
 445 300 557 358 669 358 c 3
 780 358 865 275 865 170 c 3
 865 -10 697 -95 510 -120 c 9
 505 -100 l 17
 650 -60 795 10 795 170 c 3
 795 250 730 315 644 315 c 3
 552 315 455 262 365 175 c 9
 344 166 l 17
 230 43 187 -45 166 -45 c 3
 153 -45 137 -24 137 -7 c 3
 137 14 200 56 352 246 c 9
 352 332 l 17
 250 295 227 260 208 260 c 3
 190 260 157 295 143 323 c 9
282 540 m 9
 286 560 l 17
 365 554 400 508 400 487 c 3
 400 480 391 474 387 453 c 0
 383 432 378 360 378 190 c 3
 378 27 385 -62 385 -104 c 3
 385 -130 358 -160 335 -160 c 3
 316 -160 322 -132 305 -98 c 0
 297 -81 271 -43 250 -22 c 9
 260 -7 l 25
 330 -60 l 17
 333 3 337 128 337 259 c 3
 337 458 331 507 314 524 c 0
 306 532 292 538 282 540 c 9
EndSplineSet
Fore
SplineSet
143 323 m 9
 155 337 l 17
 163 328 176 320 187 320 c 3
 246 320 370 385 390 385 c 3
 400 385 427 355 427 340 c 3
 427 325 395 275 369 230 c 9
 369 210 l 17
 445 300 557 358 669 358 c 3
 780 358 865 275 865 170 c 3
 865 -10 697 -95 510 -120 c 9
 505 -100 l 17
 650 -60 795 10 795 170 c 3
 795 250 730 315 644 315 c 3
 552 315 455 262 365 175 c 9
 344 166 l 17
 230 43 187 -45 166 -45 c 3
 153 -45 137 -24 137 -7 c 3
 137 14 200 56 352 246 c 9
 352 332 l 17
 250 295 227 260 208 260 c 3
 190 260 157 295 143 323 c 9
282 540 m 9
 286 560 l 17
 365 554 400 508 400 487 c 3
 400 480 391 474 387 453 c 0
 383 432 378 360 378 190 c 3
 378 27 385 -62 385 -104 c 3
 385 -130 358 -160 335 -160 c 3
 316 -160 322 -132 305 -98 c 0
 297 -81 271 -43 250 -22 c 9
 260 -7 l 25
 330 -60 l 17
 333 3 337 128 337 259 c 3
 337 458 331 507 314 524 c 0
 306 532 292 538 282 540 c 9
EndSplineSet
Substitution2: "'aalt' Access All Alternates lookup 0-subtable" u10FFF9
Substitution2: "'vert' Vertical Alternates (obs) lookup 1-subtable" u10FFF9
Substitution2: "'vkna' Vertical Kana Alternates lookup 2-subtable" u10FFF9
EndChar

StartChar: uni308F
Encoding: 12431 12431 86
Width: 1000
Flags: HMW
LayerCount: 3
Back
SplineSet
80 445 m 9
 90 460 l 17
 100 450 120 440 130 440 c 3
 200 440 340 515 370 515 c 3
 380 515 410 480 410 465 c 3
 410 450 375 390 345 335 c 9
 345 310 l 17
 435 415 570 485 700 485 c 3
 830 485 930 385 930 265 c 3
 930 55 735 -45 515 -75 c 9
 510 -55 l 17
 680 -10 855 75 855 265 c 3
 855 360 780 440 670 440 c 3
 560 440 440 375 335 270 c 9
 315 260 l 17
 180 115 130 10 105 10 c 3
 90 10 70 35 70 55 c 3
 70 80 145 130 325 355 c 9
 325 460 l 17
 205 415 175 375 155 375 c 3
 135 375 95 415 80 445 c 9
245 705 m 9
 250 725 l 17
 335 715 379 665 379 640 c 3
 379 633 369 625 364 600 c 0
 359 575 353 490 353 285 c 3
 353 95 362 -10 362 -60 c 3
 362 -90 330 -125 305 -125 c 3
 285 -125 290 -90 270 -50 c 0
 260 -30 230 15 205 40 c 9
 215 55 l 25
 302 -10 l 17
 305 65 310 215 310 370 c 3
 310 605 302 665 282 685 c 0
 272 695 257 702 245 705 c 9
EndSplineSet
Fore
SplineSet
80 445 m 9
 90 460 l 17
 100 450 120 440 130 440 c 3
 200 440 340 515 370 515 c 3
 380 515 410 480 410 465 c 3
 410 450 375 390 345 335 c 9
 345 310 l 17
 435 415 570 485 700 485 c 3
 830 485 930 385 930 265 c 3
 930 55 735 -45 515 -75 c 9
 510 -55 l 17
 680 -10 855 75 855 265 c 3
 855 360 780 440 670 440 c 3
 560 440 440 375 335 270 c 9
 315 260 l 17
 180 115 130 10 105 10 c 3
 90 10 70 35 70 55 c 3
 70 80 145 130 325 355 c 9
 325 460 l 17
 205 415 175 375 155 375 c 3
 135 375 95 415 80 445 c 9
245 705 m 9
 250 725 l 17
 335 715 379 665 379 640 c 3
 379 633 369 625 364 600 c 0
 359 575 353 490 353 285 c 3
 353 95 362 -10 362 -60 c 3
 362 -90 330 -125 305 -125 c 3
 285 -125 290 -90 270 -50 c 0
 260 -30 230 15 205 40 c 9
 215 55 l 25
 302 -10 l 17
 305 65 310 215 310 370 c 3
 310 605 302 665 282 685 c 0
 272 695 257 702 245 705 c 9
EndSplineSet
EndChar

StartChar: uni3090
Encoding: 12432 12432 87
Width: 1000
Flags: HMW
LayerCount: 3
Back
SplineSet
435 320 m 0
 355 120 315 -55 255 -55 c 3
 200 -55 120 45 120 110 c 3
 120 255 450 450 665 450 c 3
 780 450 885 355 885 215 c 3
 885 25 760 -105 600 -105 c 3
 495 -105 450 -50 450 0 c 3
 450 52 500 90 560 90 c 3
 620 90 695 50 730 -10 c 1
 705 -35 l 1
 675 -45 l 1
 650 5 600 55 545 55 c 3
 510 55 485 35 485 5 c 3
 485 -26 515 -60 580 -60 c 3
 730 -60 810 55 810 225 c 3
 810 335 745 410 635 410 c 3
 480 410 165 240 165 120 c 3
 165 80 210 15 240 15 c 3
 275 15 315 145 395 345 c 0
 455 495 500 618 500 648 c 3
 500 653 495 658 488 658 c 3
 460 658 390 625 340 595 c 0
 315 580 310 575 300 575 c 3
 280 575 235 620 225 675 c 9
 242 685 l 17
 250 665 265 650 285 650 c 3
 325 650 420 675 470 695 c 0
 495 705 500 712 510 712 c 3
 530 712 590 665 590 645 c 3
 590 630 555 620 435 320 c 0
EndSplineSet
Fore
SplineSet
435 320 m 0
 355 120 315 -55 255 -55 c 3
 200 -55 120 45 120 110 c 3
 120 255 450 450 665 450 c 3
 780 450 885 355 885 215 c 3
 885 25 760 -105 600 -105 c 3
 495 -105 450 -50 450 0 c 3
 450 52 500 90 560 90 c 3
 620 90 695 50 730 -10 c 1
 705 -35 l 1
 675 -45 l 1
 650 5 600 55 545 55 c 3
 510 55 485 35 485 5 c 3
 485 -26 515 -60 580 -60 c 3
 730 -60 810 55 810 225 c 3
 810 335 745 410 635 410 c 3
 480 410 165 240 165 120 c 3
 165 80 210 15 240 15 c 3
 275 15 315 145 395 345 c 0
 455 495 500 618 500 648 c 3
 500 653 495 658 488 658 c 3
 460 658 390 625 340 595 c 0
 315 580 310 575 300 575 c 3
 280 575 235 620 225 675 c 9
 242 685 l 17
 250 665 265 650 285 650 c 3
 325 650 420 675 470 695 c 0
 495 705 500 712 510 712 c 3
 530 712 590 665 590 645 c 3
 590 630 555 620 435 320 c 0
EndSplineSet
EndChar

StartChar: uni3091
Encoding: 12433 12433 88
Width: 1000
Flags: HMW
LayerCount: 3
Back
SplineSet
650 -70 m 17
 779 -35 795 -25 795 -10 c 3
 795 10 760 80 685 80 c 3
 635 80 555 35 535 -65 c 0
 531 -85 490 -95 475 -95 c 3
 450 -95 450 40 350 40 c 3
 315 40 265 15 235 -15 c 0
 170 -80 150 -125 130 -125 c 3
 110 -125 90 -100 90 -80 c 3
 90 -55 200 10 300 90 c 0
 400 170 495 240 495 280 c 3
 495 295 480 310 460 310 c 3
 430 310 400 290 400 265 c 3
 400 245 430 225 485 225 c 3
 605 225 680 290 680 370 c 3
 680 420 635 470 550 470 c 3
 485 470 420 445 360 385 c 0
 305 330 285 290 265 290 c 3
 250 290 230 315 230 330 c 3
 230 350 325 420 425 510 c 0
 525 600 585 660 585 675 c 3
 585 678 583 680 580 680 c 3
 550 680 465 640 415 610 c 0
 400 601 392 595 382 595 c 3
 357 595 312 640 302 690 c 9
 320 700 l 17
 325 680 345 665 365 665 c 3
 400 665 495 690 545 710 c 0
 570 720 575 725 585 725 c 3
 610 725 665 675 665 650 c 3
 665 630 615 640 415 450 c 1
 465 485 520 500 570 500 c 3
 665 500 745 445 745 365 c 3
 745 260 640 188 500 188 c 3
 410 188 365 221 365 260 c 3
 365 300 420 340 480 340 c 3
 515 340 540 315 540 290 c 3
 540 235 430 160 325 55 c 1
 335 60 355 70 385 70 c 3
 465 70 485 -10 495 -10 c 3
 505 -10 590 115 705 115 c 3
 805 115 895 -20 895 -60 c 3
 895 -75 875 -100 855 -100 c 3
 835 -100 835 -75 790 -75 c 3
 770 -75 720 -80 655 -90 c 9
 650 -70 l 17
EndSplineSet
Fore
SplineSet
650 -70 m 17
 779 -35 795 -25 795 -10 c 3
 795 10 760 80 685 80 c 3
 635 80 555 35 535 -65 c 0
 531 -85 490 -95 475 -95 c 3
 450 -95 450 40 350 40 c 3
 315 40 265 15 235 -15 c 0
 170 -80 150 -125 130 -125 c 3
 110 -125 90 -100 90 -80 c 3
 90 -55 200 10 300 90 c 0
 400 170 495 240 495 280 c 3
 495 295 480 310 460 310 c 3
 430 310 400 290 400 265 c 3
 400 245 430 225 485 225 c 3
 605 225 680 290 680 370 c 3
 680 420 635 470 550 470 c 3
 485 470 420 445 360 385 c 0
 305 330 285 290 265 290 c 3
 250 290 230 315 230 330 c 3
 230 350 325 420 425 510 c 0
 525 600 585 660 585 675 c 3
 585 678 583 680 580 680 c 3
 550 680 465 640 415 610 c 0
 400 601 392 595 382 595 c 3
 357 595 312 640 302 690 c 9
 320 700 l 17
 325 680 345 665 365 665 c 3
 400 665 495 690 545 710 c 0
 570 720 575 725 585 725 c 3
 610 725 665 675 665 650 c 3
 665 630 615 640 415 450 c 1
 465 485 520 500 570 500 c 3
 665 500 745 445 745 365 c 3
 745 260 640 188 500 188 c 3
 410 188 365 221 365 260 c 3
 365 300 420 340 480 340 c 3
 515 340 540 315 540 290 c 3
 540 235 430 160 325 55 c 1
 335 60 355 70 385 70 c 3
 465 70 485 -10 495 -10 c 3
 505 -10 590 115 705 115 c 3
 805 115 895 -20 895 -60 c 3
 895 -75 875 -100 855 -100 c 3
 835 -100 835 -75 790 -75 c 3
 770 -75 720 -80 655 -90 c 9
 650 -70 l 17
EndSplineSet
EndChar

StartChar: uni3092
Encoding: 12434 12434 89
Width: 1000
Flags: HMW
LayerCount: 3
Back
SplineSet
272 4 m 3
 272 132 475 237 725 347 c 0
 750 358 770 372 770 382 c 3
 770 397 755 412 740 422 c 9
 755 437 l 17
 805 412 850 362 850 332 c 3
 850 317 809 314 750 292 c 0
 420 172 315 97 315 12 c 3
 315 -43 385 -65 510 -65 c 3
 635 -65 695 -43 715 -43 c 3
 733 -43 765 -73 765 -88 c 3
 765 -110 665 -123 530 -123 c 3
 350 -123 272 -68 272 4 c 3
530 235 m 3
 530 75 525 25 500 25 c 3
 485 25 459 41 459 55 c 3
 459 65 470 135 470 245 c 3
 470 310 450 355 405 355 c 3
 370 355 315 320 285 290 c 0
 225 230 193 167 173 167 c 3
 158 167 142 196 142 210 c 3
 142 236 185 240 325 460 c 0
 395 570 434 658 434 674 c 3
 434 686 415 701 392 701 c 3
 391 701 387 701 382 700 c 9
 379 721 l 17
 389 724 402 725 412 725 c 3
 462 725 515 693 515 676 c 3
 515 668 507 666 492 645 c 0
 482 631 405 490 280 320 c 1
 325 362 380 390 430 390 c 3
 490 390 530 330 530 235 c 3
585 610 m 3
 600 610 625 595 625 580 c 3
 625 560 475 499 300 499 c 3
 253 499 200 537 175 582 c 9
 190 592 l 17
 215 567 260 547 305 547 c 3
 470 547 568 610 585 610 c 3
EndSplineSet
Fore
SplineSet
272 4 m 3
 272 132 475 237 725 347 c 0
 750 358 770 372 770 382 c 3
 770 397 755 412 740 422 c 9
 755 437 l 17
 805 412 850 362 850 332 c 3
 850 317 809 314 750 292 c 0
 420 172 315 97 315 12 c 3
 315 -43 385 -65 510 -65 c 3
 635 -65 695 -43 715 -43 c 3
 733 -43 765 -73 765 -88 c 3
 765 -110 665 -123 530 -123 c 3
 350 -123 272 -68 272 4 c 3
530 235 m 3
 530 75 525 25 500 25 c 3
 485 25 459 41 459 55 c 3
 459 65 470 135 470 245 c 3
 470 310 450 355 405 355 c 3
 370 355 315 320 285 290 c 0
 225 230 193 167 173 167 c 3
 158 167 142 196 142 210 c 3
 142 236 185 240 325 460 c 0
 395 570 434 658 434 674 c 3
 434 686 415 701 392 701 c 3
 391 701 387 701 382 700 c 9
 379 721 l 17
 389 724 402 725 412 725 c 3
 462 725 515 693 515 676 c 3
 515 668 507 666 492 645 c 0
 482 631 405 490 280 320 c 1
 325 362 380 390 430 390 c 3
 490 390 530 330 530 235 c 3
585 610 m 3
 600 610 625 595 625 580 c 3
 625 560 475 499 300 499 c 3
 253 499 200 537 175 582 c 9
 190 592 l 17
 215 567 260 547 305 547 c 3
 470 547 568 610 585 610 c 3
EndSplineSet
EndChar

StartChar: uni3093
Encoding: 12435 12435 90
Width: 1000
Flags: HMW
LayerCount: 3
Back
SplineSet
300 205 m 1
 350 265 400 292 452 292 c 3
 520 292 550 235 570 100 c 0
 581.815 20.248 600 -45 665 -45 c 3
 790 -45 880 135 925 295 c 9
 945 290 l 17
 925 110 825 -108 675 -108 c 3
 580 -108 520 -60 505 90 c 0
 495 190 480 250 420 250 c 3
 365 250 295 180 235 80 c 0
 175 -20 165 -95 135 -95 c 3
 115 -95 95 -70 95 -50 c 3
 95 -20 177.162 93.7237 265 245 c 0
 355 400 483 629 483 664 c 3
 483 679 469 700 445 710 c 9
 455 725 l 17
 530 707 570 655 570 635 c 3
 570 625 556 615 540 595 c 0
 500 545 395 380 300 205 c 1
EndSplineSet
Fore
SplineSet
289 205 m 1
 339 265 390 292 442 292 c 3
 510 292 540 235 560 100 c 0
 572 20 590 -45 655 -45 c 3
 780 -45 870 135 915 295 c 1
 935 290 l 1
 915 110 815 -108 665 -108 c 3
 570 -108 510 -60 495 90 c 0
 485 190 470 250 410 250 c 3
 355 250 284 180 224 80 c 0
 165 -20 155 -95 125 -95 c 3
 105 -95 85 -70 85 -50 c 3
 85 -20 165 95 253 245 c 0
 346 403 470 624 470 659 c 3
 470 674 456 695 432 705 c 1
 442 720 l 1
 517 702 557 650 557 630 c 3
 557 620 543 610 527 590 c 0
 487 541 383 378 289 205 c 1
EndSplineSet
EndChar

StartChar: uni3095
Encoding: 12437 12437 92
Width: 1000
Flags: HMW
LayerCount: 3
Back
SplineSet
670 350 m 9
 683 370 l 17
 780 332 865 240 865 147 c 3
 865 127 843 100 830 100 c 3
 813 100 812 121 787 121 c 3
 779 121 730 118 700 115 c 9
 693 135 l 17
 765 155 793 167 793 187 c 3
 793 221 760 295 670 350 c 9
422 327 m 0
 321 73 233 -140 196 -140 c 3
 181 -140 164 -122 164 -104 c 3
 164 -80 211 -43 342 253 c 0
 393 367 422 477 422 501 c 3
 422 517 403 528 378 530 c 9
 382 550 l 17
 386 551 399 553 407 553 c 3
 460 553 507 520 507 500 c 3
 507 493 498.209 486.858 490 475 c 0
 481 462 456 411 422 327 c 0
170 340 m 17
 176 321 187 308 204 308 c 3
 255 308 395 367 496 367 c 3
 555 367 602 305 602 211 c 3
 602 86 550 -57 502 -105 c 0
 475 -132 442 -145 417 -145 c 3
 405 -145 401 -134 397 -121 c 0
 391 -103 370 -85 327 -60 c 9
 337 -42 l 17
 375 -59 411 -73 432 -73 c 3
 445 -73 454 -68 462 -60 c 0
 508 -14 553 133 553 230 c 3
 553 290 525 332 483 332 c 3
 420 332 324 295 290 278 c 0
 256 261 233 237 220 237 c 3
 200 237 161 273 151 330 c 9
 170 340 l 17
EndSplineSet
Fore
SplineSet
670 350 m 9
 683 370 l 17
 780 332 865 240 865 147 c 3
 865 127 843 100 830 100 c 3
 813 100 812 121 787 121 c 3
 779 121 730 118 700 115 c 9
 693 135 l 17
 765 155 793 167 793 187 c 3
 793 221 760 295 670 350 c 9
422 327 m 0
 321 73 233 -140 196 -140 c 3
 181 -140 164 -122 164 -104 c 3
 164 -80 211 -43 342 253 c 0
 393 367 422 477 422 501 c 3
 422 517 403 528 378 530 c 9
 382 550 l 17
 386 551 399 553 407 553 c 3
 460 553 507 520 507 500 c 3
 507 493 498 487 490 475 c 0
 481 462 456 411 422 327 c 0
170 340 m 17
 176 321 187 308 204 308 c 3
 255 308 395 367 496 367 c 3
 555 367 602 305 602 211 c 3
 602 86 550 -57 502 -105 c 0
 475 -132 442 -145 417 -145 c 3
 405 -145 401 -134 397 -121 c 0
 391 -103 370 -85 327 -60 c 9
 337 -42 l 17
 375 -59 411 -73 432 -73 c 3
 445 -73 454 -68 462 -60 c 0
 508 -14 553 133 553 230 c 3
 553 290 525 332 483 332 c 3
 420 332 324 295 290 278 c 0
 256 261 233 237 220 237 c 3
 200 237 161 273 151 330 c 9
 170 340 l 17
EndSplineSet
Substitution2: "'aalt' Access All Alternates lookup 0-subtable" u10FFFA
Substitution2: "'vert' Vertical Alternates (obs) lookup 1-subtable" u10FFFA
Substitution2: "'vkna' Vertical Kana Alternates lookup 2-subtable" u10FFFA
EndChar

StartChar: uni3096
Encoding: 12438 12438 93
Width: 1000
Flags: HMW
LayerCount: 3
Back
SplineSet
240.75 535.75 m 9
 253.5 548.5 l 17
 296 518.75 335.95 463.5 335.95 442.25 c 3
 335.95 432.05 328.3 426.1 313 399.75 c 0
 279 340.25 245 238.25 245 140.5 c 3
 245 89.5 249.25 47 257.75 21.5 c 9
 364 246.75 l 25
 381 238.25 l 17
 334.25 127.75 291.75 0.25 291.75 -42.25 c 3
 291.75 -72 304.5 -84.75 304.5 -97.5 c 3
 304.5 -114.5 287.5 -131.5 270.5 -131.5 c 3
 245 -131.5 206.75 -8.25 206.75 103.95 c 3
 206.75 293.5 270.5 425.25 270.5 472 c 3
 270.5 493.25 257.75 518.75 240.75 535.75 c 9
657.25 514.5 m 0
 654.7 527.25 637.7 540 610.5 540 c 9
 606.25 557 l 17
 614.75 559.55 630.9 561.25 639.4 561.25 c 3
 687 561.25 729.5 535.75 729.5 518.75 c 3
 729.5 512.8 723.55 501.75 721 489 c 0
 716.75 467.75 714.2 404 714.2 348.75 c 3
 714.2 272.25 716.75 229.75 716.75 170.25 c 3
 716.75 47 670 -101.75 495.75 -165.5 c 9
 487.25 -152.75 l 17
 623.25 -72 665.75 34.25 665.75 255.25 c 9
 665.75 340.25 l 17
 665.75 459.25 661.5 493.25 657.25 514.5 c 0
818.75 395.5 m 3
 831.5 395.5 848.5 375.95 848.5 363.2 c 3
 848.5 344.5 678.5 297.75 555.25 297.75 c 3
 525.5 297.75 491.5 327.5 466 361.5 c 9
 474.5 374.25 l 17
 500 353 534 340.25 563.75 340.25 c 3
 704 340.25 806 395.5 818.75 395.5 c 3
1060 534 m 9
 1075 548 l 17
 1118 518 1160 465 1160 441 c 3
 1160 430 1150 421 1135 395 c 0
 1101 336 1069 238 1069 141 c 3
 1069 95 1074 55 1080 30 c 9
 1185 250 l 25
 1204 240 l 17
 1157 130 1115 0 1115 -40 c 3
 1115 -70 1128 -84 1128 -97 c 3
 1128 -115 1110 -132 1092 -132 c 3
 1065 -132 1025 -15 1025 105 c 3
 1025 290 1090 424 1090 470 c 3
 1090 491 1077 517 1060 534 c 9
1465 513 m 0
 1461.76 525.943 1445 535 1420 535 c 9
 1415 556 l 17
 1423 559 1442 561 1450 561 c 3
 1500 561 1544 535 1544 517 c 3
 1544 511 1537 498 1534 485 c 0
 1530 464 1527 403 1527 348 c 3
 1527 272 1530 229 1530 170 c 3
 1530 40 1480 -100 1305 -164 c 9
 1295 -150 l 17
 1430 -70 1474 40 1474 255 c 9
 1474 340 l 17
 1474 458 1469 497 1465 513 c 0
1627 397 m 3
 1640 397 1660 377 1660 364 c 3
 1660 337 1490 298 1380 298 c 3
 1350 298 1315 327 1290 364 c 9
 1300 379 l 17
 1325 357 1358 346 1388 346 c 3
 1523 346 1614 397 1627 397 c 3
EndSplineSet
Fore
SplineSet
240 534 m 9
 255 548 l 17
 298 518 340 465 340 441 c 3
 340 430 330 421 315 395 c 0
 281 336 249 238 249 141 c 3
 249 95 254 55 260 30 c 9
 365 250 l 25
 384 240 l 17
 337 130 295 0 295 -40 c 3
 295 -70 308 -84 308 -97 c 3
 308 -115 290 -132 272 -132 c 3
 245 -132 205 -15 205 105 c 3
 205 290 270 424 270 470 c 3
 270 491 257 517 240 534 c 9
655 513 m 0
 652 526 635 535 610 535 c 9
 605 556 l 17
 613 559 632 561 640 561 c 3
 690 561 734 535 734 517 c 3
 734 511 727 498 724 485 c 0
 720 464 717 403 717 348 c 3
 717 272 720 229 720 170 c 3
 720 40 670 -100 495 -164 c 9
 485 -150 l 17
 620 -70 664 40 664 255 c 9
 664 340 l 17
 664 458 659 497 655 513 c 0
817 397 m 3
 830 397 850 377 850 364 c 3
 850 337 670 295 555 295 c 3
 525 295 490 324 465 361 c 9
 475 376 l 17
 500 354 533 343 563 343 c 3
 703 343 804 397 817 397 c 3
EndSplineSet
Substitution2: "'aalt' Access All Alternates lookup 0-subtable" u10FFFB
Substitution2: "'vert' Vertical Alternates (obs) lookup 1-subtable" u10FFFB
Substitution2: "'vkna' Vertical Kana Alternates lookup 2-subtable" u10FFFB
EndChar

StartChar: uni3099
Encoding: 12441 12441 94
Width: 1000
Flags: HMW
LayerCount: 3
Back
SplineSet
710 683 m 9
 725 698 l 17
 815 660 855 600 855 573 c 3
 855 560 835 540 815 540 c 3
 790 540 790 618 710 683 c 9
800 740 m 9
 815 755 l 17
 900 729 955 670 955 640 c 3
 955 625 935 605 915 605 c 3
 895 605 885 685 800 740 c 9
EndSplineSet
Fore
SplineSet
710 683 m 9
 725 698 l 17
 815 660 855 600 855 573 c 3
 855 560 835 540 815 540 c 3
 790 540 790 618 710 683 c 9
800 740 m 9
 815 755 l 17
 900 729 955 670 955 640 c 3
 955 625 935 605 915 605 c 3
 895 605 885 685 800 740 c 9
EndSplineSet
EndChar

StartChar: uni309A
Encoding: 12442 12442 95
Width: 0
Flags: HMW
AnchorPoint: "Dakuten" 925 725 basechar 0
LayerCount: 3
Back
SplineSet
747 645 m 0
 747 699 791 743 845 743 c 0
 899 743 943 699 943 645 c 0
 943 591 899 547 845 547 c 0
 791 547 747 591 747 645 c 0
777 645 m 0
 777 607 807 577 845 577 c 0
 883 577 913 607 913 645 c 0
 913 683 883 713 845 713 c 0
 807 713 777 683 777 645 c 0
EndSplineSet
Fore
SplineSet
747 645 m 0
 747 699 791 743 845 743 c 0
 899 743 943 699 943 645 c 0
 943 591 899 547 845 547 c 0
 791 547 747 591 747 645 c 0
777 645 m 0
 777 607 807 577 845 577 c 0
 883 577 913 607 913 645 c 0
 913 683 883 713 845 713 c 0
 807 713 777 683 777 645 c 0
EndSplineSet
EndChar

StartChar: uni309B
Encoding: 12443 12443 96
Width: 1000
Flags: HMW
LayerCount: 3
Back
SplineSet
40 683 m 9
 55 698 l 17
 145 660 185 600 185 573 c 3
 185 560 165 540 145 540 c 3
 120 540 120 618 40 683 c 9
130 740 m 9
 145 755 l 17
 230 729 285 670 285 640 c 3
 285 625 265 605 245 605 c 3
 225 605 215 685 130 740 c 9
EndSplineSet
Fore
SplineSet
40 683 m 9
 55 698 l 17
 145 660 185 600 185 573 c 3
 185 560 165 540 145 540 c 3
 120 540 120 618 40 683 c 9
130 740 m 9
 145 755 l 17
 230 729 285 670 285 640 c 3
 285 625 265 605 245 605 c 3
 225 605 215 685 130 740 c 9
EndSplineSet
EndChar

StartChar: uni309C
Encoding: 12444 12444 97
Width: 1000
Flags: HMW
LayerCount: 3
Back
SplineSet
57 645 m 0
 57 699 101 743 155 743 c 0
 209 743 253 699 253 645 c 0
 253 591 209 547 155 547 c 0
 101 547 57 591 57 645 c 0
87 645 m 0
 87 607 117 577 155 577 c 0
 193 577 223 607 223 645 c 0
 223 683 193 713 155 713 c 0
 117 713 87 683 87 645 c 0
EndSplineSet
Fore
SplineSet
57 645 m 0
 57 699 101 743 155 743 c 0
 209 743 253 699 253 645 c 0
 253 591 209 547 155 547 c 0
 101 547 57 591 57 645 c 0
87 645 m 0
 87 607 117 577 155 577 c 0
 193 577 223 607 223 645 c 0
 223 683 193 713 155 713 c 0
 117 713 87 683 87 645 c 0
EndSplineSet
EndChar

StartChar: uni309D
Encoding: 12445 12445 98
Width: 1000
Flags: HMW
LayerCount: 3
Back
SplineSet
340 585 m 17
 352 460 440 390 530 330 c 0
 620 270 675 225 675 185 c 3
 675 170 655 140 635 140 c 3
 620 140 615 150 585 150 c 3
 555 150 470 110 375 60 c 9
 365 78 l 17
 500 175 550 205 550 220 c 1
 550 260 325 335 320 575 c 9
 340 585 l 17
EndSplineSet
Fore
SplineSet
340 585 m 17
 352 460 440 390 530 330 c 0
 620 270 675 225 675 185 c 3
 675 170 655 140 635 140 c 3
 620 140 615 150 585 150 c 3
 555 150 470 110 375 60 c 9
 365 78 l 17
 500 175 550 205 550 220 c 1
 550 260 325 335 320 575 c 9
 340 585 l 17
EndSplineSet
EndChar

StartChar: uni309F
Encoding: 12447 12447 100
Width: 1000
Flags: HMW
LayerCount: 3
Back
SplineSet
770 510 m 3
 790 510 815 490 815 475 c 3
 815 445 650 412 545 412 c 3
 500 412 465 435 440 460 c 9
 455 486 l 17
 480 470 505 460 535 460 c 3
 680 460 750 510 770 510 c 3
203 -70 m 0
 188 -70 165 -45 165 -25 c 3
 165 0 195.193 71.8965 245 170 c 0
 410 495 465 625 465 655 c 3
 465 670 450 695 420 705 c 9
 430 720 l 17
 500 715 550 660 550 640 c 3
 550 615 505 610 300 160 c 1
 380 230 485 283 590 283 c 3
 685 283 755 220 755 125 c 3
 755 0 655 -115 535 -115 c 3
 460 -115 395 -70 360 25 c 9
 375 35 l 17
 415 -30 465 -60 525 -60 c 3
 610 -60 685 35 685 135 c 3
 685 200 635 245 570 245 c 3
 445 245 322.21 155.815 285 100 c 0
 225 10 235 -70 203 -70 c 0
EndSplineSet
Fore
SplineSet
770 510 m 3
 790 510 815 490 815 475 c 3
 815 445 650 412 545 412 c 3
 500 412 465 435 440 460 c 9
 455 486 l 17
 480 470 505 460 535 460 c 3
 680 460 750 510 770 510 c 3
203 -70 m 0
 188 -70 165 -45 165 -25 c 3
 165 0 195 72 245 170 c 0
 410 495 465 625 465 655 c 3
 465 670 450 695 420 705 c 9
 430 720 l 17
 500 715 550 660 550 640 c 3
 550 615 505 610 300 160 c 1
 380 230 485 283 590 283 c 3
 685 283 755 220 755 125 c 3
 755 0 655 -115 535 -115 c 3
 460 -115 395 -70 360 25 c 9
 375 35 l 17
 415 -30 465 -60 525 -60 c 3
 610 -60 685 35 685 135 c 3
 685 200 635 245 570 245 c 3
 445 245 322 156 285 100 c 0
 225 10 235 -70 203 -70 c 0
EndSplineSet
EndChar

StartChar: uni30A0
Encoding: 12448 12448 101
Width: 1000
Flags: HMW
LayerCount: 3
Back
SplineSet
400 300 m 0
 400 355 445 400 500 400 c 0
 555 400 600 355 600 300 c 0
 600 245 555 200 500 200 c 0
 445 200 400 245 400 300 c 0
EndSplineSet
Fore
SplineSet
400 300 m 0
 400 355 445 400 500 400 c 0
 555 400 600 355 600 300 c 0
 600 245 555 200 500 200 c 0
 445 200 400 245 400 300 c 0
EndSplineSet
EndChar

StartChar: uni30A1
Encoding: 12449 12449 102
Width: 1000
Flags: HMW
LayerCount: 3
Back
SplineSet
400 300 m 0
 400 355 445 400 500 400 c 0
 555 400 600 355 600 300 c 0
 600 245 555 200 500 200 c 0
 445 200 400 245 400 300 c 0
EndSplineSet
Fore
SplineSet
400 300 m 0
 400 355 445 400 500 400 c 0
 555 400 600 355 600 300 c 0
 600 245 555 200 500 200 c 0
 445 200 400 245 400 300 c 0
EndSplineSet
EndChar

StartChar: uni30A2
Encoding: 12450 12450 103
Width: 1000
Flags: HMW
LayerCount: 3
Back
SplineSet
400 300 m 0
 400 355 445 400 500 400 c 0
 555 400 600 355 600 300 c 0
 600 245 555 200 500 200 c 0
 445 200 400 245 400 300 c 0
EndSplineSet
Fore
SplineSet
400 300 m 0
 400 355 445 400 500 400 c 0
 555 400 600 355 600 300 c 0
 600 245 555 200 500 200 c 0
 445 200 400 245 400 300 c 0
EndSplineSet
EndChar

StartChar: uni30A3
Encoding: 12451 12451 104
Width: 1000
Flags: HMW
LayerCount: 3
Back
SplineSet
400 300 m 0
 400 355 445 400 500 400 c 0
 555 400 600 355 600 300 c 0
 600 245 555 200 500 200 c 0
 445 200 400 245 400 300 c 0
EndSplineSet
Fore
SplineSet
400 300 m 0
 400 355 445 400 500 400 c 0
 555 400 600 355 600 300 c 0
 600 245 555 200 500 200 c 0
 445 200 400 245 400 300 c 0
EndSplineSet
EndChar

StartChar: uni30A4
Encoding: 12452 12452 105
Width: 1000
Flags: HMW
LayerCount: 3
Back
SplineSet
525 380 m 1
 540 395 610 350 610 330 c 3
 610 315 600 305 600 235 c 3
 600 135 602 0 602 -25 c 3
 602 -50 570 -78 550 -78 c 3
 540 -78 535 -65 535 -55 c 3
 535 -15 550 185 550 325 c 3
 550 350 545 365 525 380 c 1
617 662 m 9
 627 677 l 17
 705 662 750 610 750 588 c 3
 750 575 737.838 576.946 725 560 c 0
 600 395 430 215 140 130 c 9
 130 145 l 17
 475 300 657 575 657 620 c 3
 657 635 638 652 617 662 c 9
EndSplineSet
Fore
SplineSet
520 380 m 1
 540 395 608 350 608 330 c 3
 608 315 597 300 597 225 c 3
 597 115 600 0 600 -25 c 3
 600 -53 567 -83 545 -83 c 3
 535 -83 530 -70 530 -60 c 3
 530 -20 545 170 545 320 c 3
 545 345 540 365 520 380 c 1
622 667 m 9
 632 682 l 17
 710 667 755 615 755 593 c 3
 755 580 743 582 730 565 c 0
 605 400 430 230 145 140 c 9
 135 155 l 17
 475 315 662 580 662 625 c 3
 662 640 643 657 622 667 c 9
EndSplineSet
EndChar

StartChar: uni30A5
Encoding: 12453 12453 106
Width: 1000
Flags: HMW
LayerCount: 3
Back
SplineSet
400 300 m 0
 400 355 445 400 500 400 c 0
 555 400 600 355 600 300 c 0
 600 245 555 200 500 200 c 0
 445 200 400 245 400 300 c 0
EndSplineSet
Fore
SplineSet
400 300 m 0
 400 355 445 400 500 400 c 0
 555 400 600 355 600 300 c 0
 600 245 555 200 500 200 c 0
 445 200 400 245 400 300 c 0
EndSplineSet
EndChar

StartChar: uni30A6
Encoding: 12454 12454 107
Width: 1000
Flags: HMW
LayerCount: 3
Back
SplineSet
400 300 m 0
 400 355 445 400 500 400 c 0
 555 400 600 355 600 300 c 0
 600 245 555 200 500 200 c 0
 445 200 400 245 400 300 c 0
EndSplineSet
Fore
SplineSet
400 300 m 0
 400 355 445 400 500 400 c 0
 555 400 600 355 600 300 c 0
 600 245 555 200 500 200 c 0
 445 200 400 245 400 300 c 0
EndSplineSet
EndChar

StartChar: uni30A7
Encoding: 12455 12455 108
Width: 1000
Flags: HMW
LayerCount: 3
Back
SplineSet
400 300 m 0
 400 355 445 400 500 400 c 0
 555 400 600 355 600 300 c 0
 600 245 555 200 500 200 c 0
 445 200 400 245 400 300 c 0
EndSplineSet
Fore
SplineSet
400 300 m 0
 400 355 445 400 500 400 c 0
 555 400 600 355 600 300 c 0
 600 245 555 200 500 200 c 0
 445 200 400 245 400 300 c 0
EndSplineSet
EndChar

StartChar: uni30A8
Encoding: 12456 12456 109
Width: 1000
Flags: HMW
LayerCount: 3
Back
SplineSet
400 300 m 0
 400 355 445 400 500 400 c 0
 555 400 600 355 600 300 c 0
 600 245 555 200 500 200 c 0
 445 200 400 245 400 300 c 0
EndSplineSet
Fore
SplineSet
400 300 m 0
 400 355 445 400 500 400 c 0
 555 400 600 355 600 300 c 0
 600 245 555 200 500 200 c 0
 445 200 400 245 400 300 c 0
EndSplineSet
EndChar

StartChar: uni30A9
Encoding: 12457 12457 110
Width: 1000
Flags: HMW
LayerCount: 3
Back
SplineSet
400 300 m 0
 400 355 445 400 500 400 c 0
 555 400 600 355 600 300 c 0
 600 245 555 200 500 200 c 0
 445 200 400 245 400 300 c 0
EndSplineSet
Fore
SplineSet
400 300 m 0
 400 355 445 400 500 400 c 0
 555 400 600 355 600 300 c 0
 600 245 555 200 500 200 c 0
 445 200 400 245 400 300 c 0
EndSplineSet
EndChar

StartChar: uni30AA
Encoding: 12458 12458 111
Width: 1000
Flags: HMW
LayerCount: 3
Back
SplineSet
400 300 m 0
 400 355 445 400 500 400 c 0
 555 400 600 355 600 300 c 0
 600 245 555 200 500 200 c 0
 445 200 400 245 400 300 c 0
EndSplineSet
Fore
SplineSet
400 300 m 0
 400 355 445 400 500 400 c 0
 555 400 600 355 600 300 c 0
 600 245 555 200 500 200 c 0
 445 200 400 245 400 300 c 0
EndSplineSet
EndChar

StartChar: uni30AB
Encoding: 12459 12459 112
Width: 1000
Flags: HMW
LayerCount: 3
Back
SplineSet
400 300 m 0
 400 355 445 400 500 400 c 0
 555 400 600 355 600 300 c 0
 600 245 555 200 500 200 c 0
 445 200 400 245 400 300 c 0
EndSplineSet
Fore
SplineSet
400 300 m 0
 400 355 445 400 500 400 c 0
 555 400 600 355 600 300 c 0
 600 245 555 200 500 200 c 0
 445 200 400 245 400 300 c 0
EndSplineSet
EndChar

StartChar: uni30AC
Encoding: 12460 12460 113
Width: 1000
Flags: HMW
LayerCount: 3
Back
SplineSet
400 300 m 0
 400 355 445 400 500 400 c 0
 555 400 600 355 600 300 c 0
 600 245 555 200 500 200 c 0
 445 200 400 245 400 300 c 0
EndSplineSet
Fore
SplineSet
400 300 m 0
 400 355 445 400 500 400 c 0
 555 400 600 355 600 300 c 0
 600 245 555 200 500 200 c 0
 445 200 400 245 400 300 c 0
EndSplineSet
EndChar

StartChar: uni30AD
Encoding: 12461 12461 114
Width: 1000
Flags: HMW
LayerCount: 3
Back
SplineSet
400 300 m 0
 400 355 445 400 500 400 c 0
 555 400 600 355 600 300 c 0
 600 245 555 200 500 200 c 0
 445 200 400 245 400 300 c 0
EndSplineSet
Fore
SplineSet
400 300 m 0
 400 355 445 400 500 400 c 0
 555 400 600 355 600 300 c 0
 600 245 555 200 500 200 c 0
 445 200 400 245 400 300 c 0
EndSplineSet
EndChar

StartChar: uni30AE
Encoding: 12462 12462 115
Width: 1000
Flags: HMW
LayerCount: 3
Back
SplineSet
400 300 m 0
 400 355 445 400 500 400 c 0
 555 400 600 355 600 300 c 0
 600 245 555 200 500 200 c 0
 445 200 400 245 400 300 c 0
EndSplineSet
Fore
SplineSet
400 300 m 0
 400 355 445 400 500 400 c 0
 555 400 600 355 600 300 c 0
 600 245 555 200 500 200 c 0
 445 200 400 245 400 300 c 0
EndSplineSet
EndChar

StartChar: uni30AF
Encoding: 12463 12463 116
Width: 1000
Flags: HMW
LayerCount: 3
Back
SplineSet
485 500 m 1
 495 490 525 485 545 485 c 3
 570 485 670 495 695 500 c 0
 710 503 720 525 730 525 c 3
 750 525 807 485 807 465 c 3
 807 452 788.271 450.809 775 425 c 0
 685 250 510 10 165 -55 c 9
 160 -35 l 17
 550 90 697 420 697 451 c 3
 697 454 694 457 690 457 c 3
 637 457 560 440 535 440 c 3
 515 440 500 475 485 500 c 1
455 645 m 9
 462 665 l 17
 537 660 587 617 587 595 c 3
 587 582 574.223 579.155 565 560 c 0
 500 425 410 260 169 162 c 9
 160 180 l 17
 420 340 495 570 495 610 c 3
 495 627 480 640 455 645 c 9
807 680 m 25
 807 -80 l 1049
160 680 m 25
 160 -80 l 1049
797 680 m 25
 797 -80 l 1049
150 680 m 25
 150 -80 l 1049
EndSplineSet
Fore
SplineSet
485 500 m 1
 495 490 525 485 545 485 c 3
 570 485 670 495 695 500 c 0
 710 503 720 525 730 525 c 3
 750 525 807 485 807 465 c 3
 807 452 788 451 775 425 c 0
 695 260 506 15 165 -55 c 9
 160 -35 l 17
 550 100 697 415 697 451 c 3
 697 454 694 457 690 457 c 3
 637 457 560 440 535 440 c 3
 515 440 500 475 485 500 c 1
455 645 m 9
 462 665 l 17
 537 660 587 617 587 595 c 3
 587 582 574 579 565 560 c 0
 500 425 410 260 169 162 c 9
 160 180 l 17
 420 340 495 570 495 610 c 3
 495 627 480 640 455 645 c 9
EndSplineSet
EndChar

StartChar: uni30B0
Encoding: 12464 12464 117
Width: 1000
Flags: HMW
LayerCount: 3
Back
SplineSet
400 300 m 0
 400 355 445 400 500 400 c 0
 555 400 600 355 600 300 c 0
 600 245 555 200 500 200 c 0
 445 200 400 245 400 300 c 0
EndSplineSet
Fore
SplineSet
400 300 m 0
 400 355 445 400 500 400 c 0
 555 400 600 355 600 300 c 0
 600 245 555 200 500 200 c 0
 445 200 400 245 400 300 c 0
EndSplineSet
EndChar

StartChar: uni30B1
Encoding: 12465 12465 118
Width: 1000
Flags: HMW
LayerCount: 3
Back
SplineSet
530 410 m 1
 555 445 667 390 667 355 c 3
 667 343 655.236 337.298 645 310 c 0
 585 150 500 5 268 -72 c 9
 260 -55 l 17
 515 80 580 310 580 370 c 3
 580 395 550 410 530 410 c 1
835 418 m 3
 825 418 805 422 768 422 c 3
 630 422 445 380 415 380 c 3
 385 380 365 414 345 450 c 1
 355 440 385 425 410 425 c 3
 465 425 670 460 720 470 c 0
 760 478 770 490 780 490 c 3
 805 490 857 450 857 430 c 3
 857 424 850 418 835 418 c 3
360 643 m 9
 365 663 l 17
 435 662 490 622 490 600 c 3
 490 587 474.865 583.833 465 565 c 0
 410 460 320 335 155 250 c 9
 145 265 l 17
 340 415 395 585 395 610 c 3
 395 625 385 640 360 643 c 9
EndSplineSet
Fore
SplineSet
530 410 m 1
 555 445 667 390 667 355 c 3
 667 343 655 337 645 310 c 0
 585 150 500 5 268 -72 c 9
 260 -55 l 17
 515 80 580 310 580 370 c 3
 580 395 550 410 530 410 c 1
835 418 m 3
 825 418 805 422 768 422 c 3
 630 422 445 380 415 380 c 3
 385 380 365 414 345 450 c 1
 355 440 385 425 410 425 c 3
 465 425 670 460 720 470 c 0
 760 478 770 490 780 490 c 3
 805 490 857 450 857 430 c 3
 857 424 850 418 835 418 c 3
360 643 m 9
 365 663 l 17
 435 662 490 622 490 600 c 3
 490 587 475 584 465 565 c 0
 410 460 320 335 155 250 c 9
 145 265 l 17
 340 415 395 585 395 610 c 3
 395 625 385 640 360 643 c 9
EndSplineSet
EndChar

StartChar: uni30B2
Encoding: 12466 12466 119
Width: 1000
Flags: HMW
LayerCount: 3
Back
SplineSet
699 650 m 9
 713 667 l 17
 806 638 854 581 854 554 c 3
 854 541 836 519 817 519 c 3
 792 519 785 594 699 650 c 9
783 717 m 9
 797 733 l 17
 885 715 947 660 947 630 c 3
 947 615 928 593 910 593 c 3
 890 593 872 670 783 717 c 9
EndSplineSet
Refer: 118 12465 N 1 0 0 1 0 0 2
Fore
SplineSet
699 650 m 9
 713 667 l 17
 806 638 854 581 854 554 c 3
 854 541 836 519 817 519 c 3
 792 519 785 594 699 650 c 9
783 717 m 9
 797 733 l 17
 885 715 947 660 947 630 c 3
 947 615 928 593 910 593 c 3
 890 593 872 670 783 717 c 9
EndSplineSet
Refer: 118 12465 N 1 0 0 1 0 0 2
EndChar

StartChar: uni30B3
Encoding: 12467 12467 120
Width: 1000
Flags: HMW
LayerCount: 3
Back
SplineSet
400 300 m 0
 400 355 445 400 500 400 c 0
 555 400 600 355 600 300 c 0
 600 245 555 200 500 200 c 0
 445 200 400 245 400 300 c 0
EndSplineSet
Fore
SplineSet
400 300 m 0
 400 355 445 400 500 400 c 0
 555 400 600 355 600 300 c 0
 600 245 555 200 500 200 c 0
 445 200 400 245 400 300 c 0
EndSplineSet
EndChar

StartChar: uni30B4
Encoding: 12468 12468 121
Width: 1000
Flags: HMW
LayerCount: 3
Back
SplineSet
400 300 m 0
 400 355 445 400 500 400 c 0
 555 400 600 355 600 300 c 0
 600 245 555 200 500 200 c 0
 445 200 400 245 400 300 c 0
EndSplineSet
Fore
SplineSet
400 300 m 0
 400 355 445 400 500 400 c 0
 555 400 600 355 600 300 c 0
 600 245 555 200 500 200 c 0
 445 200 400 245 400 300 c 0
EndSplineSet
EndChar

StartChar: uni30B5
Encoding: 12469 12469 122
Width: 1000
Flags: HMW
LayerCount: 3
Back
SplineSet
400 300 m 0
 400 355 445 400 500 400 c 0
 555 400 600 355 600 300 c 0
 600 245 555 200 500 200 c 0
 445 200 400 245 400 300 c 0
EndSplineSet
Fore
SplineSet
400 300 m 0
 400 355 445 400 500 400 c 0
 555 400 600 355 600 300 c 0
 600 245 555 200 500 200 c 0
 445 200 400 245 400 300 c 0
EndSplineSet
EndChar

StartChar: uni30B6
Encoding: 12470 12470 123
Width: 1000
Flags: HMW
LayerCount: 3
Back
SplineSet
400 300 m 0
 400 355 445 400 500 400 c 0
 555 400 600 355 600 300 c 0
 600 245 555 200 500 200 c 0
 445 200 400 245 400 300 c 0
EndSplineSet
Fore
SplineSet
400 300 m 0
 400 355 445 400 500 400 c 0
 555 400 600 355 600 300 c 0
 600 245 555 200 500 200 c 0
 445 200 400 245 400 300 c 0
EndSplineSet
EndChar

StartChar: uni30B7
Encoding: 12471 12471 124
Width: 1000
Flags: HMW
LayerCount: 3
Back
SplineSet
400 300 m 0
 400 355 445 400 500 400 c 0
 555 400 600 355 600 300 c 0
 600 245 555 200 500 200 c 0
 445 200 400 245 400 300 c 0
EndSplineSet
Fore
SplineSet
400 300 m 0
 400 355 445 400 500 400 c 0
 555 400 600 355 600 300 c 0
 600 245 555 200 500 200 c 0
 445 200 400 245 400 300 c 0
EndSplineSet
EndChar

StartChar: uni30B8
Encoding: 12472 12472 125
Width: 1000
Flags: HMW
LayerCount: 3
Back
SplineSet
400 300 m 0
 400 355 445 400 500 400 c 0
 555 400 600 355 600 300 c 0
 600 245 555 200 500 200 c 0
 445 200 400 245 400 300 c 0
EndSplineSet
Fore
SplineSet
400 300 m 0
 400 355 445 400 500 400 c 0
 555 400 600 355 600 300 c 0
 600 245 555 200 500 200 c 0
 445 200 400 245 400 300 c 0
EndSplineSet
EndChar

StartChar: uni30B9
Encoding: 12473 12473 126
Width: 1000
Flags: HMW
LayerCount: 3
Back
SplineSet
400 300 m 0
 400 355 445 400 500 400 c 0
 555 400 600 355 600 300 c 0
 600 245 555 200 500 200 c 0
 445 200 400 245 400 300 c 0
EndSplineSet
Fore
SplineSet
400 300 m 0
 400 355 445 400 500 400 c 0
 555 400 600 355 600 300 c 0
 600 245 555 200 500 200 c 0
 445 200 400 245 400 300 c 0
EndSplineSet
EndChar

StartChar: uni30BA
Encoding: 12474 12474 127
Width: 1000
Flags: HMW
LayerCount: 3
Back
SplineSet
400 300 m 0
 400 355 445 400 500 400 c 0
 555 400 600 355 600 300 c 0
 600 245 555 200 500 200 c 0
 445 200 400 245 400 300 c 0
EndSplineSet
Fore
SplineSet
400 300 m 0
 400 355 445 400 500 400 c 0
 555 400 600 355 600 300 c 0
 600 245 555 200 500 200 c 0
 445 200 400 245 400 300 c 0
EndSplineSet
EndChar

StartChar: uni30BB
Encoding: 12475 12475 128
Width: 1000
Flags: HMW
LayerCount: 3
Back
SplineSet
400 300 m 0
 400 355 445 400 500 400 c 0
 555 400 600 355 600 300 c 0
 600 245 555 200 500 200 c 0
 445 200 400 245 400 300 c 0
EndSplineSet
Fore
SplineSet
400 300 m 0
 400 355 445 400 500 400 c 0
 555 400 600 355 600 300 c 0
 600 245 555 200 500 200 c 0
 445 200 400 245 400 300 c 0
EndSplineSet
EndChar

StartChar: uni30BC
Encoding: 12476 12476 129
Width: 1000
Flags: HMW
LayerCount: 3
Back
SplineSet
400 300 m 0
 400 355 445 400 500 400 c 0
 555 400 600 355 600 300 c 0
 600 245 555 200 500 200 c 0
 445 200 400 245 400 300 c 0
EndSplineSet
Fore
SplineSet
400 300 m 0
 400 355 445 400 500 400 c 0
 555 400 600 355 600 300 c 0
 600 245 555 200 500 200 c 0
 445 200 400 245 400 300 c 0
EndSplineSet
EndChar

StartChar: uni30BD
Encoding: 12477 12477 130
Width: 1000
Flags: HMW
LayerCount: 3
Back
SplineSet
400 300 m 0
 400 355 445 400 500 400 c 0
 555 400 600 355 600 300 c 0
 600 245 555 200 500 200 c 0
 445 200 400 245 400 300 c 0
EndSplineSet
Fore
SplineSet
400 300 m 0
 400 355 445 400 500 400 c 0
 555 400 600 355 600 300 c 0
 600 245 555 200 500 200 c 0
 445 200 400 245 400 300 c 0
EndSplineSet
EndChar

StartChar: uni30BE
Encoding: 12478 12478 131
Width: 1000
Flags: HMW
LayerCount: 3
Back
SplineSet
400 300 m 0
 400 355 445 400 500 400 c 0
 555 400 600 355 600 300 c 0
 600 245 555 200 500 200 c 0
 445 200 400 245 400 300 c 0
EndSplineSet
Fore
SplineSet
400 300 m 0
 400 355 445 400 500 400 c 0
 555 400 600 355 600 300 c 0
 600 245 555 200 500 200 c 0
 445 200 400 245 400 300 c 0
EndSplineSet
EndChar

StartChar: uni30BF
Encoding: 12479 12479 132
Width: 1000
Flags: HMW
LayerCount: 3
Back
SplineSet
400 300 m 0
 400 355 445 400 500 400 c 0
 555 400 600 355 600 300 c 0
 600 245 555 200 500 200 c 0
 445 200 400 245 400 300 c 0
EndSplineSet
Fore
SplineSet
400 300 m 0
 400 355 445 400 500 400 c 0
 555 400 600 355 600 300 c 0
 600 245 555 200 500 200 c 0
 445 200 400 245 400 300 c 0
EndSplineSet
EndChar

StartChar: uni30C0
Encoding: 12480 12480 133
Width: 1000
Flags: HMW
LayerCount: 3
Back
SplineSet
400 300 m 0
 400 355 445 400 500 400 c 0
 555 400 600 355 600 300 c 0
 600 245 555 200 500 200 c 0
 445 200 400 245 400 300 c 0
EndSplineSet
Fore
SplineSet
400 300 m 0
 400 355 445 400 500 400 c 0
 555 400 600 355 600 300 c 0
 600 245 555 200 500 200 c 0
 445 200 400 245 400 300 c 0
EndSplineSet
EndChar

StartChar: uni30C1
Encoding: 12481 12481 134
Width: 1000
Flags: HMW
LayerCount: 3
Back
SplineSet
400 300 m 0
 400 355 445 400 500 400 c 0
 555 400 600 355 600 300 c 0
 600 245 555 200 500 200 c 0
 445 200 400 245 400 300 c 0
EndSplineSet
Fore
SplineSet
400 300 m 0
 400 355 445 400 500 400 c 0
 555 400 600 355 600 300 c 0
 600 245 555 200 500 200 c 0
 445 200 400 245 400 300 c 0
EndSplineSet
EndChar

StartChar: uni30C2
Encoding: 12482 12482 135
Width: 1000
Flags: HMW
LayerCount: 3
Back
SplineSet
400 300 m 0
 400 355 445 400 500 400 c 0
 555 400 600 355 600 300 c 0
 600 245 555 200 500 200 c 0
 445 200 400 245 400 300 c 0
EndSplineSet
Fore
SplineSet
400 300 m 0
 400 355 445 400 500 400 c 0
 555 400 600 355 600 300 c 0
 600 245 555 200 500 200 c 0
 445 200 400 245 400 300 c 0
EndSplineSet
EndChar

StartChar: uni30C3
Encoding: 12483 12483 136
Width: 1000
Flags: HMW
LayerCount: 3
Back
SplineSet
400 300 m 0
 400 355 445 400 500 400 c 0
 555 400 600 355 600 300 c 0
 600 245 555 200 500 200 c 0
 445 200 400 245 400 300 c 0
EndSplineSet
Fore
SplineSet
400 300 m 0
 400 355 445 400 500 400 c 0
 555 400 600 355 600 300 c 0
 600 245 555 200 500 200 c 0
 445 200 400 245 400 300 c 0
EndSplineSet
EndChar

StartChar: uni30C4
Encoding: 12484 12484 137
Width: 1000
Flags: HMW
LayerCount: 3
Back
SplineSet
400 300 m 0
 400 355 445 400 500 400 c 0
 555 400 600 355 600 300 c 0
 600 245 555 200 500 200 c 0
 445 200 400 245 400 300 c 0
EndSplineSet
Fore
SplineSet
400 300 m 0
 400 355 445 400 500 400 c 0
 555 400 600 355 600 300 c 0
 600 245 555 200 500 200 c 0
 445 200 400 245 400 300 c 0
EndSplineSet
EndChar

StartChar: uni30C5
Encoding: 12485 12485 138
Width: 1000
Flags: HMW
LayerCount: 3
Back
SplineSet
400 300 m 0
 400 355 445 400 500 400 c 0
 555 400 600 355 600 300 c 0
 600 245 555 200 500 200 c 0
 445 200 400 245 400 300 c 0
EndSplineSet
Fore
SplineSet
400 300 m 0
 400 355 445 400 500 400 c 0
 555 400 600 355 600 300 c 0
 600 245 555 200 500 200 c 0
 445 200 400 245 400 300 c 0
EndSplineSet
EndChar

StartChar: uni30C6
Encoding: 12486 12486 139
Width: 1000
Flags: HMW
LayerCount: 3
Back
SplineSet
400 300 m 0
 400 355 445 400 500 400 c 0
 555 400 600 355 600 300 c 0
 600 245 555 200 500 200 c 0
 445 200 400 245 400 300 c 0
EndSplineSet
Fore
SplineSet
400 300 m 0
 400 355 445 400 500 400 c 0
 555 400 600 355 600 300 c 0
 600 245 555 200 500 200 c 0
 445 200 400 245 400 300 c 0
EndSplineSet
EndChar

StartChar: uni30C7
Encoding: 12487 12487 140
Width: 1000
Flags: HMW
LayerCount: 3
Back
SplineSet
400 300 m 0
 400 355 445 400 500 400 c 0
 555 400 600 355 600 300 c 0
 600 245 555 200 500 200 c 0
 445 200 400 245 400 300 c 0
EndSplineSet
Fore
SplineSet
400 300 m 0
 400 355 445 400 500 400 c 0
 555 400 600 355 600 300 c 0
 600 245 555 200 500 200 c 0
 445 200 400 245 400 300 c 0
EndSplineSet
EndChar

StartChar: uni30C8
Encoding: 12488 12488 141
Width: 1000
Flags: HMW
LayerCount: 3
Back
SplineSet
400 300 m 0
 400 355 445 400 500 400 c 0
 555 400 600 355 600 300 c 0
 600 245 555 200 500 200 c 0
 445 200 400 245 400 300 c 0
EndSplineSet
Fore
SplineSet
400 300 m 0
 400 355 445 400 500 400 c 0
 555 400 600 355 600 300 c 0
 600 245 555 200 500 200 c 0
 445 200 400 245 400 300 c 0
EndSplineSet
EndChar

StartChar: uni30C9
Encoding: 12489 12489 142
Width: 1000
Flags: HMW
LayerCount: 3
Back
SplineSet
400 300 m 0
 400 355 445 400 500 400 c 0
 555 400 600 355 600 300 c 0
 600 245 555 200 500 200 c 0
 445 200 400 245 400 300 c 0
EndSplineSet
Fore
SplineSet
400 300 m 0
 400 355 445 400 500 400 c 0
 555 400 600 355 600 300 c 0
 600 245 555 200 500 200 c 0
 445 200 400 245 400 300 c 0
EndSplineSet
EndChar

StartChar: uni30CA
Encoding: 12490 12490 143
Width: 1000
Flags: HMW
LayerCount: 3
Back
SplineSet
400 300 m 0
 400 355 445 400 500 400 c 0
 555 400 600 355 600 300 c 0
 600 245 555 200 500 200 c 0
 445 200 400 245 400 300 c 0
EndSplineSet
Fore
SplineSet
400 300 m 0
 400 355 445 400 500 400 c 0
 555 400 600 355 600 300 c 0
 600 245 555 200 500 200 c 0
 445 200 400 245 400 300 c 0
EndSplineSet
EndChar

StartChar: uni30CB
Encoding: 12491 12491 144
Width: 1000
Flags: HMW
LayerCount: 3
Back
SplineSet
260 485 m 17
 272 470 295 463 335 463 c 3
 395 463 495 469 590 479 c 0
 622.21 482.391 645 493 655 493 c 3
 675 493 730 452 730 432 c 3
 730 425 723 418 710 418 c 3
 693 418 655 425 605 425 c 3
 565 425 480 421 410 415 c 0
 374.773 411.981 338 402 325 402 c 3
 295 402 260 440 245 475 c 9
 260 485 l 17
160 222 m 17
 172 202 205 190 225 190 c 3
 275 190 495 198 670 211 c 0
 719.23 214.657 750 229 760 229 c 3
 785 229 840 179 840 159 c 3
 840 151 830 144 817 144 c 3
 800 144 760 153 695 153 c 3
 630 153 450 149 310 137 c 0
 270.808 133.641 245 125 230 125 c 3
 200 125 160 167 145 212 c 9
 160 222 l 17
EndSplineSet
Fore
SplineSet
260 485 m 17
 272 470 295 463 335 463 c 3
 395 463 495 469 590 479 c 0
 622 482 645 493 655 493 c 3
 675 493 730 452 730 432 c 3
 730 425 723 418 710 418 c 3
 693 418 655 425 605 425 c 3
 565 425 480 421 410 415 c 0
 375 412 338 402 325 402 c 3
 295 402 260 440 245 475 c 9
 260 485 l 17
160 222 m 17
 172 202 205 190 225 190 c 3
 275 190 495 198 670 211 c 0
 719 215 750 229 760 229 c 3
 785 229 840 179 840 159 c 3
 840 151 830 144 817 144 c 3
 800 144 760 153 695 153 c 3
 630 153 450 149 310 137 c 0
 271 134 245 125 230 125 c 3
 200 125 160 167 145 212 c 9
 160 222 l 17
EndSplineSet
EndChar

StartChar: uni30CC
Encoding: 12492 12492 145
Width: 1000
Flags: HMW
LayerCount: 3
Back
SplineSet
400 300 m 0
 400 355 445 400 500 400 c 0
 555 400 600 355 600 300 c 0
 600 245 555 200 500 200 c 0
 445 200 400 245 400 300 c 0
EndSplineSet
Fore
SplineSet
400 300 m 0
 400 355 445 400 500 400 c 0
 555 400 600 355 600 300 c 0
 600 245 555 200 500 200 c 0
 445 200 400 245 400 300 c 0
EndSplineSet
EndChar

StartChar: uni30CD
Encoding: 12493 12493 146
Width: 1000
Flags: HMW
LayerCount: 3
Back
SplineSet
400 300 m 0
 400 355 445 400 500 400 c 0
 555 400 600 355 600 300 c 0
 600 245 555 200 500 200 c 0
 445 200 400 245 400 300 c 0
EndSplineSet
Fore
SplineSet
400 300 m 0
 400 355 445 400 500 400 c 0
 555 400 600 355 600 300 c 0
 600 245 555 200 500 200 c 0
 445 200 400 245 400 300 c 0
EndSplineSet
EndChar

StartChar: uni30CE
Encoding: 12494 12494 147
Width: 1000
Flags: HMW
LayerCount: 3
Back
SplineSet
400 300 m 0
 400 355 445 400 500 400 c 0
 555 400 600 355 600 300 c 0
 600 245 555 200 500 200 c 0
 445 200 400 245 400 300 c 0
EndSplineSet
Fore
SplineSet
400 300 m 0
 400 355 445 400 500 400 c 0
 555 400 600 355 600 300 c 0
 600 245 555 200 500 200 c 0
 445 200 400 245 400 300 c 0
EndSplineSet
EndChar

StartChar: uni30CF
Encoding: 12495 12495 148
Width: 1000
Flags: HMW
LayerCount: 3
Back
SplineSet
400 300 m 0
 400 355 445 400 500 400 c 0
 555 400 600 355 600 300 c 0
 600 245 555 200 500 200 c 0
 445 200 400 245 400 300 c 0
EndSplineSet
Fore
SplineSet
400 300 m 0
 400 355 445 400 500 400 c 0
 555 400 600 355 600 300 c 0
 600 245 555 200 500 200 c 0
 445 200 400 245 400 300 c 0
EndSplineSet
EndChar

StartChar: uni30D0
Encoding: 12496 12496 149
Width: 1000
Flags: HMW
LayerCount: 3
Back
SplineSet
400 300 m 0
 400 355 445 400 500 400 c 0
 555 400 600 355 600 300 c 0
 600 245 555 200 500 200 c 0
 445 200 400 245 400 300 c 0
EndSplineSet
Fore
SplineSet
400 300 m 0
 400 355 445 400 500 400 c 0
 555 400 600 355 600 300 c 0
 600 245 555 200 500 200 c 0
 445 200 400 245 400 300 c 0
EndSplineSet
EndChar

StartChar: uni30D1
Encoding: 12497 12497 150
Width: 1000
Flags: HMW
LayerCount: 3
Back
SplineSet
400 300 m 0
 400 355 445 400 500 400 c 0
 555 400 600 355 600 300 c 0
 600 245 555 200 500 200 c 0
 445 200 400 245 400 300 c 0
EndSplineSet
Fore
SplineSet
400 300 m 0
 400 355 445 400 500 400 c 0
 555 400 600 355 600 300 c 0
 600 245 555 200 500 200 c 0
 445 200 400 245 400 300 c 0
EndSplineSet
EndChar

StartChar: uni30D2
Encoding: 12498 12498 151
Width: 1000
Flags: HMW
LayerCount: 3
Back
SplineSet
400 300 m 0
 400 355 445 400 500 400 c 0
 555 400 600 355 600 300 c 0
 600 245 555 200 500 200 c 0
 445 200 400 245 400 300 c 0
EndSplineSet
Fore
SplineSet
400 300 m 0
 400 355 445 400 500 400 c 0
 555 400 600 355 600 300 c 0
 600 245 555 200 500 200 c 0
 445 200 400 245 400 300 c 0
EndSplineSet
EndChar

StartChar: uni30D3
Encoding: 12499 12499 152
Width: 1000
Flags: HMW
LayerCount: 3
Back
SplineSet
400 300 m 0
 400 355 445 400 500 400 c 0
 555 400 600 355 600 300 c 0
 600 245 555 200 500 200 c 0
 445 200 400 245 400 300 c 0
EndSplineSet
Fore
SplineSet
400 300 m 0
 400 355 445 400 500 400 c 0
 555 400 600 355 600 300 c 0
 600 245 555 200 500 200 c 0
 445 200 400 245 400 300 c 0
EndSplineSet
EndChar

StartChar: uni30D4
Encoding: 12500 12500 153
Width: 1000
Flags: HMW
LayerCount: 3
Back
SplineSet
400 300 m 0
 400 355 445 400 500 400 c 0
 555 400 600 355 600 300 c 0
 600 245 555 200 500 200 c 0
 445 200 400 245 400 300 c 0
EndSplineSet
Fore
SplineSet
400 300 m 0
 400 355 445 400 500 400 c 0
 555 400 600 355 600 300 c 0
 600 245 555 200 500 200 c 0
 445 200 400 245 400 300 c 0
EndSplineSet
EndChar

StartChar: uni30D5
Encoding: 12501 12501 154
Width: 1000
Flags: HMW
LayerCount: 3
Back
SplineSet
400 300 m 0
 400 355 445 400 500 400 c 0
 555 400 600 355 600 300 c 0
 600 245 555 200 500 200 c 0
 445 200 400 245 400 300 c 0
EndSplineSet
Fore
SplineSet
605 217 m 3
 508 217 387 139 290 57 c 0
 204 -16 135 -85 120 -85 c 3
 98 -85 70 -45 70 -30 c 3
 70 -17 99 -15 140 12 c 0
 221 65 445 250 625 250 c 3
 800 250 930 71 930 15 c 3
 930 -10 901 -30 883 -30 c 3
 858 -30 850 31 820 82 c 0
 774 160 720 217 605 217 c 3
405 705 m 1
 425 710 l 1
 435 665 460 630 510 605 c 0
 590 565 665 570 665 540 c 3
 665 525 650 500 635 500 c 3
 625 500 615 505 595 505 c 3
 535 505 452 450 452 390 c 3
 452 332 503 268 545 207 c 0
 587 146 635 79 635 15 c 3
 635 -30 590 -75 525 -75 c 3
 455 -75 349 -40 230 10 c 1
 248 25 l 1
 323 5 422 -10 490 -10 c 3
 540 -10 560 10 560 40 c 3
 560 76 533 140 500 190 c 0
 467 240 420 315 420 375 c 3
 420 435 460 485 520 535 c 1
 435 570 410 636 405 705 c 1
EndSplineSet
EndChar

StartChar: uni30D6
Encoding: 12502 12502 155
Width: 1000
Flags: HMW
LayerCount: 3
Back
SplineSet
400 300 m 0
 400 355 445 400 500 400 c 0
 555 400 600 355 600 300 c 0
 600 245 555 200 500 200 c 0
 445 200 400 245 400 300 c 0
EndSplineSet
Fore
SplineSet
400 300 m 0
 400 355 445 400 500 400 c 0
 555 400 600 355 600 300 c 0
 600 245 555 200 500 200 c 0
 445 200 400 245 400 300 c 0
EndSplineSet
EndChar

StartChar: uni30D7
Encoding: 12503 12503 156
Width: 1000
Flags: HMW
LayerCount: 3
Back
SplineSet
400 300 m 0
 400 355 445 400 500 400 c 0
 555 400 600 355 600 300 c 0
 600 245 555 200 500 200 c 0
 445 200 400 245 400 300 c 0
EndSplineSet
Fore
SplineSet
400 300 m 0
 400 355 445 400 500 400 c 0
 555 400 600 355 600 300 c 0
 600 245 555 200 500 200 c 0
 445 200 400 245 400 300 c 0
EndSplineSet
EndChar

StartChar: uni30D8
Encoding: 12504 12504 157
Width: 1000
Flags: HMW
LayerCount: 3
Back
SplineSet
400 300 m 0
 400 355 445 400 500 400 c 0
 555 400 600 355 600 300 c 0
 600 245 555 200 500 200 c 0
 445 200 400 245 400 300 c 0
EndSplineSet
Fore
SplineSet
400 300 m 0
 400 355 445 400 500 400 c 0
 555 400 600 355 600 300 c 0
 600 245 555 200 500 200 c 0
 445 200 400 245 400 300 c 0
EndSplineSet
EndChar

StartChar: uni30D9
Encoding: 12505 12505 158
Width: 1000
Flags: HMW
LayerCount: 3
Back
SplineSet
400 300 m 0
 400 355 445 400 500 400 c 0
 555 400 600 355 600 300 c 0
 600 245 555 200 500 200 c 0
 445 200 400 245 400 300 c 0
EndSplineSet
Fore
SplineSet
400 300 m 0
 400 355 445 400 500 400 c 0
 555 400 600 355 600 300 c 0
 600 245 555 200 500 200 c 0
 445 200 400 245 400 300 c 0
EndSplineSet
EndChar

StartChar: uni30DA
Encoding: 12506 12506 159
Width: 1000
Flags: HMW
LayerCount: 3
Back
SplineSet
400 300 m 0
 400 355 445 400 500 400 c 0
 555 400 600 355 600 300 c 0
 600 245 555 200 500 200 c 0
 445 200 400 245 400 300 c 0
EndSplineSet
Fore
SplineSet
400 300 m 0
 400 355 445 400 500 400 c 0
 555 400 600 355 600 300 c 0
 600 245 555 200 500 200 c 0
 445 200 400 245 400 300 c 0
EndSplineSet
EndChar

StartChar: uni30DB
Encoding: 12507 12507 160
Width: 1000
Flags: HMW
LayerCount: 3
Back
SplineSet
400 300 m 0
 400 355 445 400 500 400 c 0
 555 400 600 355 600 300 c 0
 600 245 555 200 500 200 c 0
 445 200 400 245 400 300 c 0
EndSplineSet
Fore
SplineSet
400 300 m 0
 400 355 445 400 500 400 c 0
 555 400 600 355 600 300 c 0
 600 245 555 200 500 200 c 0
 445 200 400 245 400 300 c 0
EndSplineSet
EndChar

StartChar: uni30DC
Encoding: 12508 12508 161
Width: 1000
Flags: HMW
LayerCount: 3
Back
SplineSet
400 300 m 0
 400 355 445 400 500 400 c 0
 555 400 600 355 600 300 c 0
 600 245 555 200 500 200 c 0
 445 200 400 245 400 300 c 0
EndSplineSet
Fore
SplineSet
400 300 m 0
 400 355 445 400 500 400 c 0
 555 400 600 355 600 300 c 0
 600 245 555 200 500 200 c 0
 445 200 400 245 400 300 c 0
EndSplineSet
EndChar

StartChar: uni30DD
Encoding: 12509 12509 162
Width: 1000
Flags: HMW
LayerCount: 3
Back
SplineSet
400 300 m 0
 400 355 445 400 500 400 c 0
 555 400 600 355 600 300 c 0
 600 245 555 200 500 200 c 0
 445 200 400 245 400 300 c 0
EndSplineSet
Fore
SplineSet
400 300 m 0
 400 355 445 400 500 400 c 0
 555 400 600 355 600 300 c 0
 600 245 555 200 500 200 c 0
 445 200 400 245 400 300 c 0
EndSplineSet
EndChar

StartChar: uni30DE
Encoding: 12510 12510 163
Width: 1000
Flags: HMW
LayerCount: 3
Back
SplineSet
400 300 m 0
 400 355 445 400 500 400 c 0
 555 400 600 355 600 300 c 0
 600 245 555 200 500 200 c 0
 445 200 400 245 400 300 c 0
EndSplineSet
Fore
SplineSet
400 300 m 0
 400 355 445 400 500 400 c 0
 555 400 600 355 600 300 c 0
 600 245 555 200 500 200 c 0
 445 200 400 245 400 300 c 0
EndSplineSet
EndChar

StartChar: uni30DF
Encoding: 12511 12511 164
Width: 1000
Flags: HMW
LayerCount: 3
Back
SplineSet
400 300 m 0
 400 355 445 400 500 400 c 0
 555 400 600 355 600 300 c 0
 600 245 555 200 500 200 c 0
 445 200 400 245 400 300 c 0
EndSplineSet
Fore
SplineSet
400 300 m 0
 400 355 445 400 500 400 c 0
 555 400 600 355 600 300 c 0
 600 245 555 200 500 200 c 0
 445 200 400 245 400 300 c 0
EndSplineSet
EndChar

StartChar: uni30E0
Encoding: 12512 12512 165
Width: 1000
Flags: HMW
LayerCount: 3
Back
SplineSet
400 300 m 0
 400 355 445 400 500 400 c 0
 555 400 600 355 600 300 c 0
 600 245 555 200 500 200 c 0
 445 200 400 245 400 300 c 0
EndSplineSet
Fore
SplineSet
400 300 m 0
 400 355 445 400 500 400 c 0
 555 400 600 355 600 300 c 0
 600 245 555 200 500 200 c 0
 445 200 400 245 400 300 c 0
EndSplineSet
EndChar

StartChar: uni30E1
Encoding: 12513 12513 166
Width: 1000
Flags: HMW
LayerCount: 3
Back
SplineSet
400 300 m 0
 400 355 445 400 500 400 c 0
 555 400 600 355 600 300 c 0
 600 245 555 200 500 200 c 0
 445 200 400 245 400 300 c 0
EndSplineSet
Fore
SplineSet
400 300 m 0
 400 355 445 400 500 400 c 0
 555 400 600 355 600 300 c 0
 600 245 555 200 500 200 c 0
 445 200 400 245 400 300 c 0
EndSplineSet
EndChar

StartChar: uni30E2
Encoding: 12514 12514 167
Width: 1000
Flags: HMW
LayerCount: 3
Back
SplineSet
400 300 m 0
 400 355 445 400 500 400 c 0
 555 400 600 355 600 300 c 0
 600 245 555 200 500 200 c 0
 445 200 400 245 400 300 c 0
EndSplineSet
Fore
SplineSet
400 300 m 0
 400 355 445 400 500 400 c 0
 555 400 600 355 600 300 c 0
 600 245 555 200 500 200 c 0
 445 200 400 245 400 300 c 0
EndSplineSet
EndChar

StartChar: uni30E3
Encoding: 12515 12515 168
Width: 1000
Flags: HMW
LayerCount: 3
Back
SplineSet
400 300 m 0
 400 355 445 400 500 400 c 0
 555 400 600 355 600 300 c 0
 600 245 555 200 500 200 c 0
 445 200 400 245 400 300 c 0
EndSplineSet
Fore
SplineSet
400 300 m 0
 400 355 445 400 500 400 c 0
 555 400 600 355 600 300 c 0
 600 245 555 200 500 200 c 0
 445 200 400 245 400 300 c 0
EndSplineSet
EndChar

StartChar: uni30E4
Encoding: 12516 12516 169
Width: 1000
Flags: HMW
LayerCount: 3
Back
SplineSet
400 300 m 0
 400 355 445 400 500 400 c 0
 555 400 600 355 600 300 c 0
 600 245 555 200 500 200 c 0
 445 200 400 245 400 300 c 0
EndSplineSet
Fore
SplineSet
400 300 m 0
 400 355 445 400 500 400 c 0
 555 400 600 355 600 300 c 0
 600 245 555 200 500 200 c 0
 445 200 400 245 400 300 c 0
EndSplineSet
EndChar

StartChar: uni30E5
Encoding: 12517 12517 170
Width: 1000
Flags: HMW
LayerCount: 3
Back
SplineSet
400 300 m 0
 400 355 445 400 500 400 c 0
 555 400 600 355 600 300 c 0
 600 245 555 200 500 200 c 0
 445 200 400 245 400 300 c 0
EndSplineSet
Fore
SplineSet
400 300 m 0
 400 355 445 400 500 400 c 0
 555 400 600 355 600 300 c 0
 600 245 555 200 500 200 c 0
 445 200 400 245 400 300 c 0
EndSplineSet
EndChar

StartChar: uni30E6
Encoding: 12518 12518 171
Width: 1000
Flags: HMW
LayerCount: 3
Back
SplineSet
400 300 m 0
 400 355 445 400 500 400 c 0
 555 400 600 355 600 300 c 0
 600 245 555 200 500 200 c 0
 445 200 400 245 400 300 c 0
EndSplineSet
Fore
SplineSet
400 300 m 0
 400 355 445 400 500 400 c 0
 555 400 600 355 600 300 c 0
 600 245 555 200 500 200 c 0
 445 200 400 245 400 300 c 0
EndSplineSet
EndChar

StartChar: uni30E7
Encoding: 12519 12519 172
Width: 1000
Flags: HMW
LayerCount: 3
Back
SplineSet
400 300 m 0
 400 355 445 400 500 400 c 0
 555 400 600 355 600 300 c 0
 600 245 555 200 500 200 c 0
 445 200 400 245 400 300 c 0
EndSplineSet
Fore
SplineSet
400 300 m 0
 400 355 445 400 500 400 c 0
 555 400 600 355 600 300 c 0
 600 245 555 200 500 200 c 0
 445 200 400 245 400 300 c 0
EndSplineSet
EndChar

StartChar: uni30E8
Encoding: 12520 12520 173
Width: 1000
Flags: HMW
LayerCount: 3
Back
SplineSet
400 300 m 0
 400 355 445 400 500 400 c 0
 555 400 600 355 600 300 c 0
 600 245 555 200 500 200 c 0
 445 200 400 245 400 300 c 0
EndSplineSet
Fore
SplineSet
400 300 m 0
 400 355 445 400 500 400 c 0
 555 400 600 355 600 300 c 0
 600 245 555 200 500 200 c 0
 445 200 400 245 400 300 c 0
EndSplineSet
EndChar

StartChar: uni30E9
Encoding: 12521 12521 174
Width: 1000
Flags: HMW
LayerCount: 3
Back
SplineSet
400 300 m 0
 400 355 445 400 500 400 c 0
 555 400 600 355 600 300 c 0
 600 245 555 200 500 200 c 0
 445 200 400 245 400 300 c 0
EndSplineSet
Fore
SplineSet
400 300 m 0
 400 355 445 400 500 400 c 0
 555 400 600 355 600 300 c 0
 600 245 555 200 500 200 c 0
 445 200 400 245 400 300 c 0
EndSplineSet
EndChar

StartChar: uni30EA
Encoding: 12522 12522 175
Width: 1000
Flags: HMW
LayerCount: 3
Back
SplineSet
400 300 m 0
 400 355 445 400 500 400 c 0
 555 400 600 355 600 300 c 0
 600 245 555 200 500 200 c 0
 445 200 400 245 400 300 c 0
EndSplineSet
Fore
SplineSet
400 300 m 0
 400 355 445 400 500 400 c 0
 555 400 600 355 600 300 c 0
 600 245 555 200 500 200 c 0
 445 200 400 245 400 300 c 0
EndSplineSet
EndChar

StartChar: uni30EB
Encoding: 12523 12523 176
Width: 1000
Flags: HMW
LayerCount: 3
Back
SplineSet
400 300 m 0
 400 355 445 400 500 400 c 0
 555 400 600 355 600 300 c 0
 600 245 555 200 500 200 c 0
 445 200 400 245 400 300 c 0
EndSplineSet
Fore
SplineSet
400 300 m 0
 400 355 445 400 500 400 c 0
 555 400 600 355 600 300 c 0
 600 245 555 200 500 200 c 0
 445 200 400 245 400 300 c 0
EndSplineSet
EndChar

StartChar: uni30EC
Encoding: 12524 12524 177
Width: 1000
Flags: HMW
LayerCount: 3
Back
SplineSet
400 300 m 0
 400 355 445 400 500 400 c 0
 555 400 600 355 600 300 c 0
 600 245 555 200 500 200 c 0
 445 200 400 245 400 300 c 0
EndSplineSet
Fore
SplineSet
400 300 m 0
 400 355 445 400 500 400 c 0
 555 400 600 355 600 300 c 0
 600 245 555 200 500 200 c 0
 445 200 400 245 400 300 c 0
EndSplineSet
EndChar

StartChar: uni30ED
Encoding: 12525 12525 178
Width: 1000
Flags: HMW
LayerCount: 3
Back
SplineSet
620 160 m 17
 637 265 655 405 655 430 c 3
 655 437 650 440 645 440 c 3
 585 440 405 420 370 420 c 1027
315 475 m 1
 330 467 350 465 368 465 c 3
 415 465 570 480 620 490 c 0
 645 495 658 510 670 510 c 3
 690 510 755 465 755 440 c 3
 755 428 737 420 730 400 c 0
 720 370 693 240 678 155 c 9
 620 160 l 17
 637 265 655 407 655 432 c 3
 655 439 651 442 645 442 c 3
 605 442 400 420 365 420 c 3
 340 420 315 435 315 475 c 1
360 636 m 17
 605 646 650 666 670 666 c 3
 685 666 725 636 725 616 c 3
 725 606 715 601 705 601 c 3
 690 601 655 604 622 604 c 3
 590 604 475 601 365 596 c 9
 360 636 l 17
335 931 m 1
 350 923 370 919 390 919 c 3
 430 919 572 933 635 946 c 0
 656.899 950.519 665 966 675 966 c 3
 685 966 750 931 750 911 c 3
 750 901 730.604 888.611 725 869 c 0
 717 841 695 711 680 631 c 9
 625 636 l 17
 640 741 653 869 653 891 c 3
 653 898 650 901 645 901 c 3
 610 901 420 876 385 876 c 3
 360 876 345 901 335 931 c 1
260 966 m 17
 310 956 360 931 360 911 c 3
 360 901 355 891 355 866 c 3
 355 766 372 621 372 596 c 3
 372 571 345 551 322 551 c 3
 310 551 305 563 305 576 c 3
 305 626 295 856 290 906 c 0
 289 916 280 936 255 946 c 9
 260 966 l 17
325 170 m 17
 405 171 532 179 590 189 c 0
 621.673 194.461 645 202 655 202 c 3
 675 202 727 166 727 146 c 3
 727 139 720 132 707 132 c 3
 690 132 658 137 614 137 c 3
 574 137 420 132 340 125 c 9
 325 170 l 17
335 440 m 1
 350 432 375 430 390 430 c 3
 415 430 625 445 650 450 c 0
 665 453 675 475 685 475 c 3
 705 475 762 435 762 415 c 3
 762 402 743 401 730 375 c 0
 640 200 355 -45 10 -110 c 9
 5 -90 l 17
 395 35 652 370 652 401 c 3
 652 404 649 407 645 407 c 3
 592 407 405 385 380 385 c 3
 360 385 345 415 335 440 c 1
263.593 482.267 m 17
 304.073 474.436 350.623 446.903 351.701 426.933 c 0
 352.509 411.954 343.062 401.43 346.832 331.531 c 0
 352.219 231.677 361.487 96.9805 362.834 72.0166 c 0
 364.181 47.0527 335.302 25.4658 315.33 24.3887 c 0
 305.345 23.8506 297.547 38.4512 297.009 48.4375 c 0
 294.854 88.3789 299.598 278.911 292.058 418.708 c 0
 290.979 438.679 275.193 452.85 254.522 464.753 c 9
 263.593 482.267 l 17
344 160 m 0
 381.565 138.557 430.244 153.19 472 154 c 0
 523.014 154.989 574.128 166 626 166 c 0
 660 166 l 0
 728 154 l 1025
348 418 m 0
 369.564 407.466 394.088 406.375 418 406 c 0
 467.473 406.688 516.8 410.104 566 416 c 0
 614.583 421.822 734 451.877 734 374 c 0
 734 350.018 723.213 325.132 718 302 c 0
 674 158 l 1025
316 468 m 0
 335.354 405.498 339.497 337.634 340 272 c 0
 340 214 l 0
 332 130 l 1025
EndSplineSet
Fore
SplineSet
370 420 m 3
 345 420 315 435 315 475 c 1
 320 470 330 465 338 465 c 3
 425 465 576 479 626 487 c 0
 646 490 658 510 670 510 c 3
 690 510 755 465 755 440 c 3
 755 428 737 420 730 400 c 0
 720 370 693 240 678 155 c 9
 620 160 l 17
 637 265 654 405 654 420 c 3
 654 435 650 438 625 438 c 3
 545 438 400 420 370 420 c 3
680 190 m 17
 695 188 730 160 730 140 c 3
 730 130 720 125 710 125 c 3
 695 125 660 130 627 130 c 3
 575 130 455 127 350 120 c 9
 345 162 l 17
 520 172 615 175 655 180 c 9
 680 190 l 17
245 510 m 17
 301 500 345 475 345 455 c 3
 345 445 342 435 342 410 c 0
 342 330 357 145 357 120 c 3
 357 95 333 75 310 75 c 3
 298 75 290 87 290 100 c 3
 290 170 282 400 277 450 c 0
 276 460 270 480 240 490 c 9
 245 510 l 17
EndSplineSet
EndChar

StartChar: uni30EE
Encoding: 12526 12526 179
Width: 1000
Flags: HMW
LayerCount: 3
Back
SplineSet
400 300 m 0
 400 355 445 400 500 400 c 0
 555 400 600 355 600 300 c 0
 600 245 555 200 500 200 c 0
 445 200 400 245 400 300 c 0
EndSplineSet
Fore
SplineSet
400 300 m 0
 400 355 445 400 500 400 c 0
 555 400 600 355 600 300 c 0
 600 245 555 200 500 200 c 0
 445 200 400 245 400 300 c 0
EndSplineSet
EndChar

StartChar: uni30EF
Encoding: 12527 12527 180
Width: 1000
Flags: HMW
LayerCount: 3
Back
SplineSet
400 300 m 0
 400 355 445 400 500 400 c 0
 555 400 600 355 600 300 c 0
 600 245 555 200 500 200 c 0
 445 200 400 245 400 300 c 0
EndSplineSet
Fore
SplineSet
400 300 m 0
 400 355 445 400 500 400 c 0
 555 400 600 355 600 300 c 0
 600 245 555 200 500 200 c 0
 445 200 400 245 400 300 c 0
EndSplineSet
EndChar

StartChar: uni30F0
Encoding: 12528 12528 181
Width: 1000
Flags: HMW
LayerCount: 3
Back
SplineSet
400 300 m 0
 400 355 445 400 500 400 c 0
 555 400 600 355 600 300 c 0
 600 245 555 200 500 200 c 0
 445 200 400 245 400 300 c 0
EndSplineSet
Fore
SplineSet
400 300 m 0
 400 355 445 400 500 400 c 0
 555 400 600 355 600 300 c 0
 600 245 555 200 500 200 c 0
 445 200 400 245 400 300 c 0
EndSplineSet
EndChar

StartChar: uni30F1
Encoding: 12529 12529 182
Width: 1000
Flags: HMW
LayerCount: 3
Back
SplineSet
400 300 m 0
 400 355 445 400 500 400 c 0
 555 400 600 355 600 300 c 0
 600 245 555 200 500 200 c 0
 445 200 400 245 400 300 c 0
EndSplineSet
Fore
SplineSet
400 300 m 0
 400 355 445 400 500 400 c 0
 555 400 600 355 600 300 c 0
 600 245 555 200 500 200 c 0
 445 200 400 245 400 300 c 0
EndSplineSet
EndChar

StartChar: uni30F2
Encoding: 12530 12530 183
Width: 1000
Flags: HMW
LayerCount: 3
Back
SplineSet
400 300 m 0
 400 355 445 400 500 400 c 0
 555 400 600 355 600 300 c 0
 600 245 555 200 500 200 c 0
 445 200 400 245 400 300 c 0
EndSplineSet
Fore
SplineSet
400 300 m 0
 400 355 445 400 500 400 c 0
 555 400 600 355 600 300 c 0
 600 245 555 200 500 200 c 0
 445 200 400 245 400 300 c 0
EndSplineSet
EndChar

StartChar: uni30F3
Encoding: 12531 12531 184
Width: 1000
Flags: HMW
LayerCount: 3
Back
SplineSet
150 595 m 9
 158 613 l 17
 280 590 350 520 350 485 c 3
 350 465 325 440 305 440 c 3
 275 440 270 530 150 595 c 9
190 120 m 17
 197 95 215 75 230 75 c 0
 300 75 580 180 857 568 c 9
 870 555 l 17
 745 285 525 105 290 5 c 0
 269.92 -3.54492 267 -20 253 -20 c 0
 231 -20 180 35 170 115 c 9
 190 120 l 17
EndSplineSet
Fore
SplineSet
160 595 m 9
 168 613 l 17
 290 590 360 520 360 485 c 3
 360 465 335 440 315 440 c 3
 285 440 280 530 160 595 c 9
200 125 m 17
 207 100 225 80 240 80 c 0
 310 80 585 185 862 563 c 9
 875 550 l 17
 750 285 535 110 300 10 c 0
 280 1 277 -15 263 -15 c 0
 241 -15 190 40 180 120 c 9
 200 125 l 17
EndSplineSet
EndChar

StartChar: uni30F4
Encoding: 12532 12532 185
Width: 1000
Flags: HMW
LayerCount: 3
Back
SplineSet
400 300 m 0
 400 355 445 400 500 400 c 0
 555 400 600 355 600 300 c 0
 600 245 555 200 500 200 c 0
 445 200 400 245 400 300 c 0
EndSplineSet
Fore
SplineSet
400 300 m 0
 400 355 445 400 500 400 c 0
 555 400 600 355 600 300 c 0
 600 245 555 200 500 200 c 0
 445 200 400 245 400 300 c 0
EndSplineSet
EndChar

StartChar: uni30F5
Encoding: 12533 12533 186
Width: 1000
Flags: HMW
LayerCount: 3
Back
SplineSet
400 300 m 0
 400 355 445 400 500 400 c 0
 555 400 600 355 600 300 c 0
 600 245 555 200 500 200 c 0
 445 200 400 245 400 300 c 0
EndSplineSet
Fore
SplineSet
400 300 m 0
 400 355 445 400 500 400 c 0
 555 400 600 355 600 300 c 0
 600 245 555 200 500 200 c 0
 445 200 400 245 400 300 c 0
EndSplineSet
EndChar

StartChar: uni30F6
Encoding: 12534 12534 187
Width: 1000
Flags: HMW
LayerCount: 3
Back
SplineSet
400 300 m 0
 400 355 445 400 500 400 c 0
 555 400 600 355 600 300 c 0
 600 245 555 200 500 200 c 0
 445 200 400 245 400 300 c 0
EndSplineSet
Fore
SplineSet
400 300 m 0
 400 355 445 400 500 400 c 0
 555 400 600 355 600 300 c 0
 600 245 555 200 500 200 c 0
 445 200 400 245 400 300 c 0
EndSplineSet
EndChar

StartChar: uni30F7
Encoding: 12535 12535 188
Width: 1000
Flags: HMW
LayerCount: 3
Back
SplineSet
400 300 m 0
 400 355 445 400 500 400 c 0
 555 400 600 355 600 300 c 0
 600 245 555 200 500 200 c 0
 445 200 400 245 400 300 c 0
EndSplineSet
Fore
SplineSet
400 300 m 0
 400 355 445 400 500 400 c 0
 555 400 600 355 600 300 c 0
 600 245 555 200 500 200 c 0
 445 200 400 245 400 300 c 0
EndSplineSet
EndChar

StartChar: uni30F8
Encoding: 12536 12536 189
Width: 1000
Flags: HMW
LayerCount: 3
Back
SplineSet
400 300 m 0
 400 355 445 400 500 400 c 0
 555 400 600 355 600 300 c 0
 600 245 555 200 500 200 c 0
 445 200 400 245 400 300 c 0
EndSplineSet
Fore
SplineSet
400 300 m 0
 400 355 445 400 500 400 c 0
 555 400 600 355 600 300 c 0
 600 245 555 200 500 200 c 0
 445 200 400 245 400 300 c 0
EndSplineSet
EndChar

StartChar: uni30F9
Encoding: 12537 12537 190
Width: 1000
Flags: HMW
LayerCount: 3
Back
SplineSet
400 300 m 0
 400 355 445 400 500 400 c 0
 555 400 600 355 600 300 c 0
 600 245 555 200 500 200 c 0
 445 200 400 245 400 300 c 0
EndSplineSet
Fore
SplineSet
400 300 m 0
 400 355 445 400 500 400 c 0
 555 400 600 355 600 300 c 0
 600 245 555 200 500 200 c 0
 445 200 400 245 400 300 c 0
EndSplineSet
EndChar

StartChar: uni30FA
Encoding: 12538 12538 191
Width: 1000
Flags: HMW
LayerCount: 3
Back
SplineSet
400 300 m 0
 400 355 445 400 500 400 c 0
 555 400 600 355 600 300 c 0
 600 245 555 200 500 200 c 0
 445 200 400 245 400 300 c 0
EndSplineSet
Fore
SplineSet
400 300 m 0
 400 355 445 400 500 400 c 0
 555 400 600 355 600 300 c 0
 600 245 555 200 500 200 c 0
 445 200 400 245 400 300 c 0
EndSplineSet
EndChar

StartChar: uni30FC
Encoding: 12540 12540 192
Width: 1000
Flags: HMW
LayerCount: 3
Back
SplineSet
140 345 m 17
 155 325 185 315 205 315 c 3
 260 315 645 327 735 342 c 0
 765 347 785 355 795 355 c 3
 820 355 875 310 875 290 c 3
 875 282 865 275 850 275 c 3
 835 275 795 285 730 285 c 3
 580 285 345 275 275 265 c 0
 240 260 225 255 215 255 c 3
 185 255 145 290 125 335 c 9
 140 345 l 17
EndSplineSet
Fore
SplineSet
140 345 m 17
 155 325 185 315 205 315 c 3
 260 315 645 327 735 342 c 0
 765 347 785 355 795 355 c 3
 820 355 875 310 875 290 c 3
 875 282 865 275 850 275 c 3
 835 275 795 285 730 285 c 3
 580 285 345 275 275 265 c 0
 240 260 225 255 215 255 c 3
 185 255 145 290 125 335 c 9
 140 345 l 17
EndSplineSet
EndChar

StartChar: uni30FD
Encoding: 12541 12541 193
Width: 1000
Flags: HMW
LayerCount: 3
Back
SplineSet
400 300 m 0
 400 355 445 400 500 400 c 0
 555 400 600 355 600 300 c 0
 600 245 555 200 500 200 c 0
 445 200 400 245 400 300 c 0
EndSplineSet
Fore
SplineSet
400 300 m 0
 400 355 445 400 500 400 c 0
 555 400 600 355 600 300 c 0
 600 245 555 200 500 200 c 0
 445 200 400 245 400 300 c 0
EndSplineSet
EndChar

StartChar: uni30FE
Encoding: 12542 12542 194
Width: 1000
Flags: HMW
LayerCount: 3
Back
SplineSet
400 300 m 0
 400 355 445 400 500 400 c 0
 555 400 600 355 600 300 c 0
 600 245 555 200 500 200 c 0
 445 200 400 245 400 300 c 0
EndSplineSet
Fore
SplineSet
400 300 m 0
 400 355 445 400 500 400 c 0
 555 400 600 355 600 300 c 0
 600 245 555 200 500 200 c 0
 445 200 400 245 400 300 c 0
EndSplineSet
EndChar

StartChar: uni30FF
Encoding: 12543 12543 195
Width: 1000
Flags: HMW
LayerCount: 3
Back
SplineSet
400 300 m 0
 400 355 445 400 500 400 c 0
 555 400 600 355 600 300 c 0
 600 245 555 200 500 200 c 0
 445 200 400 245 400 300 c 0
EndSplineSet
Fore
SplineSet
400 300 m 0
 400 355 445 400 500 400 c 0
 555 400 600 355 600 300 c 0
 600 245 555 200 500 200 c 0
 445 200 400 245 400 300 c 0
EndSplineSet
EndChar

StartChar: uni3012
Encoding: 12306 12306 196
Width: 1000
Flags: HMW
LayerCount: 3
Back
SplineSet
165 630 m 1
 835 630 l 1
 835 540 l 1
 165 540 l 1
 165 630 l 1
165 430 m 1
 835 430 l 1
 835 342 l 1
 548 342 l 1
 548 -40 l 1
 452 -40 l 1
 452 342 l 1
 165 342 l 1
 165 430 l 1
EndSplineSet
Fore
SplineSet
165 630 m 1
 835 630 l 1
 835 540 l 1
 165 540 l 1
 165 630 l 1
165 430 m 1
 835 430 l 1
 835 342 l 1
 548 342 l 1
 548 -40 l 1
 452 -40 l 1
 452 342 l 1
 165 342 l 1
 165 430 l 1
EndSplineSet
EndChar

StartChar: uni3001
Encoding: 12289 12289 197
Width: 1000
Flags: HMW
GlyphCompositionVertical: 1  FE11%0,0,0,0
LayerCount: 3
Back
SplineSet
65 130 m 9
 75 150 l 17
 260 95 355 -30 355 -75 c 3
 355 -105 325 -135 295 -135 c 3
 250 -135 270 10 65 130 c 9
EndSplineSet
Fore
SplineSet
65 130 m 9
 75 150 l 17
 260 95 355 -30 355 -75 c 3
 355 -105 325 -135 295 -135 c 3
 250 -135 270 10 65 130 c 9
EndSplineSet
Substitution2: "'aalt' Access All Alternates lookup 0-subtable" uniFE11
Substitution2: "'vert' Vertical Alternates (obs) lookup 1-subtable" uniFE11
EndChar

StartChar: uni3002
Encoding: 12290 12290 198
Width: 1000
Flags: HMW
LayerCount: 3
Back
SplineSet
55 0 m 0
 55 80 120 145 200 145 c 0
 280 145 345 80 345 0 c 0
 345 -80 280 -145 200 -145 c 0
 120 -145 55 -80 55 0 c 0
98 0 m 0
 98 -57 144 -103 200 -103 c 0
 256 -103 302 -57 302 0 c 0
 302 57 256 103 200 103 c 0
 144 103 98 57 98 0 c 0
EndSplineSet
Fore
SplineSet
55 0 m 0
 55 80 120 145 200 145 c 0
 280 145 345 80 345 0 c 0
 345 -80 280 -145 200 -145 c 0
 120 -145 55 -80 55 0 c 0
98 0 m 0
 98 -57 144 -103 200 -103 c 0
 256 -103 302 -57 302 0 c 0
 302 57 256 103 200 103 c 0
 144 103 98 57 98 0 c 0
EndSplineSet
Substitution2: "'aalt' Access All Alternates lookup 0-subtable" uniFE12
Substitution2: "'vert' Vertical Alternates (obs) lookup 1-subtable" uniFE12
EndChar

StartChar: uni3003
Encoding: 12291 12291 199
Width: 1000
Flags: HMW
LayerCount: 3
Back
SplineSet
595 485 m 1
 655 480 670 475 670 465 c 3
 670 440 615 245 525 85 c 9
 505 95 l 17
 560 245 590 400 595 485 c 1
410 495 m 1
 470 490 485 485 485 475 c 3
 485 450 430 255 340 95 c 9
 320 105 l 17
 375 255 405 410 410 495 c 1
EndSplineSet
Fore
SplineSet
595 485 m 1
 655 480 670 475 670 465 c 3
 670 440 615 245 525 85 c 9
 505 95 l 17
 560 245 590 400 595 485 c 1
410 495 m 1
 470 490 485 485 485 475 c 3
 485 450 430 255 340 95 c 9
 320 105 l 17
 375 255 405 410 410 495 c 1
EndSplineSet
EndChar

StartChar: uni3004
Encoding: 12292 12292 200
Width: 1000
Flags: HMW
LayerCount: 3
Back
SplineSet
400 300 m 0
 400 355 445 400 500 400 c 0
 555 400 600 355 600 300 c 0
 600 245 555 200 500 200 c 0
 445 200 400 245 400 300 c 0
EndSplineSet
Fore
SplineSet
400 300 m 0
 400 355 445 400 500 400 c 0
 555 400 600 355 600 300 c 0
 600 245 555 200 500 200 c 0
 445 200 400 245 400 300 c 0
EndSplineSet
EndChar

StartChar: uni3005
Encoding: 12293 12293 201
Width: 1000
Flags: HMW
LayerCount: 3
Back
SplineSet
405 395 m 1
 400 395 395 385 395 380 c 1
 410 350 440 325 460 325 c 3
 485 325 625 380 650 380 c 3
 656 380 660 375 660 370 c 3
 660 360 605 260 530 180 c 9
 545 165 l 17
 650 240 707 310 737 330 c 0
 746 336 775 337 775 355 c 3
 775 380 695 445 685 445 c 1
 680 445 670 425 660 420 c 0
 640 410 495 370 445 370 c 3
 430 370 415 380 405 395 c 1
435 205 m 9
 450 220 l 17
 570 190 655 100 655 70 c 3
 655 55 630 25 605 25 c 3
 575 25 570 129 435 205 c 9
360 575 m 9
 365 595 l 17
 440 585 490 540 490 517 c 3
 490 507 478 505 468 485 c 0
 448 445 365 250 165 125 c 9
 150 140 l 17
 315 290 400 485 400 525 c 3
 400 545 390 565 360 575 c 9
EndSplineSet
Fore
SplineSet
405 395 m 1
 415 380 430 370 445 370 c 3
 495 370 640 410 660 420 c 0
 670 425 680 445 685 445 c 1
 695 445 775 380 775 355 c 3
 775 337 746 336 737 330 c 0
 707 310 650 240 545 165 c 9
 530 180 l 17
 605 260 660 360 660 370 c 3
 660 375 656 380 650 380 c 3
 625 380 485 325 460 325 c 3
 440 325 410 350 395 380 c 1
 395 385 400 395 405 395 c 1
435 205 m 9
 450 220 l 17
 570 190 655 100 655 70 c 3
 655 55 630 25 605 25 c 3
 575 25 570 129 435 205 c 9
360 575 m 9
 365 595 l 17
 440 585 490 540 490 517 c 3
 490 507 478 505 468 485 c 0
 448 445 365 250 165 125 c 9
 150 140 l 17
 315 290 400 485 400 525 c 3
 400 545 390 565 360 575 c 9
EndSplineSet
EndChar

StartChar: uni3006
Encoding: 12294 12294 202
Width: 1000
Flags: HMW
LayerCount: 3
Back
SplineSet
325 385 m 9
 335 400 l 17
 555 370 695 225 695 185 c 3
 695 170 675 135 650 135 c 3
 620 135 580 289 325 385 c 9
760 685 m 9
 770 700 l 17
 835 675 880 622 880 600 c 3
 880 585 850 570 710 430 c 0
 420 140 230 -80 190 -80 c 3
 170 -80 120 -55 120 -25 c 3
 120 10 170 100 220 170 c 9
 235 160 l 17
 210 100 200 50 200 35 c 3
 200 28 204 25 210 25 c 3
 235 25 360 145 505 290 c 0
 715 500 795 610 795 632 c 3
 795 647 780 670 760 685 c 9
EndSplineSet
Fore
SplineSet
325 385 m 9
 335 400 l 17
 555 370 695 225 695 185 c 3
 695 170 675 135 650 135 c 3
 620 135 580 289 325 385 c 9
760 685 m 9
 770 700 l 17
 835 675 880 622 880 600 c 3
 880 585 850 570 710 430 c 0
 420 140 230 -80 190 -80 c 3
 170 -80 120 -55 120 -25 c 3
 120 10 170 100 220 170 c 9
 235 160 l 17
 210 100 200 50 200 35 c 3
 200 28 204 25 210 25 c 3
 235 25 360 145 505 290 c 0
 715 500 795 610 795 632 c 3
 795 647 780 670 760 685 c 9
EndSplineSet
EndChar

StartChar: uni3007
Encoding: 12295 12295 203
Width: 1000
Flags: HMW
LayerCount: 3
Back
SplineSet
140 300 m 0
 140 101 301 -60 500 -60 c 0
 699 -60 860 101 860 300 c 0
 860 499 699 660 500 660 c 0
 301 660 140 499 140 300 c 0
100 300 m 0
 100 521 279 700 500 700 c 0
 721 700 900 521 900 300 c 0
 900 79 721 -100 500 -100 c 0
 279 -100 100 79 100 300 c 0
EndSplineSet
Fore
SplineSet
140 300 m 0
 140 101 301 -60 500 -60 c 0
 699 -60 860 101 860 300 c 0
 860 499 699 660 500 660 c 0
 301 660 140 499 140 300 c 0
100 300 m 0
 100 521 279 700 500 700 c 0
 721 700 900 521 900 300 c 0
 900 79 721 -100 500 -100 c 0
 279 -100 100 79 100 300 c 0
EndSplineSet
EndChar

StartChar: uni3008
Encoding: 12296 12296 204
Width: 1000
Flags: HMW
LayerCount: 3
Back
SplineSet
885 740 m 1
 935 740 l 1
 610 300 l 1
 935 -140 l 1
 885 -140 l 1
 560 300 l 1
 885 740 l 1
EndSplineSet
Fore
SplineSet
885 740 m 1
 935 740 l 1
 610 300 l 1
 935 -140 l 1
 885 -140 l 1
 560 300 l 1
 885 740 l 1
EndSplineSet
Substitution2: "'vert' Vertical Alternates (obs) lookup 1-subtable" uniFE3F
Substitution2: "'aalt' Access All Alternates lookup 0-subtable" uniFE3F
EndChar

StartChar: uni3009
Encoding: 12297 12297 205
Width: 1000
Flags: HMW
LayerCount: 3
Back
SplineSet
115 -140 m 1
 65 -140 l 1
 390 300 l 1
 65 740 l 1
 115 740 l 1
 440 300 l 1
 115 -140 l 1
EndSplineSet
Fore
SplineSet
115 -140 m 1
 65 -140 l 1
 390 300 l 1
 65 740 l 1
 115 740 l 1
 440 300 l 1
 115 -140 l 1
EndSplineSet
Substitution2: "'vert' Vertical Alternates (obs) lookup 1-subtable" uniFE40
Substitution2: "'aalt' Access All Alternates lookup 0-subtable" uniFE40
EndChar

StartChar: uni300A
Encoding: 12298 12298 206
Width: 1000
Flags: HMW
LayerCount: 3
Back
SplineSet
895 740 m 1
 940 740 l 1
 710 300 l 1
 940 -140 l 1
 895 -140 l 1
 665 300 l 1
 895 740 l 1
760 740 m 1
 805 740 l 1
 575 300 l 1
 805 -140 l 1
 760 -140 l 1
 530 300 l 1
 760 740 l 1
EndSplineSet
Fore
SplineSet
895 740 m 1
 940 740 l 1
 710 300 l 1
 940 -140 l 1
 895 -140 l 1
 665 300 l 1
 895 740 l 1
760 740 m 1
 805 740 l 1
 575 300 l 1
 805 -140 l 1
 760 -140 l 1
 530 300 l 1
 760 740 l 1
EndSplineSet
Substitution2: "'vert' Vertical Alternates (obs) lookup 1-subtable" uniFE3D
Substitution2: "'aalt' Access All Alternates lookup 0-subtable" uniFE3D
EndChar

StartChar: uni300B
Encoding: 12299 12299 207
Width: 1000
Flags: HMW
LayerCount: 3
Back
SplineSet
105 -140 m 1
 60 -140 l 1
 290 300 l 1
 60 740 l 1
 105 740 l 1
 335 300 l 1
 105 -140 l 1
240 -140 m 1
 195 -140 l 1
 425 300 l 1
 195 740 l 1
 240 740 l 1
 470 300 l 1
 240 -140 l 1
EndSplineSet
Fore
SplineSet
105 -140 m 1
 60 -140 l 1
 290 300 l 1
 60 740 l 1
 105 740 l 1
 335 300 l 1
 105 -140 l 1
240 -140 m 1
 195 -140 l 1
 425 300 l 1
 195 740 l 1
 240 740 l 1
 470 300 l 1
 240 -140 l 1
EndSplineSet
Substitution2: "'vert' Vertical Alternates (obs) lookup 1-subtable" uniFE3E
Substitution2: "'aalt' Access All Alternates lookup 0-subtable" uniFE3E
EndChar

StartChar: uni300C
Encoding: 12300 12300 208
Width: 1000
Flags: HMW
LayerCount: 3
Back
SplineSet
650 770 m 25
 955 770 l 25
 955 730 l 25
 690 730 l 25
 690 43 l 25
 650 43 l 25
 650 770 l 25
EndSplineSet
Fore
SplineSet
650 770 m 25
 955 770 l 25
 955 730 l 25
 690 730 l 25
 690 43 l 25
 650 43 l 25
 650 770 l 25
EndSplineSet
Substitution2: "'aalt' Access All Alternates lookup 0-subtable" uniFE41
Substitution2: "'vert' Vertical Alternates (obs) lookup 1-subtable" uniFE41
EndChar

StartChar: uni300D
Encoding: 12301 12301 209
Width: 1000
Flags: HMW
LayerCount: 3
Back
SplineSet
350 -170 m 25
 45 -170 l 25
 45 -130 l 25
 310 -130 l 25
 310 557 l 25
 350 557 l 25
 350 -170 l 25
EndSplineSet
Fore
SplineSet
350 -170 m 25
 45 -170 l 25
 45 -130 l 25
 310 -130 l 25
 310 557 l 25
 350 557 l 25
 350 -170 l 25
EndSplineSet
Substitution2: "'aalt' Access All Alternates lookup 0-subtable" uniFE42
Substitution2: "'vert' Vertical Alternates (obs) lookup 1-subtable" uniFE42
EndChar

StartChar: uni300E
Encoding: 12302 12302 210
Width: 1000
Flags: HMW
LayerCount: 3
Back
SplineSet
620 770 m 1
 955 770 l 1
 955 660 l 1
 730 660 l 1
 730 43 l 1
 620 43 l 1
 620 770 l 1
700 73 m 1
 700 690 l 1
 925 690 l 1
 925 740 l 1
 650 740 l 1
 650 73 l 1
 700 73 l 1
EndSplineSet
Fore
SplineSet
620 770 m 1
 955 770 l 1
 955 660 l 1
 730 660 l 1
 730 43 l 1
 620 43 l 1
 620 770 l 1
700 73 m 1
 700 690 l 1
 925 690 l 1
 925 740 l 1
 650 740 l 1
 650 73 l 1
 700 73 l 1
EndSplineSet
Substitution2: "'aalt' Access All Alternates lookup 0-subtable" uniFE43
Substitution2: "'vert' Vertical Alternates (obs) lookup 1-subtable" uniFE43
EndChar

StartChar: uni300F
Encoding: 12303 12303 211
Width: 1000
Flags: HMW
LayerCount: 3
Back
SplineSet
380 -170 m 1
 45 -170 l 1
 45 -60 l 1
 270 -60 l 1
 270 557 l 1
 380 557 l 1
 380 -170 l 1
300 527 m 1
 300 -90 l 1
 75 -90 l 1
 75 -140 l 1
 350 -140 l 1
 350 527 l 1
 300 527 l 1
EndSplineSet
Fore
SplineSet
380 -170 m 1
 45 -170 l 1
 45 -60 l 1
 270 -60 l 1
 270 557 l 1
 380 557 l 1
 380 -170 l 1
300 527 m 1
 300 -90 l 1
 75 -90 l 1
 75 -140 l 1
 350 -140 l 1
 350 527 l 1
 300 527 l 1
EndSplineSet
Substitution2: "'aalt' Access All Alternates lookup 0-subtable" uniFE44
Substitution2: "'vert' Vertical Alternates (obs) lookup 1-subtable" uniFE44
EndChar

StartChar: uni3010
Encoding: 12304 12304 212
Width: 1000
Flags: HMW
LayerCount: 3
Back
SplineSet
400 300 m 0
 400 355 445 400 500 400 c 0
 555 400 600 355 600 300 c 0
 600 245 555 200 500 200 c 0
 445 200 400 245 400 300 c 0
EndSplineSet
Fore
SplineSet
400 300 m 0
 400 355 445 400 500 400 c 0
 555 400 600 355 600 300 c 0
 600 245 555 200 500 200 c 0
 445 200 400 245 400 300 c 0
EndSplineSet
EndChar

StartChar: uni3011
Encoding: 12305 12305 213
Width: 1000
Flags: HMW
LayerCount: 3
Back
SplineSet
400 300 m 0
 400 355 445 400 500 400 c 0
 555 400 600 355 600 300 c 0
 600 245 555 200 500 200 c 0
 445 200 400 245 400 300 c 0
EndSplineSet
Fore
SplineSet
400 300 m 0
 400 355 445 400 500 400 c 0
 555 400 600 355 600 300 c 0
 600 245 555 200 500 200 c 0
 445 200 400 245 400 300 c 0
EndSplineSet
EndChar

StartChar: uni3013
Encoding: 12307 12307 214
Width: 1000
Flags: HMW
LayerCount: 3
Back
SplineSet
160 200 m 1
 840 200 l 1
 840 -40 l 1
 160 -40 l 1
 160 200 l 1
160 640 m 1
 840 640 l 1
 840 400 l 1
 160 400 l 1
 160 640 l 1
EndSplineSet
Fore
SplineSet
160 200 m 1
 840 200 l 1
 840 -40 l 1
 160 -40 l 1
 160 200 l 1
160 640 m 1
 840 640 l 1
 840 400 l 1
 160 400 l 1
 160 640 l 1
EndSplineSet
EndChar

StartChar: uni3014
Encoding: 12308 12308 215
Width: 1000
Flags: HMW
LayerCount: 3
Back
SplineSet
665 658 m 1
 895 745 l 1
 895 703 l 1
 705 630 l 1
 705 -30 l 1
 895 -103 l 1
 895 -145 l 1
 665 -58 l 1
 665 658 l 1
EndSplineSet
Fore
SplineSet
665 658 m 1
 895 745 l 1
 895 703 l 1
 705 630 l 1
 705 -30 l 1
 895 -103 l 1
 895 -145 l 1
 665 -58 l 1
 665 658 l 1
EndSplineSet
EndChar

StartChar: uni3015
Encoding: 12309 12309 216
Width: 1000
Flags: HMW
LayerCount: 3
Back
SplineSet
335 -58 m 1
 105 -145 l 1
 105 -103 l 1
 295 -30 l 1
 295 630 l 1
 105 703 l 1
 105 745 l 1
 335 658 l 1
 335 -58 l 1
EndSplineSet
Fore
SplineSet
335 -58 m 1
 105 -145 l 1
 105 -103 l 1
 295 -30 l 1
 295 630 l 1
 105 703 l 1
 105 745 l 1
 335 658 l 1
 335 -58 l 1
EndSplineSet
EndChar

StartChar: uni3016
Encoding: 12310 12310 217
Width: 1000
Flags: HMW
LayerCount: 3
Back
SplineSet
400 300 m 0
 400 355 445 400 500 400 c 0
 555 400 600 355 600 300 c 0
 600 245 555 200 500 200 c 0
 445 200 400 245 400 300 c 0
EndSplineSet
Fore
SplineSet
400 300 m 0
 400 355 445 400 500 400 c 0
 555 400 600 355 600 300 c 0
 600 245 555 200 500 200 c 0
 445 200 400 245 400 300 c 0
EndSplineSet
EndChar

StartChar: uni3017
Encoding: 12311 12311 218
Width: 1000
Flags: HMW
LayerCount: 3
Back
SplineSet
400 300 m 0
 400 355 445 400 500 400 c 0
 555 400 600 355 600 300 c 0
 600 245 555 200 500 200 c 0
 445 200 400 245 400 300 c 0
EndSplineSet
Fore
SplineSet
400 300 m 0
 400 355 445 400 500 400 c 0
 555 400 600 355 600 300 c 0
 600 245 555 200 500 200 c 0
 445 200 400 245 400 300 c 0
EndSplineSet
EndChar

StartChar: uni3018
Encoding: 12312 12312 219
Width: 1000
Flags: HMW
LayerCount: 3
Back
SplineSet
400 300 m 0
 400 355 445 400 500 400 c 0
 555 400 600 355 600 300 c 0
 600 245 555 200 500 200 c 0
 445 200 400 245 400 300 c 0
EndSplineSet
Fore
SplineSet
400 300 m 0
 400 355 445 400 500 400 c 0
 555 400 600 355 600 300 c 0
 600 245 555 200 500 200 c 0
 445 200 400 245 400 300 c 0
EndSplineSet
EndChar

StartChar: uni3019
Encoding: 12313 12313 220
Width: 1000
Flags: HMW
LayerCount: 3
Back
SplineSet
400 300 m 0
 400 355 445 400 500 400 c 0
 555 400 600 355 600 300 c 0
 600 245 555 200 500 200 c 0
 445 200 400 245 400 300 c 0
EndSplineSet
Fore
SplineSet
400 300 m 0
 400 355 445 400 500 400 c 0
 555 400 600 355 600 300 c 0
 600 245 555 200 500 200 c 0
 445 200 400 245 400 300 c 0
EndSplineSet
EndChar

StartChar: uni301A
Encoding: 12314 12314 221
Width: 1000
Flags: HMW
LayerCount: 3
Back
SplineSet
400 300 m 0
 400 355 445 400 500 400 c 0
 555 400 600 355 600 300 c 0
 600 245 555 200 500 200 c 0
 445 200 400 245 400 300 c 0
EndSplineSet
Fore
SplineSet
400 300 m 0
 400 355 445 400 500 400 c 0
 555 400 600 355 600 300 c 0
 600 245 555 200 500 200 c 0
 445 200 400 245 400 300 c 0
EndSplineSet
EndChar

StartChar: uni301B
Encoding: 12315 12315 222
Width: 1000
Flags: HMW
LayerCount: 3
Back
SplineSet
400 300 m 0
 400 355 445 400 500 400 c 0
 555 400 600 355 600 300 c 0
 600 245 555 200 500 200 c 0
 445 200 400 245 400 300 c 0
EndSplineSet
Fore
SplineSet
400 300 m 0
 400 355 445 400 500 400 c 0
 555 400 600 355 600 300 c 0
 600 245 555 200 500 200 c 0
 445 200 400 245 400 300 c 0
EndSplineSet
EndChar

StartChar: uni301C
Encoding: 12316 12316 223
Width: 1000
Flags: HMW
LayerCount: 3
Back
SplineSet
400 300 m 0
 400 355 445 400 500 400 c 0
 555 400 600 355 600 300 c 0
 600 245 555 200 500 200 c 0
 445 200 400 245 400 300 c 0
EndSplineSet
Fore
SplineSet
400 300 m 0
 400 355 445 400 500 400 c 0
 555 400 600 355 600 300 c 0
 600 245 555 200 500 200 c 0
 445 200 400 245 400 300 c 0
EndSplineSet
EndChar

StartChar: uni301D
Encoding: 12317 12317 224
Width: 1000
Flags: HMW
LayerCount: 3
Back
SplineSet
400 300 m 0
 400 355 445 400 500 400 c 0
 555 400 600 355 600 300 c 0
 600 245 555 200 500 200 c 0
 445 200 400 245 400 300 c 0
EndSplineSet
Fore
SplineSet
400 300 m 0
 400 355 445 400 500 400 c 0
 555 400 600 355 600 300 c 0
 600 245 555 200 500 200 c 0
 445 200 400 245 400 300 c 0
EndSplineSet
EndChar

StartChar: uni301E
Encoding: 12318 12318 225
Width: 1000
Flags: HMW
LayerCount: 3
Back
SplineSet
400 300 m 0
 400 355 445 400 500 400 c 0
 555 400 600 355 600 300 c 0
 600 245 555 200 500 200 c 0
 445 200 400 245 400 300 c 0
EndSplineSet
Fore
SplineSet
400 300 m 0
 400 355 445 400 500 400 c 0
 555 400 600 355 600 300 c 0
 600 245 555 200 500 200 c 0
 445 200 400 245 400 300 c 0
EndSplineSet
EndChar

StartChar: uni301F
Encoding: 12319 12319 226
Width: 1000
Flags: HMW
LayerCount: 3
Back
SplineSet
400 300 m 0
 400 355 445 400 500 400 c 0
 555 400 600 355 600 300 c 0
 600 245 555 200 500 200 c 0
 445 200 400 245 400 300 c 0
EndSplineSet
Fore
SplineSet
400 300 m 0
 400 355 445 400 500 400 c 0
 555 400 600 355 600 300 c 0
 600 245 555 200 500 200 c 0
 445 200 400 245 400 300 c 0
EndSplineSet
EndChar

StartChar: uni3020
Encoding: 12320 12320 227
Width: 1000
Flags: HMW
LayerCount: 3
Back
SplineSet
400 300 m 0
 400 355 445 400 500 400 c 0
 555 400 600 355 600 300 c 0
 600 245 555 200 500 200 c 0
 445 200 400 245 400 300 c 0
EndSplineSet
Fore
SplineSet
400 300 m 0
 400 355 445 400 500 400 c 0
 555 400 600 355 600 300 c 0
 600 245 555 200 500 200 c 0
 445 200 400 245 400 300 c 0
EndSplineSet
EndChar

StartChar: uniFF5B
Encoding: 65371 65371 228
Width: 1000
Flags: HMW
LayerCount: 3
Back
SplineSet
400 300 m 0
 400 355 445 400 500 400 c 0
 555 400 600 355 600 300 c 0
 600 245 555 200 500 200 c 0
 445 200 400 245 400 300 c 0
EndSplineSet
Fore
SplineSet
400 300 m 0
 400 355 445 400 500 400 c 0
 555 400 600 355 600 300 c 0
 600 245 555 200 500 200 c 0
 445 200 400 245 400 300 c 0
EndSplineSet
EndChar

StartChar: uniFF5C
Encoding: 65372 65372 229
Width: 1000
Flags: HMW
LayerCount: 3
Back
SplineSet
400 300 m 0
 400 355 445 400 500 400 c 0
 555 400 600 355 600 300 c 0
 600 245 555 200 500 200 c 0
 445 200 400 245 400 300 c 0
EndSplineSet
Fore
SplineSet
400 300 m 0
 400 355 445 400 500 400 c 0
 555 400 600 355 600 300 c 0
 600 245 555 200 500 200 c 0
 445 200 400 245 400 300 c 0
EndSplineSet
EndChar

StartChar: uniFF5D
Encoding: 65373 65373 230
Width: 1000
Flags: HMW
LayerCount: 3
Back
SplineSet
400 300 m 0
 400 355 445 400 500 400 c 0
 555 400 600 355 600 300 c 0
 600 245 555 200 500 200 c 0
 445 200 400 245 400 300 c 0
EndSplineSet
Fore
SplineSet
400 300 m 0
 400 355 445 400 500 400 c 0
 555 400 600 355 600 300 c 0
 600 245 555 200 500 200 c 0
 445 200 400 245 400 300 c 0
EndSplineSet
EndChar

StartChar: uniFF5E
Encoding: 65374 65374 231
Width: 1000
Flags: HMW
LayerCount: 3
Back
SplineSet
400 300 m 0
 400 355 445 400 500 400 c 0
 555 400 600 355 600 300 c 0
 600 245 555 200 500 200 c 0
 445 200 400 245 400 300 c 0
EndSplineSet
Fore
SplineSet
400 300 m 0
 400 355 445 400 500 400 c 0
 555 400 600 355 600 300 c 0
 600 245 555 200 500 200 c 0
 445 200 400 245 400 300 c 0
EndSplineSet
EndChar

StartChar: uniFF5F
Encoding: 65375 65375 232
Width: 1000
Flags: HMW
LayerCount: 3
Back
SplineSet
400 300 m 0
 400 355 445 400 500 400 c 0
 555 400 600 355 600 300 c 0
 600 245 555 200 500 200 c 0
 445 200 400 245 400 300 c 0
EndSplineSet
Fore
SplineSet
400 300 m 0
 400 355 445 400 500 400 c 0
 555 400 600 355 600 300 c 0
 600 245 555 200 500 200 c 0
 445 200 400 245 400 300 c 0
EndSplineSet
EndChar

StartChar: uniFF60
Encoding: 65376 65376 233
Width: 1000
Flags: HMW
LayerCount: 3
Back
SplineSet
400 300 m 0
 400 355 445 400 500 400 c 0
 555 400 600 355 600 300 c 0
 600 245 555 200 500 200 c 0
 445 200 400 245 400 300 c 0
EndSplineSet
Fore
SplineSet
400 300 m 0
 400 355 445 400 500 400 c 0
 555 400 600 355 600 300 c 0
 600 245 555 200 500 200 c 0
 445 200 400 245 400 300 c 0
EndSplineSet
EndChar

